<svg width="76" height="73" viewBox="0 0 76 73" fill="none" xmlns="http://www.w3.org/2000/svg">
<ellipse cx="38.3375" cy="37.5081" rx="33.44" ry="32.6293" fill="black"/>
<mask id="mask0_213_1548" style="mask-type:luminance" maskUnits="userSpaceOnUse" x="0" y="0" width="76" height="73">
<path d="M0 0H76V72.1493H0V0Z" fill="white"/>
</mask>
<g mask="url(#mask0_213_1548)">
<path fill-rule="evenodd" clip-rule="evenodd" d="M18.0927 4.48215C18.6194 4.48215 19.0543 4.91388 19.0543 5.44482C19.0543 5.97682 18.6194 6.40854 18.0927 6.40854C17.5586 6.40854 17.1237 5.97682 17.1237 5.44482C17.1237 4.91388 17.5586 4.48215 18.0927 4.48215ZM0.968447 40.7183C1.50256 40.7183 1.93639 41.15 1.93639 41.682C1.93639 42.214 1.50256 42.6458 0.968447 42.6458C0.435391 42.6458 0.00683594 42.214 0.00683594 41.682C0.00683594 41.15 0.435391 40.7183 0.968447 40.7183ZM65.9126 13.3594C66.4467 13.3594 66.8752 13.7911 66.8752 14.322C66.8752 14.854 66.4467 15.2858 65.9126 15.2858C65.3795 15.2858 64.9446 14.854 64.9446 14.322C64.9446 13.7911 65.3795 13.3594 65.9126 13.3594ZM49.6707 1.37882C50.2048 1.37882 50.6387 1.81054 50.6387 2.34254C50.6387 2.87454 50.2048 3.30627 49.6707 3.30627C49.1429 3.30627 48.7091 2.87454 48.7091 2.34254C48.7091 1.81054 49.1429 1.37882 49.6707 1.37882ZM75.3344 39.136C75.6754 39.136 75.9551 39.3999 75.9551 39.724C75.9551 40.0491 75.6754 40.313 75.3344 40.313C74.9935 40.313 74.7201 40.0491 74.7201 39.724C74.7201 39.3999 74.9935 39.136 75.3344 39.136ZM67.8864 16.1756C68.2284 16.1756 68.5008 16.4384 68.5008 16.7635C68.5008 17.0887 68.2284 17.3525 67.8864 17.3525C67.5455 17.3525 67.2658 17.0887 67.2658 16.7635C67.2658 16.4384 67.5455 16.1756 67.8864 16.1756ZM20.8847 3.80027C21.2267 3.80027 21.5053 4.06416 21.5053 4.38927C21.5053 4.71438 21.2267 4.97827 20.8847 4.97827C20.5437 4.97827 20.2703 4.71438 20.2703 4.38927C20.2703 4.06416 20.5437 3.80027 20.8847 3.80027ZM15.2997 4.7091C15.6407 4.7091 15.9204 4.97299 15.9204 5.29704C15.9204 5.62216 15.6407 5.8871 15.2997 5.8871C14.9577 5.8871 14.6854 5.62216 14.6854 5.29704C14.6854 4.97299 14.9577 4.7091 15.2997 4.7091ZM1.94906 31.3577C2.29106 31.3577 2.56972 31.6205 2.56972 31.9456C2.56972 32.2707 2.29106 32.5346 1.94906 32.5346C1.60811 32.5346 1.33472 32.2707 1.33472 31.9456C1.33472 31.6205 1.60811 31.3577 1.94906 31.3577ZM8.26761 58.0885C8.60856 58.0885 8.88828 58.3514 8.88828 58.6765C8.88828 59.0016 8.60856 59.2655 8.26761 59.2655C7.92561 59.2655 7.65328 59.0016 7.65328 58.6765C7.65328 58.3514 7.92561 58.0885 8.26761 58.0885ZM27.9917 70.9368C28.3327 70.9368 28.6124 71.2007 28.6124 71.5247C28.6124 71.8498 28.3327 72.1137 27.9917 72.1137C27.6497 72.1137 27.3774 71.8498 27.3774 71.5247C27.3774 71.2007 27.6497 70.9368 27.9917 70.9368ZM54.065 69.3682C54.4059 69.3682 54.6793 69.6321 54.6793 69.9562C54.6793 70.2813 54.4059 70.5452 54.065 70.5452C53.723 70.5452 53.4443 70.2813 53.4443 69.9562C53.4443 69.6321 53.723 69.3682 54.065 69.3682ZM67.6257 59.0417C67.9677 59.0417 68.2464 59.3056 68.2464 59.6307C68.2464 59.9558 67.9677 60.2197 67.6257 60.2197C67.2848 60.2197 67.0114 59.9558 67.0114 59.6307C67.0114 59.3056 67.2848 59.0417 67.6257 59.0417ZM66.1553 60.7549C66.4963 60.7549 66.776 61.0188 66.776 61.3439C66.776 61.669 66.4963 61.9318 66.1553 61.9318C65.8197 61.9318 65.541 61.669 65.541 61.3439C65.541 61.0188 65.8197 60.7549 66.1553 60.7549ZM64.6037 62.4459C64.9446 62.4459 65.218 62.7098 65.218 63.0349C65.218 63.36 64.9446 63.6239 64.6037 63.6239C64.2617 63.6239 63.983 63.36 63.983 63.0349C63.983 62.7098 64.2617 62.4459 64.6037 62.4459ZM66.4773 62.6823C66.8193 62.6823 67.0979 62.9473 67.0979 63.2713C67.0979 63.5964 66.8193 63.8603 66.4773 63.8603C66.1363 63.8603 65.8629 63.5964 65.8629 63.2713C65.8629 62.9473 66.1363 62.6823 66.4773 62.6823ZM56.0695 68.6145C56.4104 68.6145 56.6838 68.8784 56.6838 69.2036C56.6838 69.5287 56.4104 69.7925 56.0695 69.7925C55.7286 69.7925 55.4552 69.5287 55.4552 69.2036C55.4552 68.8784 55.7286 68.6145 56.0695 68.6145ZM57.3045 67.5527C57.4913 67.5527 57.6338 67.6878 57.6338 67.8524C57.6338 68.0182 57.4913 68.1522 57.3045 68.1522C57.1251 68.1522 56.9815 68.0182 56.9815 67.8524C56.9815 67.6878 57.1251 67.5527 57.3045 67.5527ZM57.485 68.8098C57.6644 68.8098 57.8069 68.9439 57.8069 69.1096C57.8069 69.2743 57.6644 69.4083 57.485 69.4083C57.2982 69.4083 57.1557 69.2743 57.1557 69.1096C57.1557 68.9439 57.2982 68.8098 57.485 68.8098ZM63.3254 63.3948C63.5048 63.3948 63.6473 63.5289 63.6473 63.6936C63.6473 63.8593 63.5048 63.9933 63.3254 63.9933C63.1386 63.9933 62.9961 63.8593 62.9961 63.6936C62.9961 63.5289 63.1386 63.3948 63.3254 63.3948ZM32.4039 1.09593C32.5844 1.09593 32.7333 1.23104 32.7333 1.39571C32.7333 1.56038 32.5844 1.69549 32.4039 1.69549C32.2245 1.69549 32.0757 1.56038 32.0757 1.39571C32.0757 1.23104 32.2245 1.09593 32.4039 1.09593ZM6.83417 17.7188C7.01361 17.7188 7.15611 17.8529 7.15611 18.0186C7.15611 18.1833 7.01361 18.3184 6.83417 18.3184C6.64734 18.3184 6.50484 18.1833 6.50484 18.0186C6.50484 17.8529 6.64734 17.7188 6.83417 17.7188ZM29.0462 1.84643C29.2267 1.84643 29.3756 1.98049 29.3756 2.14515C29.3756 2.31088 29.2267 2.44493 29.0462 2.44493C28.8604 2.44493 28.7179 2.31088 28.7179 2.14515C28.7179 1.98049 28.8604 1.84643 29.0462 1.84643ZM32.9877 0.00976562C33.1682 0.00976562 33.317 0.143821 33.317 0.309543C33.317 0.47421 33.1682 0.608266 32.9877 0.608266C32.8082 0.608266 32.6583 0.47421 32.6583 0.309543C32.6583 0.143821 32.8082 0.00976562 32.9877 0.00976562ZM1.17956 38.8943C1.36006 38.8943 1.50889 39.0284 1.50889 39.1941C1.50889 39.3588 1.36006 39.4928 1.17956 39.4928C1.00011 39.4928 0.850225 39.3588 0.850225 39.1941C0.850225 39.0284 1.00011 38.8943 1.17956 38.8943ZM7.60367 56.4324C7.78311 56.4324 7.93195 56.5664 7.93195 56.7322C7.93195 56.8979 7.78311 57.0319 7.60367 57.0319C7.41684 57.0319 7.27434 56.8979 7.27434 56.7322C7.27434 56.5664 7.41684 56.4324 7.60367 56.4324ZM9.39706 60.2989C9.58284 60.2989 9.72639 60.4329 9.72639 60.5987C9.72639 60.7633 9.58284 60.8974 9.39706 60.8974C9.21656 60.8974 9.06772 60.7633 9.06772 60.5987C9.06772 60.4329 9.21656 60.2989 9.39706 60.2989ZM74.3602 41.5818C74.5396 41.5818 74.6884 41.7169 74.6884 41.8815C74.6884 42.0473 74.5396 42.1813 74.3602 42.1813C74.1797 42.1813 74.0308 42.0473 74.0308 41.8815C74.0308 41.7169 74.1797 41.5818 74.3602 41.5818ZM73.1125 28.039C73.2919 28.039 73.4355 28.173 73.4355 28.3377C73.4355 28.5034 73.2919 28.6375 73.1125 28.6375C72.9257 28.6375 72.7832 28.5034 72.7832 28.3377C72.7832 28.173 72.9257 28.039 73.1125 28.039ZM68.9103 18.2719C69.0908 18.2719 69.2397 18.406 69.2397 18.5707C69.2397 18.7364 69.0908 18.8704 68.9103 18.8704C68.7309 18.8704 68.5821 18.7364 68.5821 18.5707C68.5821 18.406 68.7309 18.2719 68.9103 18.2719ZM74.8996 36.3916C75.2416 36.3916 75.5202 36.6555 75.5202 36.9806C75.5202 37.3057 75.2416 37.5696 74.8996 37.5696C74.5586 37.5696 74.2852 37.3057 74.2852 36.9806C74.2852 36.6555 74.5586 36.3916 74.8996 36.3916ZM34.4528 0.422488C34.7874 0.422488 35.0671 0.686377 35.0671 1.01149C35.0671 1.3366 34.7874 1.60049 34.4528 1.60049C34.1108 1.60049 33.8321 1.3366 33.8321 1.01149C33.8321 0.686377 34.1108 0.422488 34.4528 0.422488ZM2.89272 37.1337C2.89272 36.931 2.89272 36.7262 2.89272 36.5225C2.89272 17.6418 18.1856 2.31193 37.0283 2.31193C37.2764 2.31193 37.5308 2.3151 37.7788 2.32143C37.9899 2.31721 38.1947 2.3151 38.4058 2.3151C48.0441 2.3151 56.7208 6.67454 62.7163 13.6074C69.4444 19.7117 73.6519 28.3757 73.6519 37.9792C73.6519 56.4461 58.1046 71.4403 38.9579 71.4403C33.9619 71.4403 29.2141 70.4206 24.919 68.585C12.0476 63.8424 2.89272 51.7615 2.89272 37.6245C2.89272 37.4609 2.89272 37.2973 2.89272 37.1337ZM8.826 21.807C6.052 26.595 4.475 32.1103 4.475 37.9792C4.475 37.9971 4.475 38.015 4.475 38.033C4.66817 53.747 16.0133 66.8233 31.0391 69.8601C16.4978 66.3662 5.64245 52.758 5.64245 36.5225C5.64245 31.2553 6.78456 26.2646 8.826 21.807ZM64.9446 16.8406C64.2184 15.7713 63.4299 14.7474 62.5928 13.7732C62.4619 13.656 62.3321 13.5399 62.2012 13.4248C63.1882 14.5025 64.1065 15.6436 64.9446 16.8406ZM33.8131 70.5853C35.2898 70.7774 36.7982 70.8777 38.3319 70.8777C57.0195 70.8777 72.1878 56.0566 72.1878 37.8008C72.1878 32.0512 70.6858 26.6414 68.0353 21.9294C69.7981 25.8149 70.8779 30.1026 71.1143 34.6225C71.1513 35.2505 71.1639 35.8849 71.1639 36.5225C71.1639 36.7262 71.1639 36.931 71.1639 37.1337C71.1639 37.2973 71.1639 37.4609 71.1639 37.6245C71.1639 38.2483 71.1449 38.8679 71.1143 39.4833C70.5433 49.6557 65.3236 58.61 57.5219 64.2952C52.1407 68.3443 45.5372 70.7299 38.4058 70.7299C38.2823 70.7299 38.1578 70.7288 38.0332 70.7278C37.9277 70.7288 37.8221 70.7288 37.7166 70.7288C37.649 70.7288 37.5804 70.7288 37.5118 70.7288C37.3513 70.7309 37.1898 70.732 37.0283 70.732C36.3887 70.732 35.7553 70.7141 35.1294 70.6792C34.6882 70.656 34.248 70.6243 33.8131 70.5853ZM33.3539 2.72043C17.9492 4.3861 5.62345 16.4015 3.44478 31.6775C4.97217 23.5096 9.5955 16.3814 16.0935 11.4794C20.7802 6.92788 26.7377 3.79077 33.3539 2.72043ZM65.6582 18.2783C61.19 12.3249 54.7353 7.88316 47.2567 5.88815C59.1232 9.38204 68.2401 19.2272 70.5802 31.4347C69.8603 26.6509 68.1472 22.1923 65.6582 18.2783ZM59.5138 62.2527C60.7741 61.1708 61.9532 60.0002 63.033 58.7504C63.7096 57.9344 64.3493 57.0847 64.9446 56.2044C63.3803 58.4295 61.5563 60.4604 59.5138 62.2527ZM70.9528 37.0313C70.6298 19.4647 56.0822 5.23899 38.0153 4.73866C26.2353 5.04477 15.9204 11.0572 9.94278 20.0115C7.33661 24.9019 5.84722 30.5322 5.84722 36.5225C5.84722 55.0348 20.0476 70.1145 37.6796 70.5167C55.9397 70.1715 70.6858 55.3452 70.9528 37.0313ZM62.9032 54.165C63.4362 54.165 63.8711 54.5968 63.8711 55.1288C63.8711 55.6608 63.4362 56.0925 62.9032 56.0925C62.3754 56.0925 61.9405 55.6608 61.9405 55.1288C61.9405 54.5968 62.3754 54.165 62.9032 54.165ZM49.5219 9.42849C49.7013 9.42849 49.8502 9.56149 49.8502 9.72721C49.8502 9.89293 49.7013 10.027 49.5219 10.027C49.3414 10.027 49.1926 9.89293 49.1926 9.72721C49.1926 9.56149 49.3414 9.42849 49.5219 9.42849ZM61.8846 56.9148C62.0651 56.9148 62.2139 57.0488 62.2139 57.2146C62.2139 57.3792 62.0651 57.5143 61.8846 57.5143C61.7051 57.5143 61.5563 57.3792 61.5563 57.2146C61.5563 57.0488 61.7051 56.9148 61.8846 56.9148ZM15.6839 16.7382C15.8644 16.7382 16.0133 16.8733 16.0133 17.038C16.0133 17.2037 15.8644 17.3378 15.6839 17.3378C15.5045 17.3378 15.3557 17.2037 15.3557 17.038C15.3557 16.8733 15.5045 16.7382 15.6839 16.7382ZM8.6835 26.33C9.21656 26.33 9.65145 26.7618 9.65145 27.2948C9.65145 27.8258 9.21656 28.2575 8.6835 28.2575C8.15572 28.2575 7.72084 27.8258 7.72084 27.2948C7.72084 26.7618 8.15572 26.33 8.6835 26.33ZM68.4944 28.8929C68.8364 28.8929 69.1151 29.1558 69.1151 29.4809C69.1151 29.806 68.8364 30.0699 68.4944 30.0699C68.1535 30.0699 67.8801 29.806 67.8801 29.4809C67.8801 29.1558 68.1535 28.8929 68.4944 28.8929ZM67.7186 26.7438C68.0543 26.7438 68.3329 27.0088 68.3329 27.3328C68.3329 27.6579 68.0543 27.9218 67.7186 27.9218C67.3777 27.9218 67.0979 27.6579 67.0979 27.3328C67.0979 27.0088 67.3777 26.7438 67.7186 26.7438ZM13.6984 55.7505C14.0394 55.7505 14.3191 56.0144 14.3191 56.3395C14.3191 56.6646 14.0394 56.9285 13.6984 56.9285C13.3564 56.9285 13.0841 56.6646 13.0841 56.3395C13.0841 56.0144 13.3564 55.7505 13.6984 55.7505ZM12.227 53.9286C12.569 53.9286 12.8413 54.1925 12.8413 54.5165C12.8413 54.8417 12.569 55.1055 12.227 55.1055C11.8861 55.1055 11.6127 54.8417 11.6127 54.5165C11.6127 54.1925 11.8861 53.9286 12.227 53.9286ZM7.19411 39.0263C7.53506 39.0263 7.81478 39.2902 7.81478 39.6142C7.81478 39.9404 7.53506 40.2043 7.19411 40.2043C6.85211 40.2043 6.57978 39.9404 6.57978 39.6142C6.57978 39.2902 6.85211 39.0263 7.19411 39.0263ZM9.73272 29.0777C9.91217 29.0777 10.061 29.2117 10.061 29.3774C10.061 29.5421 9.91217 29.6762 9.73272 29.6762C9.55222 29.6762 9.40339 29.5421 9.40339 29.3774C9.40339 29.2117 9.55222 29.0777 9.73272 29.0777ZM48.9139 7.76388C49.2548 7.76388 49.5282 8.02777 49.5282 8.35288C49.5282 8.67799 49.2548 8.94082 48.9139 8.94082C48.5719 8.94082 48.2932 8.67799 48.2932 8.35288C48.2932 8.02777 48.5719 7.76388 48.9139 7.76388ZM64.7398 52.512C65.0808 52.512 65.3542 52.7759 65.3542 53.1C65.3542 53.4251 65.0808 53.69 64.7398 53.69C64.3989 53.69 64.1255 53.4251 64.1255 53.1C64.1255 52.7759 64.3989 52.512 64.7398 52.512ZM36.7243 5.90504C36.9038 5.90504 37.0526 6.0391 37.0526 6.20377C37.0526 6.36949 36.9038 6.50354 36.7243 6.50354C36.5438 6.50354 36.395 6.36949 36.395 6.20377C36.395 6.0391 36.5438 5.90504 36.7243 5.90504ZM28.4572 65.774C28.9903 65.774 29.4252 66.2058 29.4252 66.7378C29.4252 67.2687 28.9903 67.7004 28.4572 67.7004C27.9231 67.7004 27.4946 67.2687 27.4946 66.7378C27.4946 66.2058 27.9231 65.774 28.4572 65.774ZM14.2695 17.266C14.6041 17.266 14.8838 17.5299 14.8838 17.855C14.8838 18.1801 14.6041 18.444 14.2695 18.444C13.9275 18.444 13.6488 18.1801 13.6488 17.855C13.6488 17.5299 13.9275 17.266 14.2695 17.266ZM8.26128 29.4587C8.60222 29.4587 8.88195 29.7226 8.88195 30.0477C8.88195 30.3728 8.60222 30.6367 8.26128 30.6367C7.92034 30.6367 7.64695 30.3728 7.64695 30.0477C7.64695 29.7226 7.92034 29.4587 8.26128 29.4587ZM69.5996 37.1991C69.7791 37.1991 69.9279 37.3332 69.9279 37.4989C69.9279 37.6646 69.7791 37.7976 69.5996 37.7976C69.4191 37.7976 69.2703 37.6646 69.2703 37.4989C69.2703 37.3332 69.4191 37.1991 69.5996 37.1991ZM14.7223 15.5539C15.0633 15.5539 15.343 15.8178 15.343 16.1429C15.343 16.4669 15.0633 16.7319 14.7223 16.7319C14.3803 16.7319 14.108 16.4669 14.108 16.1429C14.108 15.8178 14.3803 15.5539 14.7223 15.5539ZM30.809 67.37C31.151 67.37 31.4233 67.6339 31.4233 67.9591C31.4233 68.2842 31.151 68.547 30.809 68.547C30.4681 68.547 30.1883 68.2842 30.1883 67.9591C30.1883 67.6339 30.4681 67.37 30.809 67.37ZM50.4339 8.52704C50.6144 8.52704 50.7632 8.6611 50.7632 8.82682C50.7632 8.99254 50.6144 9.1266 50.4339 9.1266C50.2544 9.1266 50.1056 8.99254 50.1056 8.82682C50.1056 8.6611 50.2544 8.52704 50.4339 8.52704ZM29.1275 5.62321C24.3543 6.72838 19.979 8.81099 16.2244 11.6409C14.9577 12.8728 13.785 14.2091 12.7178 15.6352C17.0182 10.8545 22.6907 7.3121 29.1275 5.62321ZM60.7118 12.1845C57.0501 9.31027 52.7677 7.14532 48.0884 5.90716C54.3996 7.75121 59.9487 11.3369 64.1445 16.0912C63.0953 14.702 61.9532 13.3963 60.7118 12.1845ZM61.4254 12.4917C56.7271 7.58232 50.6017 4.16443 43.7617 2.97904C50.3347 4.29849 56.231 7.51371 60.8543 12.0304C61.0475 12.1824 61.2396 12.3355 61.4254 12.4917ZM28.7549 69.7503C31.9828 70.713 35.4081 71.2313 38.9579 71.2313C57.9874 71.2313 73.4418 56.3321 73.4418 37.9792C73.4418 29.0397 69.7727 20.9203 63.8152 14.9427C65.0069 16.4669 66.0677 18.0999 66.9987 19.8247C70.4124 25.0117 72.3926 31.1814 72.3926 37.8008C72.3926 56.1695 57.1303 71.0835 38.3319 71.0835C35.0175 71.0835 31.8086 70.6201 28.7792 69.7556C28.7739 69.7535 28.7612 69.7514 28.7549 69.7503ZM4.05384 45.3934C5.71 52.0223 9.44034 57.87 14.5418 62.2527C9.53323 57.8563 5.82189 52.0202 4.05384 45.3934ZM59.2847 10.8672C53.4749 5.80266 45.9341 2.68454 37.6796 2.52832C29.9772 2.7046 22.9335 5.67915 17.4404 10.5168C22.9831 6.73788 29.7418 4.5191 37.0283 4.5191C37.1645 4.5191 37.2954 4.52015 37.4316 4.52121C37.5244 4.52015 37.6173 4.52015 37.7166 4.52015C37.7915 4.52015 37.8717 4.52015 37.953 4.52121C38.0765 4.52015 38.2011 4.5191 38.3319 4.5191C38.4122 4.5191 38.4924 4.5191 38.5673 4.52015C38.6972 4.51804 38.8281 4.51804 38.9579 4.51804C46.5484 4.51804 53.5678 6.87299 59.2847 10.8672ZM14.9398 12.6574C7.83906 18.5728 3.28328 27.2885 3.10384 37.0313C3.278 48.768 9.39706 59.0734 18.5762 65.051C9.90584 58.9657 4.26389 49.1015 4.26389 37.9792C4.26389 37.8725 4.26389 37.7659 4.26389 37.6593C4.26389 37.6013 4.26389 37.5422 4.26389 37.4841C4.30189 29.92 6.90172 22.9502 11.2527 17.3874C12.3452 15.6974 13.5802 14.1141 14.9398 12.6574Z" fill="#D6A553"/>
</g>
<path d="M42.4738 35.4333H42.8158V35.7162H36.6429V35.4333H37.0102C37.4831 35.4333 37.8937 35.2687 38.2431 34.9393C38.5914 34.6079 38.7846 34.1962 38.8216 33.7064V26.3471H27.8691V33.736C27.8691 36.3759 27.2273 38.1493 25.9438 39.056C25.3579 39.4719 24.6032 39.7833 23.6807 39.9891L23.5371 39.7358C24.3868 39.2819 25.0149 38.5842 25.4202 37.6416C25.8256 36.6979 26.0282 35.3974 26.0282 33.736V17.9407C26.0282 17.4509 25.8477 17.036 25.4878 16.6951C25.1299 16.3552 24.7067 16.1842 24.2169 16.1842H23.8791V15.9013H30.0478V16.1842H29.6804C29.1907 16.1842 28.7706 16.3552 28.4222 16.6951C28.0728 17.036 27.8881 17.4509 27.8691 17.9407V25.4984H38.8216V18.4515C38.8406 16.0343 39.3799 14.3539 40.4387 13.4102C41.0773 12.8444 41.9439 12.4391 43.0396 12.1942L43.1831 12.4475C42.3323 12.9014 41.699 13.6002 41.2831 14.546C40.8693 15.4897 40.6624 16.7912 40.6624 18.4515V33.6515C40.6624 34.1413 40.8366 34.5614 41.186 34.9098C41.5343 35.2592 41.9639 35.4333 42.4738 35.4333Z" fill="#D6A553"/>
<path d="M37.3639 31.8952C38.5904 31.3864 39.7705 31.131 40.9021 31.131C41.8447 31.131 42.8169 31.4804 43.8197 32.1781C44.3654 32.556 44.9776 33.2917 45.6563 34.3863C46.1092 35.141 46.6844 36.509 47.3832 38.4903L50.837 48.2859C51.6308 50.4761 52.4372 52.2168 53.2563 53.5088C54.0775 54.8008 54.828 55.7719 55.5068 56.4221C56.1876 57.0744 56.8959 57.5325 57.6305 57.7943C58.3673 58.0582 58.9753 58.1912 59.4545 58.1912C59.9359 58.1912 60.3665 58.1532 60.7465 58.0772L60.7719 58.3643C59.8652 58.6651 58.9785 58.8161 58.1119 58.8161C57.2442 58.8161 56.3765 58.5934 55.5068 58.149C54.6391 57.7067 53.8284 57.0892 53.0748 56.2954C51.4503 54.654 50.0728 52.1555 48.9412 48.7968L47.8392 45.5668H40.083L38.1281 50.6081C38.0352 50.834 37.9888 51.0599 37.9888 51.2879C37.9888 51.5138 38.0869 51.7544 38.2843 52.0099C38.4807 52.2632 38.7878 52.3899 39.2048 52.3899H39.4285V52.6728H33.7412V52.3899H33.9945C34.4474 52.3899 34.8907 52.2537 35.3245 51.9803C35.7605 51.708 36.1194 51.2963 36.4012 50.7474L43.4228 33.9345C42.4031 32.4821 41.1385 31.7559 39.627 31.7559C38.9483 31.7559 38.222 31.8973 37.4483 32.1781L37.3639 31.8952ZM40.3912 44.7181H47.5563L45.3185 38.123C44.8847 36.8595 44.4878 35.8683 44.1279 35.1505L40.3912 44.7181Z" fill="#D6A553"/>
<mask id="mask1_213_1548" style="mask-type:luminance" maskUnits="userSpaceOnUse" x="41" y="25" width="14" height="22">
<path d="M41.1416 25.839H54.9229V46.3083H41.1416V25.839Z" fill="white"/>
</mask>
<g mask="url(#mask1_213_1548)">
<path d="M53.0391 38.0402C52.9166 38.1985 52.8047 38.3663 52.658 38.5067C52.6285 38.5373 52.6 38.5701 52.5736 38.6038C52.5102 38.6809 52.4511 38.7632 52.372 38.8276C52.3456 38.8519 52.3224 38.8783 52.3012 38.9078C52.1925 39.0429 52.0711 39.1643 51.9381 39.2741C51.8664 39.3343 51.7967 39.3966 51.726 39.4567C51.5835 39.5781 51.4209 39.671 51.2689 39.7787C51.1517 39.861 51.0325 39.9412 50.9142 40.0225C50.8836 40.0415 50.8551 40.0626 50.8287 40.0879C50.7126 40.2051 50.5796 40.3033 50.4551 40.412C50.3685 40.4869 50.2883 40.5693 50.2049 40.6484C50.1627 40.6875 50.1184 40.7244 50.0772 40.7635C50.0044 40.8321 49.9241 40.8923 49.8534 40.9651C49.789 41.0316 49.713 41.0876 49.6412 41.1477C49.5315 41.2406 49.4196 41.3293 49.3182 41.4327C49.2824 41.4676 49.2444 41.5003 49.2053 41.5309C48.933 41.7568 48.687 42.0059 48.4896 42.3014C48.4506 42.3616 48.4052 42.4176 48.3598 42.4735C48.2289 42.6382 48.1329 42.8218 48.0716 43.0234C48.0569 43.072 48.0389 43.1184 48.0231 43.1659C47.9988 43.2419 47.9819 43.319 47.9745 43.3971C47.9587 43.5544 47.9386 43.7106 47.9186 43.8679C47.8943 44.0526 47.8574 44.2363 47.8088 44.4157C47.7919 44.478 47.7782 44.5413 47.7687 44.6057C47.7507 44.7271 47.7244 44.8453 47.6885 44.9625C47.603 45.2517 47.5164 45.5409 47.4246 45.8281C47.3866 45.9368 47.3444 46.0423 47.2958 46.1468C47.2768 46.1859 47.2536 46.2218 47.2251 46.2545C47.2092 46.2693 47.1913 46.2809 47.1712 46.2872C47.1406 46.302 47.0931 46.2767 47.0847 46.245C47.072 46.2028 47.0731 46.1606 47.091 46.1183C47.2082 45.8703 47.2779 45.6074 47.3549 45.3457C47.413 45.1462 47.4774 44.9477 47.5249 44.7451C47.5607 44.592 47.6051 44.4389 47.6262 44.2817C47.6346 44.2257 47.6515 44.1698 47.6621 44.1138C47.68 44.022 47.698 43.9302 47.7127 43.8383C47.7434 43.6473 47.7697 43.4552 47.8014 43.2641C47.8436 43.0087 47.8996 42.7564 47.9302 42.4999C47.9629 42.2297 48.022 41.9626 48.0305 41.6882C48.0315 41.6248 48.0463 41.5604 48.0569 41.4971C48.0759 41.3757 48.097 41.2554 48.0875 41.1329C48.0875 41.1108 48.0896 41.0897 48.0927 41.0686C48.117 40.7962 48.1244 40.5239 48.1149 40.2516C48.1128 40.2368 48.1128 40.222 48.1149 40.2083C48.1381 40.0795 48.1234 39.9507 48.117 39.8219C48.1033 39.5697 48.0695 39.3227 47.9977 39.0799C47.946 38.9078 47.9027 38.7337 47.8679 38.5574C47.8457 38.4371 47.813 38.3199 47.7687 38.2059C47.6927 38.0043 47.6167 37.8027 47.5175 37.6106C47.4193 37.4184 47.3032 37.2379 47.166 37.0701C47.0615 36.9434 46.9612 36.8115 46.863 36.6796C46.7564 36.5349 46.6392 36.3998 46.5126 36.2721C46.3996 36.1623 46.2951 36.0452 46.197 35.9227C46.0429 35.7243 45.874 35.5385 45.7167 35.3432C45.6987 35.3211 45.6808 35.2978 45.6639 35.2746C45.5457 35.1036 45.4243 34.9347 45.3092 34.7606C45.2491 34.6708 45.1963 34.5769 45.153 34.4787C45.114 34.3869 45.0633 34.2993 45.0147 34.2106C44.9271 34.0459 44.8427 33.8802 44.7836 33.7018C44.7435 33.5857 44.6949 33.4738 44.6379 33.3662C44.5915 33.2691 44.5492 33.1698 44.5144 33.0674C44.4289 32.831 44.3476 32.5935 44.2664 32.356C44.2495 32.3085 44.2379 32.2589 44.2262 32.2103C44.183 32.0288 44.1281 31.8504 44.0964 31.6657C44.0774 31.5601 44.0521 31.4556 44.0225 31.3522C43.9951 31.2477 43.9729 31.1421 43.9571 31.0355C43.9275 30.8592 43.8906 30.684 43.8515 30.5088C43.7977 30.2702 43.7597 30.0285 43.7175 29.7889C43.6763 29.5556 43.6404 29.3213 43.6014 29.0869C43.5971 29.0437 43.5876 29.0014 43.575 28.9603C43.5433 28.8716 43.5296 28.7798 43.5169 28.6869C43.5148 28.6732 43.5127 28.6584 43.5095 28.6447C43.4546 28.4367 43.4061 28.2267 43.3607 28.0166C43.3427 27.9385 43.2995 27.8709 43.2572 27.8044C43.2097 27.7327 43.1654 27.6588 43.12 27.5859C43.0672 27.5015 43.0007 27.4255 42.9364 27.3474C42.872 27.2703 42.8055 27.1954 42.7221 27.1373C42.6862 27.1131 42.6535 27.0856 42.6229 27.0539C42.5036 26.9273 42.3653 26.8259 42.208 26.7521C42.188 26.7426 42.17 26.7309 42.1531 26.7183C42.0085 26.6106 41.8512 26.523 41.6908 26.4428C41.6338 26.4132 41.58 26.3784 41.5187 26.3552C41.4364 26.3235 41.3667 26.2739 41.3119 26.2053C41.258 26.1388 41.1905 26.0828 41.1609 25.9973C41.1419 25.9435 41.1725 25.8738 41.2285 25.8591C41.2422 25.8559 41.2559 25.8527 41.2707 25.8496C41.2918 25.8464 41.3129 25.8453 41.3351 25.8453C41.371 25.8453 41.4069 25.8485 41.4417 25.8538C41.6612 25.8907 41.8808 25.9277 42.0993 25.972C42.1911 25.9899 42.2819 26.0132 42.3748 26.0142C42.4804 26.0153 42.5659 26.0681 42.6577 26.1092C42.664 26.1124 42.6704 26.1156 42.6756 26.1208C42.7569 26.2116 42.8614 26.2792 42.9269 26.3847C42.9575 26.4343 42.9934 26.4797 43.0208 26.5293C43.1422 26.7499 43.2794 26.9611 43.3871 27.188C43.4198 27.2524 43.4472 27.3178 43.4715 27.3854C43.4947 27.454 43.5296 27.5163 43.575 27.5733C43.6689 27.6999 43.7713 27.8203 43.8821 27.9322C44.0468 28.0937 44.2062 28.2583 44.3867 28.4019C44.4764 28.5053 44.582 28.5908 44.6812 28.6848C44.8121 28.8072 44.9366 28.9349 45.0707 29.0542C45.2269 29.1936 45.3652 29.3477 45.4876 29.5166C45.5562 29.6084 45.6249 29.7002 45.6945 29.7921C45.8444 29.9937 45.9795 30.2058 46.0988 30.4264C46.179 30.5711 46.2624 30.7125 46.3458 30.855C46.3542 30.8729 46.3669 30.8761 46.3838 30.8645C46.3954 30.8571 46.4039 30.8466 46.407 30.8328C46.4102 30.7463 46.4134 30.6608 46.4102 30.5742C46.4049 30.3948 46.4144 30.2153 46.4239 30.0359C46.4292 29.943 46.4366 29.8501 46.4292 29.7562C46.4271 29.6992 46.4292 29.6422 46.4345 29.5841C46.4419 29.4268 46.4376 29.2685 46.4229 29.1112C46.4123 28.9898 46.4039 28.8674 46.3996 28.746C46.3933 28.5444 46.3637 28.3459 46.3279 28.1475C46.2972 27.9776 46.2687 27.8076 46.2402 27.6377C46.217 27.4888 46.179 27.3432 46.1273 27.2007C46.0714 27.0529 46.0291 26.9009 45.9837 26.7489C45.9626 26.6761 45.9721 26.6064 46.0101 26.5409C46.0344 26.4966 46.0935 26.4723 46.1389 26.4913C46.1653 26.5019 46.1906 26.5135 46.2149 26.5283C46.3416 26.6106 46.4619 26.7003 46.5643 26.8133C46.6308 26.8872 46.7047 26.9558 46.7744 27.0276C46.844 27.0993 46.901 27.1827 46.9644 27.2608C47.1924 27.5353 47.3454 27.8498 47.4953 28.1697C47.6114 28.4177 47.699 28.6742 47.775 28.9381C47.8975 29.3667 48.041 29.7868 48.1846 30.209C48.2901 30.5151 48.3809 30.8244 48.4759 31.1326C48.5625 31.4144 48.6469 31.6963 48.7514 31.9718C48.7947 32.0858 48.8264 32.204 48.8633 32.3201C48.9784 32.6748 49.0871 33.0316 49.1947 33.3894C49.2486 33.5678 49.3225 33.7398 49.3879 33.914C49.4491 34.0755 49.5051 34.237 49.5399 34.4069C49.5695 34.5473 49.6138 34.6846 49.6497 34.8239C49.7204 35.0962 49.7531 35.3738 49.7658 35.6546C49.7669 35.6683 49.7658 35.6831 49.7647 35.6979C49.7373 35.9037 49.712 36.1106 49.6803 36.3164C49.6655 36.4157 49.6412 36.5138 49.6191 36.612C49.6032 36.6817 49.5864 36.7513 49.5684 36.8199C49.5283 36.9656 49.4871 37.1113 49.446 37.2559C49.4006 37.4216 49.3404 37.5831 49.2665 37.7393C49.1916 37.8945 49.1261 38.0539 49.0544 38.2101C48.934 38.4698 48.8095 38.7284 48.6902 38.9902C48.591 39.2129 48.5086 39.4419 48.4274 39.6721C48.3967 39.7607 48.3524 39.8452 48.3355 39.9359C48.3186 40.0267 48.3324 40.1217 48.3271 40.2146C48.3165 40.4152 48.3134 40.6168 48.3165 40.8173C48.3229 41.1562 48.2849 41.4918 48.2352 41.8254C48.2247 41.8972 48.2099 41.9668 48.2015 42.0386C48.193 42.1167 48.1877 42.1959 48.1835 42.2751C48.1835 42.2846 48.1962 42.2962 48.2046 42.3057C48.2067 42.3067 48.2194 42.3025 48.2236 42.2972C48.3461 42.1632 48.4369 42.0091 48.5213 41.8507C48.5762 41.7494 48.6205 41.6438 48.6733 41.5414C48.8116 41.2807 48.9034 40.9999 49.0164 40.7287C49.0712 40.5967 49.1114 40.4584 49.1589 40.3233C49.2507 40.0658 49.3499 39.8114 49.4555 39.5602C49.5135 39.4219 49.5684 39.2815 49.6149 39.1379C49.6803 38.9321 49.75 38.7284 49.8207 38.5247C49.8492 38.4444 49.884 38.3653 49.921 38.2872C49.9896 38.1373 50.0666 37.9906 50.15 37.8491C50.1627 37.8312 50.1743 37.8132 50.1838 37.7942C50.2429 37.6454 50.339 37.5187 50.4276 37.3889C50.5121 37.2633 50.5701 37.1239 50.6377 36.9888C50.6577 36.9434 50.682 36.8991 50.7095 36.8569C50.8689 36.6352 51.0251 36.4114 51.195 36.1972C51.2964 36.0694 51.4009 35.9396 51.5254 35.8298C51.537 35.8214 51.5465 35.8108 51.556 35.8003C51.6584 35.6599 51.7967 35.5533 51.9096 35.4234C51.9709 35.3538 52.0426 35.2936 52.1112 35.2303C52.2231 35.1289 52.3382 35.0318 52.4459 34.9273C52.5387 34.8376 52.6264 34.7416 52.7076 34.6413C52.8164 34.5062 52.9441 34.3911 53.0644 34.2687C53.1805 34.1515 53.3114 34.0491 53.4117 33.9161C53.5352 33.8169 53.6228 33.6828 53.7431 33.5794C53.8139 33.5182 53.8867 33.4601 53.9637 33.4073C54.064 33.3387 54.1717 33.2796 54.272 33.2099C54.3332 33.1667 54.3997 33.1445 54.4683 33.1244C54.5401 33.1033 54.6097 33.1076 54.6794 33.1371C54.7406 33.1572 54.7755 33.1994 54.7829 33.2638C54.7913 33.3208 54.7892 33.3778 54.7776 33.4348C54.7354 33.6459 54.6805 33.8538 54.615 34.0586C54.5644 34.2085 54.5179 34.3594 54.482 34.5136C54.4451 34.674 54.3955 34.8323 54.3501 34.9907C54.3374 35.0318 54.3174 35.0709 54.3026 35.111C54.2076 35.3738 54.1094 35.6367 54.0176 35.9006C53.9637 36.0568 53.912 36.2141 53.8709 36.3734C53.8149 36.5898 53.7368 36.7978 53.6513 37.0026C53.6154 37.0965 53.57 37.1862 53.5183 37.2728C53.3557 37.5272 53.2301 37.8037 53.0391 38.0402ZM47.4066 37.1514C47.4077 37.1387 47.4066 37.125 47.4024 37.1123C47.3961 37.0954 47.3824 37.0944 47.3729 37.1081C47.3718 37.1102 47.3781 37.1197 47.3834 37.1239C47.3929 37.1334 47.4035 37.1419 47.414 37.1503C47.4066 37.1799 47.4151 37.2042 47.4394 37.2232C47.4552 37.2358 47.4721 37.2485 47.49 37.2591C47.489 37.2717 47.489 37.2844 47.49 37.2981C47.4911 37.3044 47.4953 37.3087 47.5016 37.3118C47.5069 37.315 47.5122 37.3161 47.5185 37.3139C47.528 37.3087 47.527 37.2971 47.5143 37.2854C47.5048 37.2759 47.4942 37.2696 47.4837 37.2612C47.4921 37.2306 47.4784 37.2073 47.4562 37.1894C47.4415 37.1767 47.4235 37.1641 47.4066 37.1514ZM47.3781 36.6004C47.4077 36.6215 47.4309 36.6489 47.4467 36.6817C47.4784 36.7461 47.5132 36.8083 47.5481 36.8706C47.5502 36.8748 47.5597 36.878 47.566 36.8791C47.5829 36.8833 47.5945 36.8748 47.5924 36.8558C47.5755 36.6975 47.5375 36.5455 47.4784 36.3977C47.4478 36.3259 47.4161 36.2521 47.4003 36.175C47.3792 36.0768 47.3528 35.9808 47.319 35.8858C47.2779 35.7633 47.2462 35.6377 47.1924 35.5195C47.1459 35.3147 47.0509 35.1279 46.9644 34.9389C46.8208 34.6265 46.672 34.3162 46.5274 34.0037C46.5073 33.9573 46.4894 33.9108 46.4756 33.8623C46.4714 33.8486 46.4704 33.8348 46.4746 33.8201C46.4788 33.8074 46.4862 33.7958 46.4978 33.7873C46.5115 33.7757 46.5263 33.781 46.5337 33.7979C46.5485 33.8296 46.5643 33.8623 46.578 33.895C46.6466 34.0692 46.7237 34.2391 46.8102 34.4048C46.8219 34.4228 46.8345 34.4397 46.8493 34.4544C46.8525 34.4587 46.863 34.4576 46.8694 34.4555C46.8757 34.4534 46.8789 34.4492 46.881 34.4428C46.8894 34.4059 46.8789 34.3711 46.8651 34.3383C46.8155 34.2106 46.7638 34.085 46.7121 33.9583C46.6857 33.8929 46.653 33.8274 46.6308 33.7599C46.5801 33.6026 46.5157 33.4506 46.4387 33.3039C46.3933 33.2142 46.3511 33.1234 46.3078 33.0326C46.1875 32.7719 46.065 32.5112 45.9605 32.2441C45.8951 32.0773 45.8159 31.9158 45.7515 31.748C45.6787 31.5612 45.6154 31.3701 45.5478 31.1801C45.4781 30.9848 45.4116 30.7874 45.3377 30.5932C45.2966 30.4856 45.2554 30.3789 45.2206 30.2692C45.1562 30.0707 45.0749 29.8797 44.9757 29.696C44.8427 29.4427 44.7044 29.1904 44.5471 28.9508C44.544 28.9434 44.5429 28.9371 44.5419 28.9297C44.5366 28.9128 44.5419 28.8991 44.5577 28.8948C44.5704 28.8927 44.5894 28.8906 44.5967 28.8969C44.6611 28.955 44.7245 29.012 44.7656 29.0901C44.829 29.2115 44.905 29.3244 44.9799 29.4384C45.0147 29.4933 45.0454 29.5503 45.0707 29.6094C45.1129 29.7013 45.1456 29.7963 45.19 29.886C45.2966 30.1066 45.3662 30.3409 45.4475 30.57C45.552 30.8687 45.646 31.1706 45.7621 31.4641C45.8803 31.7649 45.9827 32.071 46.122 32.3634C46.2139 32.5576 46.2899 32.7603 46.3933 32.9492C46.4102 32.9809 46.4239 33.0147 46.4387 33.0474C46.483 33.1456 46.5252 33.2437 46.5706 33.3419C46.5822 33.3598 46.597 33.3746 46.6139 33.3873C46.6181 33.3915 46.6297 33.3894 46.635 33.3873C46.6414 33.3852 46.6445 33.3799 46.6456 33.3736C46.6498 33.2859 46.6192 33.2047 46.5917 33.1234C46.559 33.0284 46.5168 32.9366 46.5031 32.8363C46.4967 32.8078 46.4883 32.7803 46.4756 32.7539C46.4165 32.5998 46.3521 32.4478 46.2782 32.3001C46.2329 32.2103 46.1896 32.1206 46.1474 32.0298C46.1431 32.0193 46.1505 32.0024 46.1569 31.9908C46.1664 31.9749 46.2001 31.9749 46.2139 31.9887C46.235 32.0087 46.2519 32.0309 46.2666 32.0552C46.3321 32.1903 46.3933 32.3286 46.4577 32.4647C46.4651 32.4774 46.4735 32.4879 46.4851 32.4964C46.4904 32.5006 46.4967 32.5027 46.5041 32.5027C46.5189 32.5027 46.5295 32.4932 46.5252 32.4753C46.4946 32.3201 46.4714 32.1628 46.4134 32.0151C46.3606 31.8821 46.3036 31.7501 46.2455 31.6192C46.1759 31.4619 46.102 31.3057 46.0312 31.1484C46.027 31.1421 46.026 31.1347 46.0281 31.1284C46.0344 31.1168 46.0418 31.1062 46.0513 31.0978C46.0587 31.0936 46.065 31.0936 46.0714 31.0978C46.1199 31.1231 46.1357 31.1738 46.1569 31.2181C46.2265 31.368 46.292 31.52 46.3606 31.6699C46.3806 31.7163 46.4081 31.7575 46.4334 31.8018C46.4345 31.8039 46.4461 31.8039 46.4514 31.8018C46.4577 31.7987 46.464 31.7923 46.4651 31.7871C46.4682 31.6646 46.4535 31.5443 46.4207 31.4271C46.4186 31.4197 46.4165 31.4134 46.4134 31.406C46.3363 31.2434 46.2846 31.0714 46.2128 30.9067C46.1442 30.7494 46.0576 30.6006 45.9732 30.4507C45.9004 30.3198 45.8064 30.1995 45.7346 30.0665C45.7093 30.0232 45.6808 29.9821 45.6481 29.943C45.6101 29.8913 45.5679 29.8417 45.533 29.7878C45.4032 29.5873 45.2343 29.4216 45.0728 29.2474C45.0295 29.1999 44.9841 29.1534 44.9377 29.1091C44.8279 29.0057 44.715 28.9064 44.6073 28.8009C44.4437 28.6404 44.2885 28.4705 44.1038 28.3333C44.0911 28.3248 44.0806 28.3153 44.0711 28.3048C43.936 28.1559 43.7808 28.0272 43.6552 27.8699C43.6499 27.8646 43.6446 27.8604 43.6372 27.8572C43.6309 27.8551 43.6225 27.8509 43.6172 27.8541C43.6077 27.8604 43.5919 27.8709 43.5929 27.8794C43.6066 28.0293 43.6193 28.1792 43.6383 28.3291C43.6541 28.4568 43.6784 28.5845 43.6742 28.7143C43.6742 28.7428 43.6774 28.7713 43.6816 28.7998C43.7185 29.0637 43.7428 29.3287 43.7945 29.5894C43.8769 29.9979 43.9201 30.4127 44.031 30.8159C44.0785 31.0988 44.1386 31.3796 44.2009 31.6604C44.2421 31.8504 44.2843 32.0393 44.3413 32.2251C44.4057 32.4373 44.4817 32.6473 44.5556 32.8574C44.5957 32.9724 44.6379 33.0864 44.6854 33.1994C44.7604 33.3778 44.8448 33.5519 44.9092 33.7346C44.9556 33.8644 45.0295 33.9794 45.0886 34.1029C45.2016 34.3352 45.3198 34.5653 45.4686 34.7774C45.6048 34.9717 45.7251 35.1754 45.8824 35.3548C46.0608 35.5607 46.236 35.7697 46.407 35.9818C46.4355 36.0146 46.4651 36.0452 46.4967 36.0737C46.6498 36.2246 46.7923 36.3861 46.9221 36.5582C47.0245 36.6964 47.1322 36.8316 47.2388 36.9667C47.2567 36.992 47.281 37.0047 47.3127 37.0057C47.3222 36.9751 47.3053 36.9498 47.2916 36.9276C47.2293 36.8231 47.1712 36.7144 47.0974 36.6173C46.9897 36.4737 46.8915 36.3238 46.786 36.1782C46.6477 35.985 46.5379 35.776 46.4165 35.5733C46.3912 35.529 46.369 35.4847 46.35 35.4372C46.3426 35.4171 46.3374 35.3971 46.3352 35.3759C46.3352 35.3686 46.3374 35.3622 46.3416 35.3559C46.3542 35.3569 46.3732 35.3569 46.3785 35.3654C46.4176 35.4329 46.4545 35.5026 46.4925 35.5723C46.5432 35.6662 46.5939 35.7612 46.6593 35.8478C46.7934 36.0251 46.9274 36.2024 47.0583 36.3819C47.1427 36.498 47.2325 36.6109 47.2979 36.7397C47.3306 36.8041 47.3665 36.8664 47.4066 36.9266C47.4214 36.9487 47.4489 36.9624 47.4721 36.9793C47.4784 36.9825 47.4858 36.9825 47.4921 36.9793C47.4974 36.9741 47.4995 36.9677 47.4985 36.9603C47.4837 36.8664 47.4351 36.7862 47.3961 36.7017C47.3813 36.669 47.3686 36.6352 47.3845 36.5983L47.3781 36.6004ZM49.3636 40.1988C49.3489 40.222 49.333 40.2442 49.3193 40.2674C49.3151 40.2727 49.3172 40.2811 49.3161 40.2874C49.3277 40.2832 49.3415 40.2811 49.3489 40.2727C49.3679 40.2516 49.3763 40.2262 49.3573 40.1998C49.3879 40.1513 49.428 40.108 49.4491 40.0542C49.485 39.9666 49.5389 39.8916 49.5864 39.8114C49.637 39.7238 49.6792 39.633 49.7341 39.5486C49.8355 39.3913 49.9421 39.2382 50.0487 39.0852C50.0709 39.0567 50.0941 39.0303 50.1194 39.006C50.1236 39.0018 50.1331 39.0028 50.1405 39.0007C50.1416 39.0081 50.1469 39.0166 50.1447 39.0218C50.0972 39.1179 50.0455 39.2118 49.9875 39.3016C49.8682 39.4884 49.7341 39.6668 49.6391 39.8694C49.5209 40.0436 49.4491 40.2389 49.3763 40.4342C49.3531 40.4954 49.3383 40.5577 49.3098 40.6157C49.2243 40.7909 49.1673 40.9757 49.1029 41.1583C49.0955 41.1773 49.1029 41.1857 49.1261 41.1815C49.2243 41.0696 49.3394 40.9619 49.4344 40.8353C49.5114 40.7318 49.5895 40.6284 49.6676 40.526C49.7025 40.4796 49.7341 40.4299 49.7753 40.3909C49.8608 40.3128 49.9252 40.2178 49.9959 40.127C50.0614 40.0415 50.1215 39.9497 50.1975 39.8747C50.2851 39.7892 50.3601 39.6942 50.4392 39.6003C50.4709 39.5623 50.5079 39.5274 50.5416 39.4905C50.5722 39.4599 50.6007 39.4282 50.6282 39.3944C50.7475 39.2329 50.8752 39.0778 51.0124 38.93C51.1349 38.7991 51.2277 38.6439 51.3565 38.5173C51.6362 38.1436 51.9149 37.7689 52.1756 37.3815C52.1936 37.3593 52.2094 37.3351 52.221 37.3087C52.2569 37.2126 52.3192 37.1334 52.3741 37.0501C52.4511 36.9361 52.5303 36.8263 52.5831 36.6986C52.5862 36.6922 52.5905 36.6869 52.5968 36.6838C52.6105 36.6732 52.6253 36.6722 52.6348 36.6848C52.6517 36.7081 52.6496 36.6722 52.6464 36.7007C52.6369 36.7809 52.6021 36.8506 52.5609 36.9192C52.5282 36.9741 52.487 37.0258 52.4627 37.0849C52.43 37.1567 52.3899 37.2253 52.3435 37.2886C52.2295 37.4554 52.1144 37.6201 52.0015 37.7868C51.9656 37.8396 51.9381 37.8998 51.9001 37.9515C51.8632 38.0032 51.8167 38.0486 51.7756 38.0982C51.7608 38.1141 51.7502 38.1331 51.7376 38.1499C51.5919 38.3463 51.4462 38.5426 51.3006 38.7379C51.2615 38.7896 51.2246 38.8445 51.1781 38.8888C51.0947 38.968 51.0272 39.0619 50.9533 39.1485C50.9153 39.1918 50.8826 39.2403 50.8414 39.2794C50.7855 39.3353 50.7348 39.3955 50.6884 39.4599C50.6314 39.5338 50.5754 39.6098 50.5079 39.6742C50.4403 39.7386 50.3791 39.8082 50.3231 39.8832C50.2936 39.9243 50.2619 39.9634 50.2281 40.0003C50.093 40.1312 49.9885 40.2864 49.8745 40.4331C49.8133 40.5133 49.7584 40.5978 49.7025 40.6812C49.6972 40.6907 49.7014 40.7054 49.7014 40.7181C49.7088 40.716 49.7183 40.7171 49.7225 40.7128C49.7426 40.6928 49.7605 40.6706 49.7806 40.6495C49.8481 40.5756 49.9231 40.5102 50.0065 40.4532C50.0286 40.4405 50.0476 40.4447 50.0635 40.4658C50.0698 40.4764 50.0772 40.4964 50.073 40.5038C50.0571 40.5366 50.036 40.5651 50.0117 40.5904C49.9685 40.6284 49.9178 40.6569 49.8756 40.6949C49.7742 40.7857 49.6645 40.868 49.5927 40.9883C49.5895 40.9936 49.5906 41.0021 49.5885 41.0084C49.5853 41.0211 49.5895 41.0232 49.6011 41.0158C49.6581 40.9852 49.7099 40.9493 49.7574 40.906C49.8418 40.8279 49.9284 40.7529 50.0139 40.6759C50.2281 40.4848 50.4424 40.2948 50.6567 40.1038C50.7422 40.0278 50.8277 39.9507 50.9195 39.8821C51.0335 39.7945 51.1528 39.7143 51.2752 39.6404C51.4431 39.5422 51.6004 39.4303 51.746 39.3026C51.8917 39.1759 52.049 39.0598 52.1651 38.9026C52.1799 38.8867 52.1957 38.8719 52.2126 38.8582C52.3065 38.7601 52.4036 38.664 52.4934 38.5616C52.5599 38.4867 52.6158 38.4022 52.6802 38.3252C52.7488 38.2428 52.8248 38.1668 52.8924 38.0834C52.9884 37.9663 53.0739 37.8428 53.1499 37.7119C53.2375 37.5557 53.323 37.3973 53.4096 37.2411C53.5225 37.0395 53.6144 36.8294 53.684 36.6099C53.7189 36.5001 53.7474 36.3882 53.7896 36.2816C53.8212 36.2014 53.8445 36.1191 53.8677 36.0367C53.9057 35.9058 53.9447 35.7771 53.9954 35.6483C54.0841 35.4224 54.177 35.1954 54.234 34.9579C54.2424 34.9231 54.2582 34.8904 54.2688 34.8566C54.2899 34.7954 54.3163 34.7352 54.3279 34.6719C54.3786 34.4038 54.4683 34.1452 54.5527 33.8866C54.5992 33.7356 54.633 33.5815 54.6541 33.4242C54.6572 33.3894 54.6562 33.3535 54.652 33.3176C54.6488 33.2817 54.615 33.2543 54.5791 33.249C54.4979 33.2342 54.4219 33.2511 54.3532 33.2965C54.2688 33.3514 54.1875 33.4094 54.1031 33.4643C53.8782 33.61 53.6872 33.7947 53.5099 33.9921C53.4085 34.104 53.3019 34.2117 53.1932 34.313C53.0201 34.4777 52.8575 34.6497 52.6981 34.8239C52.5229 35.0149 52.3424 35.1965 52.1492 35.3696C52.0162 35.4889 51.8906 35.6177 51.7629 35.7422C51.6859 35.8573 51.5824 35.9481 51.4874 36.0441C51.3713 36.1613 51.2657 36.2879 51.1718 36.4241C51.1422 36.4653 51.1106 36.5043 51.081 36.5444C50.9892 36.6732 50.8974 36.8009 50.8055 36.9297C50.7728 36.9772 50.7454 37.0279 50.7221 37.0796C50.6672 37.2052 50.605 37.3266 50.5364 37.4438C50.4382 37.6032 50.3337 37.7583 50.2419 37.9209C50.1279 38.1214 50.0255 38.3252 49.9463 38.5416C49.8809 38.7231 49.8207 38.9078 49.7552 39.0904C49.6803 39.2994 49.6106 39.5116 49.5209 39.7153C49.4586 39.8599 49.4122 40.0109 49.3562 40.1576C49.352 40.1682 49.3605 40.184 49.3636 40.1977V40.1988ZM48.0336 37.6053C48.059 37.6243 48.0685 37.6507 48.0621 37.6813C48.0368 37.847 48.0516 38.0106 48.0811 38.1742C48.1075 38.3157 48.1297 38.4571 48.1561 38.5986C48.1582 38.6091 48.1709 38.6176 48.1793 38.6271C48.1888 38.6176 48.2057 38.6081 48.2057 38.5986C48.2194 38.4191 48.2331 38.2407 48.2405 38.0613C48.2458 37.9251 48.2437 37.7879 48.2416 37.6517C48.2395 37.429 48.2405 37.2063 48.2099 36.9857C48.1983 36.9002 48.1899 36.8147 48.1814 36.7292C48.1624 36.5497 48.1519 36.3713 48.1508 36.1908C48.1487 36.1486 48.1434 36.1053 48.136 36.0631C48.1075 35.8351 48.0653 35.6092 48.0537 35.3791C48.0505 35.3063 48.0379 35.2366 48.0157 35.1669C47.9692 35.0297 47.9492 34.8872 47.927 34.7458C47.8764 34.4196 47.8257 34.0934 47.7465 33.7726C47.7339 33.7229 47.7254 33.6733 47.7159 33.6248C47.6367 33.1931 47.5586 32.7624 47.4763 32.3317C47.3919 31.8947 47.3317 31.4535 47.2937 31.0102C47.2937 30.988 47.2979 30.9679 47.3064 30.9489C47.3116 30.9384 47.3296 30.9331 47.3422 30.9289C47.3454 30.9278 47.3549 30.9363 47.357 30.9416C47.3887 31.0302 47.3971 31.1231 47.4087 31.2149C47.4372 31.4282 47.4584 31.6424 47.5027 31.8536C47.5386 32.0224 47.5639 32.1934 47.5935 32.3623C47.6357 32.6041 47.6758 32.8447 47.7191 33.0843C47.7381 33.1983 47.7602 33.3113 47.7835 33.4232C47.7919 33.4654 47.8088 33.5055 47.8162 33.5477C47.8785 33.9013 47.9386 34.2549 47.9999 34.6096C48.0199 34.7226 48.0305 34.8387 48.0642 34.9474C48.1297 35.1553 48.1519 35.3696 48.174 35.5839C48.1867 35.7053 48.1972 35.8267 48.2162 35.947C48.2321 36.0462 48.2374 36.1465 48.2437 36.2468C48.2574 36.4684 48.2659 36.6912 48.3017 36.9107C48.3218 37.0311 48.3324 37.1524 48.3324 37.2749C48.3292 37.4469 48.3302 37.619 48.3397 37.7911C48.3514 38.0212 48.3334 38.2502 48.3134 38.4793C48.2986 38.6587 48.3017 38.8382 48.3039 39.0176C48.3049 39.0239 48.3081 39.0303 48.3144 39.0345C48.326 39.0303 48.3429 39.0271 48.3482 39.0187C48.3661 38.987 48.3809 38.9553 48.3925 38.9216C48.4305 38.8128 48.4654 38.7031 48.5023 38.5943C48.5361 38.493 48.5751 38.3927 48.6057 38.2882C48.6469 38.151 48.6839 38.0127 48.7187 37.8723C48.7767 37.6359 48.8464 37.4016 48.8549 37.1556C48.8549 37.1408 48.8601 37.1271 48.8612 37.1123C48.8802 36.8917 48.9245 36.6722 48.9097 36.4473C48.9097 36.441 48.9119 36.4336 48.914 36.4273C48.9161 36.4062 48.9266 36.3998 48.9456 36.4083C48.953 36.4104 48.9583 36.4146 48.9625 36.4209C48.9931 36.4885 48.9942 36.5603 48.9889 36.6321C48.9784 36.8031 48.9657 36.9751 48.9477 37.1472C48.914 37.4396 48.8612 37.7288 48.7862 38.0138C48.7419 38.1879 48.6997 38.3632 48.6342 38.531C48.5614 38.7178 48.5076 38.9121 48.4506 39.1042C48.439 39.1443 48.4295 39.1833 48.44 39.2256C48.4464 39.2224 48.4559 39.2203 48.458 39.215C48.5287 39.0662 48.5984 38.9163 48.667 38.7674C48.7514 38.5848 48.8348 38.4033 48.9182 38.2207C49.0111 38.018 49.104 37.8164 49.1947 37.6137C49.2296 37.5346 49.2602 37.4543 49.2866 37.372C49.3362 37.2147 49.3795 37.0553 49.428 36.8981C49.4745 36.7534 49.5104 36.6078 49.5367 36.4589C49.5494 36.3808 49.5621 36.3027 49.5779 36.2257C49.6127 36.0631 49.6244 35.8984 49.6391 35.7348C49.6476 35.6335 49.6434 35.5332 49.6265 35.434C49.6159 35.3633 49.6054 35.2915 49.6001 35.2197C49.5906 35.0899 49.5695 34.9632 49.5346 34.8387C49.4829 34.6518 49.4354 34.4629 49.3847 34.2761C49.352 34.1589 49.313 34.0438 49.2686 33.9298C49.2317 33.8369 49.1979 33.7419 49.1662 33.6459C49.1156 33.4897 49.0639 33.3324 49.0174 33.1741C48.9404 32.9123 48.8517 32.6547 48.7683 32.3951C48.744 32.3201 48.7219 32.2431 48.6955 32.1692C48.5962 31.8926 48.5076 31.6118 48.4221 31.33C48.401 31.2614 48.3746 31.1949 48.3577 31.1252C48.3049 30.9162 48.2469 30.7093 48.1656 30.5098C48.1434 30.4571 48.1265 30.4011 48.1096 30.3473C48.079 30.2512 48.0516 30.1541 48.0189 30.0591C47.9735 29.9229 47.9217 29.7889 47.8774 29.6527C47.8046 29.4268 47.7412 29.1988 47.6705 28.9729C47.5924 28.727 47.5291 28.4758 47.4035 28.2478C47.3971 28.2351 47.3929 28.2203 47.3876 28.2077C47.262 27.9248 47.1016 27.6598 46.9274 27.4054C46.9031 27.3696 46.8757 27.3358 46.8472 27.3041C46.7121 27.1542 46.578 27.0054 46.4408 26.8587C46.3574 26.7668 46.2603 26.6961 46.1474 26.6454C46.1241 26.6359 46.084 26.6644 46.0872 26.6898C46.0893 26.7257 46.0946 26.7616 46.102 26.7964C46.122 26.865 46.1484 26.9326 46.1706 27.0001C46.2202 27.15 46.2698 27.3009 46.3173 27.4508C46.3321 27.492 46.3405 27.5332 46.3437 27.5764C46.3437 27.6493 46.3616 27.7179 46.3743 27.7886C46.4017 27.9448 46.426 28.1 46.4619 28.2541C46.4693 28.2963 46.4746 28.3396 46.4756 28.3829C46.4915 28.5687 46.501 28.7544 46.5221 28.9402C46.5379 29.1049 46.5453 29.2696 46.5432 29.4342C46.5453 29.9229 46.5157 30.4106 46.5252 30.8993C46.5295 31.0851 46.5347 31.2719 46.5516 31.4577C46.5717 31.6583 46.5907 31.8578 46.6234 32.0562C46.6677 32.3254 46.7079 32.5956 46.748 32.8658C46.7638 32.9714 46.7786 33.078 46.7923 33.1857C46.8029 33.2638 46.8029 33.3429 46.8176 33.4211C46.8599 33.6469 46.9074 33.8718 46.9538 34.0966C46.9612 34.1314 46.976 34.1642 46.9855 34.199C47.0509 34.427 47.1195 34.6539 47.1807 34.8819C47.2599 35.1733 47.3254 35.4678 47.4309 35.7507C47.4383 35.7707 47.4425 35.7918 47.4478 35.8129C47.4869 35.9586 47.5196 36.1064 47.565 36.2499C47.6199 36.4209 47.6737 36.5909 47.7127 36.7672C47.7803 37.0606 47.869 37.3488 47.9397 37.6422C47.9418 37.6486 47.945 37.6549 47.9492 37.6612C47.9566 37.676 47.9714 37.6813 47.984 37.6686C48.0051 37.6486 48.022 37.6253 48.04 37.6042L48.0336 37.6053ZM42.0286 26.4744C42.0423 26.4681 42.0539 26.4607 42.0655 26.4512C42.0993 26.4122 42.1405 26.4111 42.1806 26.4364C42.2291 26.466 42.2766 26.4987 42.3231 26.5336C42.4402 26.6264 42.5542 26.7236 42.6651 26.8249C42.7875 26.9378 42.8941 27.0613 42.9997 27.1869C43.0208 27.207 43.0366 27.2302 43.0482 27.2566C43.0789 27.3411 43.1485 27.3959 43.1971 27.4656C43.2024 27.4751 43.2214 27.4751 43.234 27.4793C43.2361 27.4719 43.2382 27.4646 43.2382 27.4572C43.2224 27.3791 43.2002 27.302 43.1475 27.2429C43.0525 27.1352 42.9817 27.0075 42.8699 26.9146C42.8593 26.9051 42.854 26.8924 42.8519 26.8777C42.8519 26.865 42.8551 26.8523 42.8614 26.8407C42.8625 26.8376 42.8751 26.8386 42.8815 26.8407C42.9311 26.8587 42.9649 26.8967 42.9955 26.9357C43.0324 26.9801 43.0672 27.0254 43.1179 27.0539C43.1306 27.0571 43.1422 27.0571 43.1538 27.0529C43.157 27.0466 43.158 27.0402 43.1559 27.0328C43.0968 26.9188 43.0419 26.8006 42.9754 26.6908C42.9142 26.5937 42.8466 26.5008 42.7738 26.4132C42.6566 26.2707 42.5162 26.1683 42.322 26.1525C42.1996 26.143 42.0803 26.1219 41.9621 26.0902C41.8154 26.0501 41.6665 26.0353 41.5187 26.0068C41.4765 25.9994 41.4343 25.9973 41.391 25.9984C41.3805 25.9984 41.3678 26.0121 41.3583 26.0216C41.3551 26.0279 41.3551 26.0343 41.3583 26.0406C41.4164 26.143 41.4924 26.2243 41.6106 26.2591C41.6444 26.2686 41.675 26.2897 41.7077 26.3066C41.7584 26.333 41.809 26.3594 41.8607 26.3847C41.9188 26.4122 41.9674 26.4565 42.0286 26.4744ZM48.3788 39.3966C48.3883 39.3828 48.3862 39.3754 48.3735 39.3797C48.3704 39.3807 48.3693 39.3892 48.3672 39.3934L48.3788 39.3966Z" fill="#D6A553"/>
</g>
<path d="M48.3242 32.9554C48.3379 32.9713 48.3495 32.9882 48.359 33.0072C48.4424 33.2046 48.529 33.4009 48.5933 33.6067C48.5955 33.6131 48.5976 33.6204 48.5997 33.6268C48.625 33.7841 48.6788 33.9318 48.7306 34.0807C48.7369 34.1007 48.7422 34.1218 48.7464 34.1429C48.833 34.6011 48.9132 35.0592 48.9712 35.5215C48.9755 35.5637 48.9776 35.607 48.9786 35.6503C48.9807 35.7432 48.9807 35.8361 48.9976 35.9279C49.0008 35.9564 49.0008 35.9849 48.9966 36.0134C48.9955 36.0377 48.9828 36.0535 48.9596 36.0598C48.9343 36.0651 48.9174 36.0546 48.91 36.0292C48.9037 36.0092 48.8984 35.9891 48.8942 35.968C48.8836 35.8973 48.8762 35.8255 48.8731 35.7537C48.872 35.6461 48.8625 35.5394 48.8446 35.4339C48.8393 35.4128 48.8361 35.3917 48.8361 35.3695C48.8414 35.2249 48.8013 35.0866 48.7886 34.9441C48.7876 34.9293 48.7865 34.9156 48.7833 34.9008C48.7559 34.7678 48.7137 34.638 48.701 34.5018C48.6873 34.3657 48.6451 34.2358 48.6197 34.1028C48.6071 34.0321 48.5796 33.9646 48.5596 33.8959C48.4962 33.6764 48.4392 33.4547 48.3632 33.2383C48.3326 33.1497 48.3031 33.0621 48.2725 32.9744C48.2725 32.9671 48.2756 32.9618 48.282 32.9576C48.2957 32.9565 48.3105 32.9554 48.3242 32.9554Z" fill="#D6A553"/>
<path d="M46.7059 27.6302C46.7122 27.6345 46.7206 27.6376 46.7228 27.6429C46.7323 27.6619 46.7396 27.682 46.746 27.702C46.7988 27.8667 46.8515 28.0303 46.9022 28.1939C46.9191 28.2488 46.9318 28.3047 46.9434 28.3617C46.9645 28.4673 46.9898 28.5707 47.0204 28.6742C47.0616 28.8114 47.0901 28.9507 47.107 29.0932C47.1281 29.2569 47.1513 29.4194 47.165 29.5841C47.165 29.6052 47.1608 29.6252 47.1534 29.6453C47.1524 29.6495 47.1429 29.6527 47.1365 29.6537C47.1302 29.6537 47.1239 29.6516 47.1186 29.6474C47.1123 29.6432 47.108 29.6379 47.1049 29.6316C47.0933 29.6052 47.0859 29.5777 47.0806 29.5492C47.0679 29.3413 47.0109 29.1397 46.9824 28.9349C46.9771 28.899 46.9708 28.8642 46.9613 28.8294C46.8674 28.462 46.8009 28.0862 46.671 27.7284C46.6615 27.701 46.6541 27.6714 46.6721 27.6461C46.6784 27.6376 46.6943 27.6355 46.7059 27.6302Z" fill="#D6A553"/>
<path d="M47.2876 30.5805C47.2823 30.5847 47.276 30.5879 47.2696 30.589C47.2633 30.589 47.257 30.5869 47.2527 30.5837C47.2464 30.5795 47.2422 30.5742 47.239 30.5668C47.1926 30.4317 47.1672 30.2924 47.1641 30.1488C47.1641 30.1382 47.1778 30.1256 47.1873 30.1171C47.201 30.1066 47.2327 30.1224 47.2369 30.1435C47.258 30.2765 47.3055 30.4053 47.3023 30.5415C47.3002 30.5552 47.295 30.5689 47.2876 30.5805Z" fill="#D6A553"/>
<path d="M48.0395 37.6059C48.0351 37.5929 48.0254 37.5799 48.0265 37.5679C48.0286 37.556 48.0427 37.5506 48.0514 37.5419C48.0547 37.5451 48.0612 37.5484 48.0612 37.5516C48.0623 37.5592 48.0623 37.5658 48.059 37.5723C48.0503 37.5842 48.0427 37.5962 48.033 37.607L48.0395 37.6059Z" fill="#D6A553"/>
<path d="M53.992 34.1567C54.0184 34.0986 54.0426 34.0395 54.0701 33.9825C54.0754 33.973 54.0944 33.9688 54.107 33.9667C54.1239 33.9656 54.1493 33.9973 54.145 34.011C54.1429 34.0248 54.1398 34.0385 54.1334 34.0511C54.0363 34.2169 53.9593 34.3953 53.841 34.5494C53.8315 34.5599 53.8241 34.5726 53.8189 34.5853C53.765 34.7278 53.6764 34.8491 53.5972 34.9758C53.5771 35.0054 53.5613 35.037 53.5465 35.0698C53.5075 35.1626 53.4473 35.2429 53.3871 35.3231C53.3766 35.3379 53.3608 35.3379 53.3544 35.3263C53.347 35.3146 53.3439 35.3009 53.3449 35.2872C53.346 35.2735 53.3513 35.2598 53.3586 35.2481C53.4473 35.093 53.537 34.9389 53.6257 34.7848C53.6384 34.7668 53.6479 34.7478 53.6553 34.7278C53.6827 34.6359 53.7408 34.5631 53.7914 34.486C53.8621 34.3794 53.936 34.2739 53.992 34.1567Z" fill="#D6A553"/>
<path d="M52.9741 35.9184C52.9942 35.8994 53.009 35.8836 53.0248 35.8698C53.0301 35.8656 53.0354 35.8646 53.0427 35.8656C53.0586 35.8719 53.067 35.8846 53.0607 35.8983C52.9805 36.0641 52.9002 36.2287 52.819 36.3944C52.8158 36.4018 52.8105 36.4071 52.8031 36.4092C52.7905 36.4145 52.7778 36.4156 52.7641 36.4134C52.7525 36.4071 52.744 36.3976 52.7398 36.3839C52.7345 36.3702 52.7356 36.3564 52.7409 36.3427C52.819 36.1981 52.8981 36.0567 52.9741 35.9184Z" fill="#D6A553"/>
<path d="M47.281 36.367C47.2187 36.3026 47.1744 36.2319 47.1881 36.1369L47.1797 36.139C47.2251 36.1812 47.2494 36.2361 47.2736 36.2921C47.2863 36.3174 47.2863 36.3427 47.2736 36.3681L47.281 36.367Z" fill="#D6A553"/>
<path d="M47.3855 36.5982C47.3348 36.5624 47.3063 36.517 47.3317 36.4526L47.3243 36.4547C47.3676 36.4937 47.3929 36.5391 47.3781 36.6004L47.3855 36.5982Z" fill="#D6A553"/>
<path d="M47.1363 36.0504C47.1099 36.0272 47.093 35.9997 47.0857 35.9659C47.0846 35.9586 47.0825 35.948 47.0857 35.9459C47.1015 35.9353 47.1131 35.9396 47.1194 35.9575C47.1342 35.9881 47.1469 36.0187 47.13 36.0525L47.1363 36.0504Z" fill="#D6A553"/>
<path d="M47.1279 36.0525C47.1596 36.0726 47.1818 36.0979 47.1786 36.1391L47.187 36.137C47.1564 36.1159 47.1322 36.0905 47.1353 36.0504L47.1279 36.0525Z" fill="#D6A553"/>
<path d="M47.2744 36.3681C47.305 36.3892 47.3325 36.4114 47.324 36.4547L47.3314 36.4526C47.2976 36.4336 47.2734 36.4093 47.2807 36.3671L47.2744 36.3681Z" fill="#D6A553"/>
<path d="M9.78278 44.5081H9.23974L9.0754 44.994H8.73242L9.31476 43.3756H9.72205L10.2937 44.994H9.93998L9.78278 44.5081ZM9.51126 43.6543L9.31834 44.2509H9.70061L9.51126 43.6543Z" fill="#D6A553"/>
<path d="M13.2308 44.7368V44.994H12.0625V43.3756H13.2093V43.6293H12.3876V44.058H13.1486V44.3116H12.3876V44.7368H13.2308Z" fill="#D6A553"/>
<path d="M15.6203 43.3433C15.8034 43.3433 15.9436 43.3898 16.0419 43.4827C16.1392 43.5755 16.1973 43.6997 16.2169 43.8542H15.8847C15.8748 43.7685 15.8463 43.7033 15.7989 43.6577C15.7534 43.6104 15.6891 43.5863 15.606 43.5863C15.539 43.5863 15.4845 43.6032 15.4416 43.6363C15.4006 43.6675 15.3809 43.7149 15.3809 43.7792C15.3809 43.8462 15.4059 43.8998 15.4559 43.94C15.506 43.9784 15.5953 44.0132 15.7239 44.0436C15.8998 44.0846 16.0294 44.1463 16.1133 44.2293C16.1964 44.3106 16.2384 44.4169 16.2384 44.5473C16.2384 44.6956 16.1794 44.8117 16.0633 44.8974C15.949 44.9832 15.8078 45.026 15.6417 45.026C15.4461 45.026 15.2889 44.9832 15.1701 44.8974C15.0531 44.8099 14.9879 44.6822 14.9736 44.5152H15.3023C15.3184 44.6009 15.3568 44.6679 15.4166 44.7152C15.4783 44.7635 15.5524 44.7867 15.6381 44.7867C15.7114 44.7867 15.7739 44.7679 15.8239 44.7295C15.8757 44.692 15.9025 44.6429 15.9025 44.583C15.9025 44.5143 15.8775 44.458 15.8275 44.4151C15.7793 44.3722 15.6962 44.3365 15.5774 44.3079C15.3961 44.2651 15.2612 44.2079 15.1737 44.1365C15.0853 44.0632 15.0415 43.9569 15.0415 43.8185C15.0415 43.6738 15.0969 43.5577 15.2094 43.4719C15.3211 43.3862 15.4577 43.3433 15.6203 43.3433Z" fill="#D6A553"/>
<path d="M19.3487 43.6293H18.7985V44.994H18.4769V43.6293H17.9268V43.3756H19.3487V43.6293Z" fill="#D6A553"/>
<path d="M22.5183 43.3756V44.994H22.1968V44.3295H21.4394V44.994H21.1143V43.3756H21.4394V44.0723H22.1968V43.3756H22.5183Z" fill="#D6A553"/>
<path d="M25.6204 44.7368V44.994H24.4521V43.3756H25.599V43.6293H24.7773V44.058H25.5382V44.3116H24.7773V44.7368H25.6204Z" fill="#D6A553"/>
<path d="M28.7383 43.6293H28.1881V44.994H27.8666V43.6293H27.3164V43.3756H28.7383V43.6293Z" fill="#D6A553"/>
<path d="M30.83 44.994H30.5049V43.3755H30.83V44.994Z" fill="#D6A553"/>
<path d="M33.4618 43.3433C33.6708 43.3433 33.8351 43.3951 33.9548 43.4969C34.0736 43.5997 34.1415 43.7345 34.1584 43.9007L34.162 43.9257H33.8369L33.8333 43.9007C33.7904 43.6917 33.6636 43.5863 33.4546 43.5863C33.3233 43.5863 33.217 43.639 33.1367 43.7435C33.0581 43.8489 33.0188 43.9927 33.0188 44.1758C33.0188 44.3714 33.0581 44.5223 33.1367 44.6295C33.217 44.7349 33.3224 44.7867 33.451 44.7867C33.5529 44.7867 33.635 44.7581 33.6976 44.7009C33.7619 44.642 33.8047 44.5607 33.8262 44.458L33.8297 44.433H34.1513L34.1477 44.458C34.1307 44.6322 34.0593 44.7706 33.9334 44.8724C33.8065 44.9751 33.6413 45.026 33.4368 45.026C33.2081 45.026 33.0232 44.951 32.883 44.801C32.7446 44.6509 32.6758 44.4491 32.6758 44.1936C32.6758 43.9346 32.749 43.7283 32.8973 43.5755C33.0447 43.421 33.2331 43.3433 33.4618 43.3433Z" fill="#D6A553"/>
<path d="M44.8972 21.9933V23.906H44.4623V23.1375H43.6263V23.906H43.1914V21.9933H43.6263V22.7955H44.4623V21.9933H44.8972Z" fill="#D6A553"/>
<path d="M48.0733 23.1671V23.906H47.6384V23.1755L46.9629 21.9933H47.4527L47.8707 22.7913L48.2676 21.9933H48.7447L48.0733 23.1671Z" fill="#D6A553"/>
<path d="M51.7329 22.0017C51.8786 22.0186 52.0126 22.063 52.134 22.1326C52.2544 22.2033 52.3504 22.3036 52.4211 22.4324C52.494 22.5622 52.5309 22.7258 52.5309 22.9222C52.5309 23.1196 52.494 23.2885 52.4211 23.4288C52.3504 23.5671 52.2533 23.6758 52.1298 23.754C52.0084 23.83 51.8744 23.8764 51.7287 23.8933C51.6801 23.8996 51.6411 23.9038 51.6105 23.906C51.5788 23.906 51.5366 23.906 51.4838 23.906H50.7998V21.9933H51.488C51.5387 21.9933 51.5788 21.9933 51.6105 21.9933C51.6442 21.9933 51.6844 21.9965 51.7329 22.0017ZM51.6231 23.5597C51.7582 23.546 51.8659 23.4837 51.9482 23.374C52.0295 23.2621 52.0707 23.1143 52.0707 22.9306C52.0707 22.748 52.0295 22.6076 51.9482 22.5084C51.8691 22.4102 51.7625 22.3543 51.6274 22.3395C51.5936 22.3342 51.5619 22.3311 51.5345 22.3311C51.506 22.3311 51.4722 22.3311 51.4331 22.3311H51.2347V23.564H51.4289C51.468 23.564 51.5017 23.564 51.5302 23.564C51.5609 23.564 51.5915 23.5629 51.6231 23.5597Z" fill="#D6A553"/>
<path d="M56.1436 23.4331C56.1541 23.546 56.17 23.6389 56.19 23.7117C56.2122 23.7856 56.2428 23.85 56.2829 23.906H55.81C55.7847 23.8384 55.7646 23.774 55.7509 23.7117C55.7361 23.6505 55.7256 23.5787 55.7171 23.4964C55.7023 23.3951 55.6749 23.3148 55.6327 23.2557C55.5926 23.1966 55.5377 23.165 55.468 23.1586C55.4427 23.1565 55.4173 23.1544 55.392 23.1544C55.3667 23.1544 55.3413 23.1544 55.316 23.1544H55.1429V23.906H54.708V21.9933H55.4342C55.4902 21.9933 55.5398 21.9954 55.582 21.9975C55.6263 21.9975 55.6728 22.0007 55.7213 22.006C55.8142 22.0176 55.8987 22.0418 55.9747 22.0777C56.0528 22.1147 56.1151 22.1685 56.1605 22.2382C56.208 22.3089 56.2322 22.4007 56.2322 22.5126C56.2322 22.6372 56.1985 22.7385 56.1309 22.8166C56.0633 22.8926 55.9705 22.9496 55.8522 22.9855C55.9472 23.0193 56.0169 23.0742 56.0591 23.1502C56.1035 23.2262 56.132 23.3212 56.1436 23.4331ZM55.1429 22.8335H55.3667C55.3973 22.8335 55.4237 22.8335 55.4469 22.8335C55.4722 22.8335 55.4944 22.8335 55.5145 22.8335C55.5841 22.8251 55.6453 22.8029 55.696 22.766C55.7488 22.7301 55.7762 22.6688 55.7762 22.5844C55.7762 22.4978 55.752 22.4366 55.7045 22.4028C55.6591 22.367 55.601 22.3437 55.5313 22.3353C55.5113 22.3332 55.4891 22.3311 55.4638 22.3311C55.4406 22.3311 55.4142 22.3311 55.3836 22.3311H55.1429V22.8335Z" fill="#D6A553"/>
<path d="M59.4695 23.3655H58.8446L58.6673 23.906H58.207L58.8953 21.9933H59.4357L60.1155 23.906H59.6468L59.4695 23.3655ZM59.1613 22.3691L58.9544 23.0235H59.3639L59.1613 22.3691Z" fill="#D6A553"/>
<mask id="mask2_213_1548" style="mask-type:luminance" maskUnits="userSpaceOnUse" x="19" y="17" width="12" height="18">
<path d="M19.6816 17.9845H30.9581V34.8058H19.6816V17.9845Z" fill="white"/>
</mask>
<g mask="url(#mask2_213_1548)">
<path d="M21.181 28.0112C21.2813 28.141 21.3741 28.2804 21.4945 28.3944C21.5188 28.4197 21.542 28.4471 21.5641 28.4746C21.6169 28.5379 21.6644 28.6055 21.7299 28.6582C21.752 28.6783 21.771 28.7005 21.7879 28.7247C21.8776 28.8356 21.9769 28.9359 22.0866 29.0256C22.1447 29.0752 22.2028 29.1259 22.2608 29.1755C22.378 29.2757 22.511 29.3517 22.6355 29.4404C22.7326 29.508 22.8308 29.5734 22.9279 29.641C22.9522 29.6557 22.9765 29.6737 22.9976 29.6937C23.0936 29.7909 23.2034 29.8721 23.3048 29.9608C23.3765 30.022 23.442 30.0906 23.5106 30.155C23.5454 30.1867 23.5813 30.2173 23.6161 30.249C23.6753 30.306 23.7418 30.3556 23.7998 30.4157C23.8526 30.4696 23.9149 30.516 23.974 30.5656C24.0637 30.6416 24.1566 30.7145 24.2389 30.7989C24.2685 30.8274 24.3001 30.8549 24.3329 30.8802C24.5556 31.066 24.7583 31.2707 24.9198 31.5135C24.9525 31.5631 24.9894 31.6096 25.0264 31.655C25.134 31.7911 25.2132 31.941 25.2639 32.1067C25.2765 32.1469 25.2903 32.1849 25.3029 32.2239C25.324 32.2862 25.3378 32.3495 25.3441 32.4139C25.3568 32.5437 25.3736 32.6725 25.3895 32.8002C25.4095 32.9533 25.4391 33.1032 25.4803 33.251C25.494 33.3027 25.5045 33.3544 25.513 33.4072C25.5278 33.5064 25.5489 33.6046 25.5784 33.7006C25.6491 33.9381 25.7199 34.1756 25.7959 34.411C25.8265 34.5007 25.8613 34.5884 25.9014 34.6739C25.9173 34.7055 25.9363 34.7351 25.9595 34.7625C25.9721 34.7741 25.9869 34.7836 26.0038 34.79C26.0291 34.8016 26.0671 34.7805 26.0745 34.7551C26.0861 34.7192 26.084 34.6844 26.0703 34.6506C25.9732 34.4469 25.9162 34.2305 25.8529 34.0152C25.8054 33.8516 25.7526 33.688 25.7135 33.5212C25.6829 33.3956 25.647 33.27 25.6301 33.1412C25.6238 33.0947 25.609 33.0494 25.6006 33.0029C25.5858 32.9269 25.571 32.852 25.5594 32.776C25.5341 32.6187 25.5119 32.4614 25.4855 32.3052C25.4507 32.0951 25.4053 31.8872 25.38 31.6771C25.3525 31.4544 25.304 31.2349 25.2976 31.01C25.2966 30.9572 25.2839 30.9045 25.2765 30.8517C25.2607 30.7525 25.2438 30.6543 25.2512 30.553C25.2512 30.535 25.2491 30.5171 25.2459 30.5002C25.2269 30.2764 25.2206 30.0526 25.228 29.8289C25.2301 29.8172 25.2301 29.8046 25.228 29.793C25.209 29.6874 25.2216 29.5819 25.2269 29.4763C25.2375 29.2694 25.266 29.0657 25.324 28.8662C25.3673 28.7247 25.4032 28.5822 25.4317 28.4366C25.4496 28.3384 25.4771 28.2413 25.5119 28.1474C25.5753 27.9827 25.6375 27.8159 25.7199 27.6586C25.8001 27.5003 25.8961 27.3525 26.008 27.2142C26.0946 27.1097 26.1769 27.0021 26.2571 26.8934C26.3448 26.7741 26.4408 26.6632 26.5453 26.5587C26.6382 26.468 26.7237 26.3719 26.805 26.2716C26.9316 26.108 27.0699 25.956 27.1998 25.7945C27.2145 25.7766 27.2293 25.7576 27.242 25.7386C27.3401 25.5982 27.4394 25.4589 27.5333 25.3164C27.584 25.2425 27.6262 25.1654 27.6621 25.0841C27.6948 25.0092 27.736 24.9364 27.7761 24.8635C27.8479 24.7284 27.9175 24.5922 27.9661 24.4455C27.9988 24.3516 28.0389 24.2587 28.0854 24.17C28.1244 24.0909 28.1582 24.0085 28.1878 23.9251C28.2574 23.7309 28.3239 23.5346 28.3915 23.3404C28.4052 23.3013 28.4147 23.2601 28.4242 23.22C28.459 23.0712 28.5044 22.9245 28.5308 22.7735C28.5466 22.6859 28.5667 22.6004 28.592 22.5149C28.6142 22.4294 28.6321 22.3429 28.6448 22.2552C28.6691 22.1096 28.6997 21.966 28.7324 21.8214C28.7757 21.6261 28.8074 21.4277 28.8422 21.2303C28.876 21.0382 28.9055 20.8461 28.9372 20.654C28.9414 20.6181 28.9488 20.5832 28.9594 20.5495C28.9858 20.4766 28.9963 20.4017 29.0069 20.3246C29.009 20.313 29.01 20.3014 29.0132 20.2898C29.0575 20.1188 29.0987 19.9467 29.1356 19.7747C29.1504 19.7092 29.1852 19.6544 29.2211 19.5995C29.2591 19.5404 29.2961 19.4802 29.333 19.42C29.3763 19.3504 29.4312 19.2881 29.484 19.2247C29.5367 19.1614 29.5916 19.0991 29.6602 19.0516C29.6898 19.0316 29.7172 19.0084 29.7415 18.983C29.8397 18.8785 29.9526 18.7951 30.0825 18.7339C30.0983 18.7265 30.1141 18.717 30.1279 18.7065C30.2461 18.6189 30.3759 18.5471 30.5079 18.4806C30.5554 18.4563 30.5986 18.4267 30.6493 18.4088C30.7169 18.3824 30.7739 18.3412 30.8193 18.2853C30.8636 18.2304 30.9195 18.184 30.9438 18.1143C30.9586 18.07 30.9332 18.013 30.8879 18.0014C30.8763 17.9982 30.8646 17.995 30.853 17.9929C30.8361 17.9908 30.8182 17.9897 30.8003 17.9897C30.7707 17.9897 30.7411 17.9919 30.7126 17.9961C30.5321 18.0267 30.3516 18.0573 30.1722 18.0932C30.0972 18.109 30.0223 18.127 29.9463 18.128C29.8587 18.1291 29.788 18.1724 29.713 18.2061C29.7077 18.2093 29.7025 18.2125 29.6982 18.2167C29.6318 18.2906 29.5452 18.3465 29.4914 18.4331C29.466 18.4732 29.4375 18.5101 29.4143 18.5513C29.3151 18.7329 29.2021 18.907 29.1135 19.0928C29.0871 19.1456 29.0639 19.1994 29.0438 19.2554C29.0248 19.3113 28.9963 19.363 28.9594 19.4095C28.8823 19.514 28.7979 19.6121 28.7071 19.704C28.572 19.837 28.4411 19.9721 28.2923 20.0914C28.2184 20.1758 28.1318 20.2465 28.0495 20.3225C27.9429 20.4239 27.8405 20.5284 27.7296 20.6265C27.6019 20.7416 27.4879 20.8682 27.3866 21.0065C27.3306 21.0825 27.2747 21.1575 27.2177 21.2335C27.0942 21.3992 26.9834 21.5734 26.8852 21.7549C26.8187 21.8731 26.7501 21.9892 26.6825 22.1064C26.6751 22.1212 26.6646 22.1244 26.6509 22.1138C26.6414 22.1085 26.635 22.099 26.6319 22.0885C26.6298 22.0177 26.6266 21.947 26.6287 21.8763C26.6329 21.7285 26.6255 21.5807 26.6181 21.434C26.6129 21.357 26.6076 21.281 26.6139 21.2039C26.615 21.1564 26.6139 21.11 26.6097 21.0625C26.6034 20.9326 26.6065 20.8028 26.6192 20.674C26.6276 20.5737 26.634 20.4735 26.6371 20.3732C26.6435 20.2075 26.6678 20.0439 26.6963 19.8813C26.7216 19.742 26.7459 19.6026 26.7691 19.4622C26.7881 19.3398 26.8187 19.2205 26.862 19.1034C26.9074 18.982 26.9433 18.8574 26.9802 18.7329C26.9971 18.6727 26.9897 18.6157 26.958 18.5608C26.938 18.5249 26.8894 18.5049 26.8525 18.5207C26.8303 18.5291 26.8092 18.5386 26.7891 18.5513C26.6857 18.6189 26.5865 18.6917 26.5031 18.7846C26.4482 18.8458 26.387 18.9028 26.33 18.9609C26.273 19.02 26.2265 19.0886 26.1738 19.153C25.9869 19.3778 25.8613 19.6375 25.7378 19.8992C25.6428 20.103 25.57 20.3151 25.5077 20.5305C25.4064 20.883 25.2892 21.2292 25.171 21.5755C25.0844 21.8267 25.0095 22.0811 24.9314 22.3355C24.8606 22.5656 24.791 22.7978 24.7055 23.0237C24.6696 23.1176 24.6443 23.2147 24.6126 23.3108C24.5186 23.6021 24.4289 23.8956 24.3413 24.189C24.297 24.3357 24.2358 24.4772 24.1819 24.6207C24.1313 24.7527 24.0859 24.8867 24.0563 25.0261C24.0331 25.1411 23.9972 25.2541 23.9666 25.3681C23.9085 25.5919 23.8821 25.8199 23.8716 26.051C23.8705 26.0626 23.8716 26.0742 23.8726 26.0859C23.8948 26.2558 23.9159 26.4257 23.9413 26.5946C23.9539 26.6759 23.974 26.7572 23.9919 26.8374C24.0046 26.8955 24.0183 26.9525 24.0341 27.0084C24.0669 27.1287 24.1006 27.248 24.1344 27.3662C24.1714 27.5035 24.221 27.6365 24.2811 27.7642C24.3434 27.8919 24.3973 28.0228 24.4564 28.1505C24.5556 28.3648 24.658 28.577 24.7551 28.7923C24.8374 28.9749 24.905 29.1639 24.9715 29.3528C24.9968 29.4256 25.0327 29.4953 25.0464 29.5692C25.0601 29.6441 25.0496 29.7222 25.0538 29.7982C25.0623 29.964 25.0654 30.1286 25.0623 30.2944C25.057 30.572 25.0886 30.8475 25.1298 31.123C25.1383 31.181 25.1499 31.2391 25.1573 31.2971C25.1646 31.3615 25.1678 31.427 25.172 31.4914C25.172 31.4998 25.1615 31.5093 25.1541 31.5167C25.153 31.5177 25.1425 31.5146 25.1383 31.5104C25.039 31.4006 24.9641 31.2729 24.8934 31.143C24.849 31.0607 24.8131 30.9731 24.7688 30.8897C24.6559 30.6744 24.5799 30.4442 24.487 30.2215C24.4426 30.1128 24.4099 29.9988 24.3698 29.888C24.2949 29.6769 24.2136 29.4679 24.127 29.261C24.0785 29.147 24.0341 29.0319 23.9961 28.9137C23.9423 28.7448 23.8843 28.577 23.8262 28.4102C23.803 28.3437 23.7745 28.2782 23.7439 28.2149C23.6869 28.0914 23.6246 27.9711 23.5549 27.8539C23.5454 27.8402 23.5359 27.8244 23.5275 27.8096C23.4789 27.6871 23.3998 27.5837 23.328 27.476C23.2583 27.3726 23.2108 27.2586 23.1549 27.1477C23.138 27.1097 23.119 27.0739 23.0958 27.039C22.9649 26.8575 22.8371 26.6727 22.6978 26.4975C22.6134 26.392 22.5279 26.2854 22.4255 26.1956C22.416 26.1882 22.4075 26.1798 22.4001 26.1703C22.3157 26.0552 22.2028 25.9676 22.1099 25.861C22.0592 25.804 22.0001 25.7544 21.9441 25.7027C21.8523 25.6193 21.7573 25.5391 21.6686 25.4536C21.5926 25.3797 21.5209 25.3005 21.4533 25.2182C21.3646 25.1074 21.2601 25.0124 21.1609 24.9121C21.0659 24.815 20.9572 24.7316 20.8759 24.6229C20.7735 24.5405 20.7018 24.4307 20.6025 24.3452C20.5445 24.2946 20.4843 24.2481 20.422 24.2038C20.3386 24.1479 20.25 24.0993 20.1687 24.0423C20.118 24.0064 20.0631 23.9885 20.0072 23.9716C19.9481 23.9547 19.89 23.9579 19.8341 23.9821C19.7834 23.999 19.7549 24.0328 19.7486 24.0856C19.7412 24.1331 19.7433 24.1795 19.7528 24.227C19.7876 24.4001 19.832 24.5711 19.8869 24.74C19.928 24.8625 19.966 24.986 19.9956 25.1137C20.0262 25.2456 20.0663 25.3755 20.1043 25.5053C20.1138 25.5391 20.1307 25.5707 20.1434 25.6045C20.2215 25.8199 20.3017 26.0362 20.3766 26.2526C20.422 26.3814 20.4643 26.5102 20.498 26.6421C20.5434 26.8195 20.6078 26.9905 20.6775 27.1594C20.7081 27.2364 20.745 27.3103 20.7883 27.381C20.9213 27.59 21.0248 27.818 21.181 28.0112ZM25.8096 27.2818C25.8096 27.2702 25.8106 27.2596 25.8138 27.2491C25.8191 27.2354 25.8307 27.2343 25.8381 27.2449C25.8391 27.247 25.8339 27.2554 25.8296 27.2586C25.8212 27.266 25.8128 27.2734 25.8043 27.2797C25.8106 27.305 25.8033 27.3251 25.7832 27.3399C25.7705 27.3504 25.7568 27.361 25.742 27.3694C25.7431 27.38 25.7431 27.3905 25.742 27.4011C25.741 27.4064 25.7368 27.4106 25.7325 27.4137C25.7283 27.4159 25.723 27.4169 25.7188 27.4148C25.7104 27.4106 25.7114 27.4011 25.722 27.3916C25.7294 27.3842 25.7389 27.3789 25.7473 27.3715C25.7399 27.3462 25.7515 27.3272 25.7695 27.3124C25.7821 27.3019 25.7959 27.2913 25.8096 27.2818ZM25.8339 26.8279C25.8096 26.8459 25.7906 26.868 25.7779 26.8955C25.7515 26.9472 25.723 26.9989 25.6945 27.0506C25.6924 27.0538 25.685 27.0559 25.6798 27.057C25.665 27.0612 25.6555 27.0538 25.6576 27.038C25.6713 26.9081 25.703 26.7836 25.7515 26.6622C25.7769 26.602 25.8022 26.5419 25.8149 26.4785C25.8328 26.3983 25.855 26.3191 25.8824 26.241C25.9162 26.1407 25.9426 26.0373 25.9869 25.9402C26.0249 25.7713 26.102 25.6182 26.1738 25.4631C26.292 25.2066 26.4144 24.9511 26.5337 24.6946C26.5495 24.6566 26.5643 24.6176 26.5759 24.5785C26.5791 24.5669 26.5791 24.5553 26.577 24.5437C26.5728 24.5321 26.5664 24.5236 26.5569 24.5162C26.5464 24.5078 26.5337 24.511 26.5274 24.5247C26.5147 24.5511 26.5031 24.5785 26.4915 24.6049C26.4345 24.7485 26.3711 24.8878 26.3004 25.024C26.2909 25.0387 26.2804 25.0525 26.2677 25.0651C26.2656 25.0683 26.2571 25.0672 26.2519 25.0662C26.2466 25.0641 26.2434 25.0599 26.2424 25.0556C26.236 25.025 26.2445 24.9965 26.255 24.9691C26.2962 24.8646 26.3384 24.7611 26.3806 24.6577C26.4028 24.6028 26.4303 24.55 26.4482 24.4941C26.4894 24.3642 26.5421 24.2397 26.6055 24.1194C26.6435 24.0455 26.6783 23.9705 26.7131 23.8956C26.8124 23.6824 26.9126 23.4681 26.9992 23.2485C27.053 23.1113 27.1174 22.9783 27.1713 22.8411C27.2304 22.687 27.2821 22.5297 27.338 22.3745C27.395 22.213 27.4499 22.0515 27.5111 21.8911C27.5439 21.8035 27.5787 21.7159 27.6061 21.6251C27.66 21.4625 27.7265 21.3052 27.8078 21.1543C27.9175 20.9453 28.0315 20.7395 28.1603 20.541C28.1624 20.5357 28.1645 20.5305 28.1656 20.5241C28.1698 20.5104 28.1656 20.4988 28.1519 20.4956C28.1413 20.4935 28.1255 20.4925 28.1191 20.4977C28.0664 20.5452 28.0146 20.5917 27.9809 20.6561C27.9291 20.7553 27.8669 20.8492 27.8046 20.9432C27.7761 20.9875 27.7508 21.034 27.7296 21.0825C27.6959 21.1585 27.6684 21.2366 27.6325 21.3105C27.5439 21.491 27.4869 21.6842 27.4204 21.8731C27.3349 22.118 27.2568 22.3661 27.1618 22.6067C27.0646 22.8537 26.9802 23.106 26.8662 23.3467C26.7913 23.5061 26.7279 23.6718 26.6435 23.828C26.6298 23.8534 26.6181 23.8808 26.6055 23.9082C26.5696 23.9885 26.5348 24.0697 26.4978 24.15C26.4883 24.1647 26.4756 24.1774 26.4619 24.188C26.4588 24.1911 26.4493 24.1901 26.445 24.188C26.4398 24.1859 26.4366 24.1816 26.4355 24.1764C26.4324 24.1046 26.4577 24.0381 26.4809 23.9716C26.5073 23.8935 26.5421 23.8175 26.5527 23.7351C26.558 23.7119 26.5654 23.6887 26.5749 23.6676C26.6245 23.5409 26.6773 23.4153 26.7374 23.295C26.7754 23.2211 26.8113 23.1461 26.8451 23.0712C26.8493 23.0638 26.843 23.049 26.8377 23.0395C26.8303 23.0269 26.8018 23.0269 26.7902 23.0385C26.7733 23.0543 26.7585 23.0722 26.7469 23.0923C26.6941 23.2042 26.6424 23.3171 26.5907 23.429C26.5844 23.4396 26.577 23.448 26.5675 23.4554C26.5633 23.4596 26.558 23.4607 26.5527 23.4607C26.54 23.4607 26.5316 23.4522 26.5348 23.4375C26.559 23.3108 26.5791 23.182 26.6266 23.0606C26.6699 22.9509 26.7163 22.8421 26.7649 22.7345C26.8219 22.6046 26.882 22.4769 26.9411 22.3481C26.9443 22.3429 26.9443 22.3365 26.9433 22.3312C26.938 22.3217 26.9316 22.3133 26.9243 22.3059C26.919 22.3027 26.9126 22.3027 26.9074 22.3059C26.8683 22.327 26.8546 22.3682 26.8377 22.4051C26.7796 22.5286 26.7269 22.6532 26.6699 22.7767C26.653 22.8147 26.6308 22.8485 26.6108 22.8844C26.6086 22.8865 26.5991 22.8865 26.5949 22.8844C26.5907 22.8822 26.5844 22.877 26.5844 22.8727C26.5812 22.7725 26.5928 22.6732 26.6203 22.5761C26.6224 22.5709 26.6245 22.5656 26.6266 22.5603C26.6899 22.4262 26.7321 22.2837 26.7913 22.1497C26.8472 22.0199 26.919 21.8974 26.9886 21.7739C27.0488 21.6662 27.1259 21.5681 27.1839 21.4583C27.205 21.4235 27.2293 21.3897 27.2557 21.357C27.2863 21.3147 27.3222 21.2736 27.3507 21.2292C27.4573 21.0646 27.5956 20.9284 27.7275 20.7849C27.7634 20.7458 27.8014 20.7089 27.8394 20.6719C27.9291 20.5875 28.022 20.5051 28.1107 20.4186C28.2448 20.2866 28.3725 20.1473 28.5245 20.0344C28.535 20.027 28.5435 20.0196 28.5519 20.0111C28.6628 19.8887 28.7905 19.7821 28.8939 19.6533C28.8971 19.6491 28.9024 19.6459 28.9076 19.6427C28.9129 19.6406 28.9203 19.6375 28.9245 19.6396C28.9319 19.6459 28.9456 19.6544 28.9446 19.6617C28.934 19.7842 28.9224 19.9077 28.9076 20.0301C28.895 20.1357 28.8749 20.2402 28.877 20.3479C28.877 20.3711 28.876 20.3943 28.8717 20.4175C28.8422 20.6339 28.8211 20.8524 28.7789 21.0667C28.7113 21.4024 28.6754 21.7433 28.5846 22.0737C28.5456 22.307 28.496 22.5381 28.4453 22.7682C28.4105 22.9245 28.3767 23.0796 28.3303 23.2327C28.2764 23.4069 28.2141 23.5789 28.154 23.752C28.1202 23.847 28.0864 23.941 28.0474 24.0328C27.9851 24.1795 27.9154 24.3231 27.8626 24.473C27.8246 24.5796 27.7645 24.6746 27.7149 24.7759C27.623 24.967 27.5259 25.1559 27.4035 25.3301C27.2916 25.4895 27.1924 25.6573 27.0636 25.8051C26.9158 25.974 26.7723 26.145 26.6319 26.3202C26.6086 26.3466 26.5844 26.3719 26.558 26.3951C26.4324 26.5197 26.3152 26.6527 26.2086 26.7941C26.1252 26.9071 26.0365 27.0179 25.9479 27.1287C25.9341 27.1499 25.913 27.1615 25.8877 27.1615C25.8793 27.1361 25.894 27.1161 25.9046 27.0971C25.9563 27.0105 26.0038 26.9219 26.064 26.8416C26.1526 26.7245 26.2339 26.601 26.3205 26.4817C26.4345 26.3223 26.5242 26.1513 26.6245 25.9845C26.6445 25.9476 26.6625 25.9106 26.6783 25.8726C26.6846 25.8557 26.6889 25.8389 26.691 25.822C26.691 25.8156 26.6889 25.8104 26.6857 25.8051C26.6751 25.8072 26.6593 25.8061 26.6551 25.8135C26.6234 25.8684 26.5928 25.9265 26.5611 25.9835C26.52 26.0605 26.4778 26.1386 26.425 26.2094C26.3152 26.3561 26.2044 26.5017 26.0967 26.6485C26.027 26.7445 25.9542 26.8374 25.8993 26.943C25.8729 26.9957 25.8434 27.0464 25.8106 27.096C25.798 27.114 25.7758 27.1256 25.7568 27.1393C25.7515 27.1425 25.7452 27.1425 25.7399 27.1393C25.7357 27.1351 25.7336 27.1298 25.7346 27.1245C25.7473 27.0475 25.7874 26.981 25.8191 26.9113C25.8318 26.8849 25.8413 26.8564 25.8286 26.8269L25.8339 26.8279ZM24.202 29.7856C24.2146 29.8046 24.2273 29.8225 24.2389 29.8415C24.241 29.8457 24.24 29.8531 24.241 29.8584C24.2315 29.8552 24.2199 29.8531 24.2146 29.8468C24.1988 29.8289 24.1914 29.8077 24.2073 29.7856C24.1819 29.7465 24.1492 29.7106 24.1323 29.6674C24.1028 29.5956 24.0584 29.5333 24.0183 29.4668C23.9771 29.395 23.9423 29.3201 23.898 29.2515C23.8146 29.1227 23.7259 28.996 23.6394 28.8704C23.6214 28.8472 23.6014 28.825 23.5803 28.805C23.5771 28.8018 23.5697 28.8029 23.5634 28.8007C23.5623 28.8071 23.5581 28.8134 23.5602 28.8187C23.5993 28.8979 23.6415 28.9739 23.689 29.0488C23.7871 29.2019 23.898 29.3486 23.975 29.5154C24.0732 29.6579 24.1313 29.8183 24.1914 29.9787C24.2104 30.0294 24.2231 30.0811 24.2463 30.1286C24.316 30.2722 24.3635 30.4242 24.4163 30.5741C24.4226 30.5899 24.4163 30.5973 24.3973 30.5931C24.317 30.5012 24.222 30.4126 24.1439 30.3081C24.0806 30.2236 24.0162 30.1392 23.9518 30.0537C23.9233 30.0167 23.898 29.9756 23.8642 29.9439C23.7935 29.8795 23.7407 29.8004 23.6826 29.7265C23.6288 29.6568 23.5792 29.5808 23.5169 29.5196C23.4441 29.4489 23.3829 29.3707 23.3185 29.2937C23.2921 29.262 23.2615 29.2335 23.234 29.204C23.2087 29.1786 23.1855 29.1522 23.1633 29.1248C23.0651 28.9918 22.9596 28.8641 22.8477 28.7427C22.7464 28.635 22.6693 28.5084 22.5638 28.4039C22.3347 28.0967 22.1056 27.7885 21.8914 27.4697C21.8766 27.4517 21.8639 27.4317 21.8534 27.4106C21.8249 27.3314 21.7731 27.266 21.7278 27.1974C21.6644 27.1045 21.599 27.0137 21.5568 26.9092C21.5536 26.9039 21.5504 26.8997 21.5451 26.8965C21.5335 26.8881 21.5209 26.8881 21.5135 26.8976C21.4998 26.9166 21.5008 26.887 21.504 26.9102C21.5124 26.9767 21.5409 27.0337 21.5747 27.0897C21.6011 27.1351 21.6349 27.1784 21.656 27.2269C21.6824 27.286 21.7151 27.342 21.7531 27.3947C21.847 27.5309 21.941 27.666 22.0339 27.8032C22.0634 27.8476 22.0856 27.8961 22.1173 27.9384C22.1479 27.9816 22.1859 28.0186 22.2196 28.0587C22.2313 28.0724 22.2408 28.0882 22.2513 28.102C22.3706 28.2635 22.4909 28.4239 22.6102 28.5854C22.6419 28.6276 22.6725 28.672 22.7115 28.7089C22.7801 28.7744 22.835 28.8514 22.8963 28.9221C22.9269 28.958 22.9533 28.9981 22.9881 29.0298C23.0335 29.0762 23.0757 29.1259 23.1137 29.1776C23.1601 29.2388 23.2066 29.3011 23.2615 29.3539C23.3174 29.4077 23.3681 29.4647 23.4135 29.5259C23.4378 29.5597 23.4631 29.5924 23.4916 29.622C23.6024 29.7296 23.6879 29.8574 23.7819 29.9787C23.8325 30.0442 23.8769 30.1139 23.9233 30.1825C23.9275 30.1899 23.9244 30.2025 23.9244 30.212C23.918 30.211 23.9106 30.211 23.9075 30.2078C23.8906 30.1909 23.8758 30.173 23.8589 30.1561C23.804 30.0949 23.7418 30.041 23.6742 29.9946C23.6552 29.984 23.6394 29.9872 23.6267 30.0051C23.6214 30.0136 23.6151 30.0305 23.6193 30.0368C23.632 30.0632 23.6489 30.0864 23.67 30.1075C23.7048 30.1392 23.747 30.1624 23.7819 30.193C23.8642 30.268 23.955 30.3355 24.0141 30.4337C24.0162 30.439 24.0151 30.4453 24.0173 30.4516C24.0194 30.4611 24.0162 30.4632 24.0067 30.4569C23.9603 30.4326 23.917 30.402 23.8779 30.3661C23.8093 30.3028 23.7386 30.2405 23.6679 30.1782C23.4916 30.021 23.3153 29.8637 23.139 29.7075C23.0683 29.6452 22.9986 29.5819 22.9237 29.5249C22.8298 29.4531 22.7316 29.3866 22.6303 29.3264C22.493 29.2462 22.3643 29.1544 22.2439 29.0499C22.1246 28.9454 21.9959 28.8493 21.8998 28.7205C21.8871 28.7068 21.8745 28.6952 21.8608 28.6836C21.7837 28.6034 21.7035 28.5242 21.6296 28.4408C21.5747 28.3785 21.5293 28.3089 21.4765 28.2455C21.4195 28.178 21.3573 28.1157 21.3024 28.0471C21.2232 27.951 21.1525 27.8497 21.0913 27.741C21.0184 27.6132 20.9477 27.4834 20.877 27.3546C20.7841 27.1889 20.7081 27.0169 20.6511 26.8364C20.6236 26.7456 20.5994 26.6537 20.5645 26.5661C20.5381 26.5007 20.5202 26.4331 20.5001 26.3656C20.4695 26.2579 20.4379 26.1513 20.3956 26.0457C20.3228 25.86 20.2458 25.6742 20.1993 25.4779C20.193 25.4494 20.1803 25.423 20.1708 25.3945C20.1539 25.3449 20.1318 25.2952 20.1223 25.2435C20.0811 25.0229 20.0072 24.8107 19.9375 24.5986C19.8995 24.474 19.871 24.3474 19.8541 24.2186C19.851 24.189 19.852 24.1595 19.8563 24.1299C19.8584 24.1014 19.8858 24.0782 19.9154 24.074C19.9829 24.0624 20.0452 24.075 20.1011 24.113C20.1708 24.1584 20.2384 24.2059 20.307 24.2513C20.4928 24.3706 20.649 24.5226 20.7946 24.6841C20.878 24.777 20.9656 24.8646 21.0554 24.949C21.1968 25.0841 21.3309 25.2256 21.4618 25.3681C21.6053 25.5254 21.7541 25.6752 21.9125 25.8167C22.0223 25.9149 22.1246 26.0215 22.2302 26.1239C22.2935 26.2178 22.378 26.2917 22.4571 26.3709C22.5521 26.468 22.6387 26.5714 22.7168 26.6833C22.74 26.7171 22.7664 26.7487 22.7907 26.7825C22.8667 26.8881 22.9416 26.9936 23.0176 27.0992C23.044 27.1382 23.0662 27.1794 23.0852 27.2227C23.1306 27.3251 23.1823 27.4243 23.2383 27.5214C23.3185 27.6523 23.404 27.78 23.48 27.913C23.5739 28.0777 23.6584 28.2455 23.7228 28.4239C23.7776 28.5727 23.8262 28.7247 23.88 28.8746C23.9423 29.0467 23.9993 29.2209 24.0721 29.3876C24.1239 29.5069 24.1619 29.6304 24.2083 29.7518C24.2115 29.7602 24.2041 29.774 24.202 29.7845V29.7856ZM25.2945 27.6544C25.2734 27.6702 25.266 27.6914 25.2713 27.7167C25.2924 27.8529 25.2808 27.988 25.2554 28.122C25.2343 28.2381 25.2153 28.3542 25.1942 28.4704C25.1931 28.4788 25.1815 28.4862 25.1752 28.4936C25.1678 28.4862 25.1541 28.4788 25.153 28.4704C25.1425 28.3236 25.1309 28.1759 25.1256 28.0291C25.1214 27.9172 25.1224 27.8043 25.1235 27.6924C25.1256 27.5098 25.1245 27.3261 25.1499 27.1446C25.1604 27.0749 25.1668 27.0042 25.1741 26.9335C25.19 26.7867 25.1984 26.64 25.1984 26.4922C25.2005 26.4564 25.2048 26.4215 25.21 26.3867C25.2343 26.1999 25.2691 26.013 25.2786 25.8241C25.2808 25.765 25.2913 25.7069 25.3103 25.651C25.3473 25.537 25.3641 25.4209 25.3821 25.3047C25.4243 25.0356 25.4655 24.7675 25.5309 24.5036C25.5415 24.4635 25.5478 24.4234 25.5563 24.3822C25.6217 24.0286 25.685 23.6739 25.7526 23.3203C25.8223 22.9614 25.8719 22.5983 25.9025 22.2341C25.9035 22.2162 25.9004 22.1993 25.8919 22.1835C25.8888 22.175 25.874 22.1708 25.8634 22.1676C25.8603 22.1666 25.8529 22.1729 25.8508 22.1782C25.8244 22.25 25.818 22.327 25.8085 22.403C25.7853 22.5782 25.7684 22.7535 25.7315 22.9276C25.7019 23.0659 25.6808 23.2063 25.6565 23.3456C25.6217 23.5441 25.589 23.7415 25.5541 23.9389C25.5373 24.0317 25.5193 24.1246 25.5014 24.2175C25.494 24.2524 25.4792 24.2851 25.4739 24.3199C25.4222 24.6102 25.3726 24.9015 25.323 25.1918C25.3061 25.2847 25.2976 25.3807 25.2702 25.4705C25.2164 25.6404 25.1984 25.8167 25.1794 25.993C25.1689 26.0922 25.1604 26.1925 25.1446 26.2917C25.1319 26.373 25.1277 26.4553 25.1224 26.5376C25.1108 26.7202 25.1034 26.9029 25.0749 27.0834C25.058 27.1826 25.0496 27.2818 25.0496 27.3831C25.0528 27.5246 25.0506 27.665 25.0433 27.8064C25.0338 27.9954 25.0485 28.1843 25.0654 28.3722C25.0781 28.52 25.0749 28.6667 25.0728 28.8145C25.0718 28.8197 25.0696 28.825 25.0644 28.8292C25.0549 28.8261 25.0411 28.8229 25.0369 28.8155C25.0221 28.7902 25.0095 28.7638 25 28.7364C24.9694 28.6466 24.9398 28.5569 24.9103 28.4672C24.8818 28.3838 24.8501 28.3004 24.8248 28.216C24.791 28.102 24.7604 27.989 24.7329 27.874C24.6844 27.6797 24.6274 27.4866 24.62 27.2839C24.62 27.2723 24.6158 27.2607 24.6147 27.2491C24.5989 27.0675 24.563 26.887 24.5756 26.7023C24.5746 26.697 24.5735 26.6917 24.5714 26.6865C24.5704 26.6685 24.5619 26.6632 24.545 26.6706C24.5398 26.6717 24.5345 26.6759 24.5313 26.6812C24.507 26.7361 24.506 26.7952 24.5102 26.8543C24.5186 26.9957 24.5292 27.1361 24.544 27.2776C24.5714 27.5182 24.6158 27.7557 24.677 27.9901C24.7129 28.1336 24.7477 28.2772 24.8015 28.4144C24.8606 28.5685 24.905 28.7279 24.9525 28.8862C24.962 28.919 24.9694 28.9517 24.9609 28.9855C24.9556 28.9834 24.9483 28.9812 24.9461 28.977C24.8881 28.8546 24.8311 28.7321 24.7741 28.6086C24.7055 28.4598 24.6358 28.3099 24.5672 28.16C24.4923 27.9932 24.4152 27.8275 24.3413 27.6607C24.3128 27.5964 24.2875 27.5299 24.2653 27.4623C24.2252 27.3335 24.1893 27.2026 24.1492 27.0728C24.1112 26.9546 24.0816 26.8342 24.0595 26.7118C24.0489 26.6485 24.0394 26.5841 24.0257 26.5197C23.9972 26.3867 23.9877 26.2516 23.975 26.1165C23.9687 26.0341 23.9729 25.9518 23.9866 25.8695C23.9951 25.8114 24.0035 25.7523 24.0078 25.6932C24.0151 25.5876 24.0331 25.4831 24.0616 25.3797C24.1038 25.2266 24.1429 25.0715 24.1851 24.9184C24.2115 24.8213 24.2431 24.7274 24.2801 24.6334C24.3107 24.5574 24.3381 24.4793 24.3635 24.4001C24.4057 24.2714 24.449 24.1426 24.487 24.0127C24.5493 23.7974 24.6231 23.5852 24.6918 23.372C24.7118 23.3108 24.7298 23.2475 24.7509 23.1873C24.8332 22.9593 24.905 22.7292 24.9757 22.497C24.9926 22.441 25.0148 22.3861 25.0295 22.3291C25.0718 22.1571 25.1193 21.9871 25.1868 21.8225C25.2048 21.7792 25.2185 21.7338 25.2333 21.6895C25.2586 21.6103 25.2808 21.5311 25.3071 21.453C25.3451 21.3411 25.3874 21.2303 25.4233 21.1184C25.4834 20.9326 25.5351 20.7458 25.5943 20.56C25.6576 20.3574 25.7104 20.1515 25.8128 19.9636C25.818 19.9531 25.8212 19.9415 25.8265 19.9309C25.9299 19.6976 26.0608 19.4812 26.2044 19.2712C26.2244 19.2427 26.2466 19.2142 26.2698 19.1878C26.3806 19.0654 26.4904 18.9429 26.6044 18.8226C26.672 18.7476 26.7533 18.6885 26.8451 18.6474C26.8641 18.6389 26.8968 18.6621 26.8947 18.6843C26.8936 18.7128 26.8894 18.7424 26.882 18.7709C26.8662 18.8279 26.8451 18.8827 26.8261 18.9387C26.786 19.0622 26.7448 19.1857 26.7058 19.3092C26.6931 19.343 26.6857 19.3767 26.6836 19.4126C26.6836 19.4717 26.6688 19.5287 26.6583 19.5868C26.6361 19.7145 26.616 19.8422 26.5875 19.9689C26.5801 20.0037 26.577 20.0396 26.5749 20.0745C26.5622 20.2275 26.5548 20.3806 26.5369 20.5326C26.5242 20.6677 26.5179 20.8039 26.52 20.939C26.5179 21.3401 26.5432 21.7412 26.5348 22.1423C26.5316 22.2964 26.5274 22.4495 26.5126 22.6015C26.4968 22.7661 26.4809 22.9308 26.4535 23.0944C26.4176 23.315 26.3849 23.5367 26.3511 23.7584C26.3384 23.846 26.3268 23.9336 26.3152 24.0222C26.3068 24.0856 26.3068 24.1521 26.2941 24.2154C26.2593 24.4012 26.2202 24.5859 26.1822 24.7706C26.1769 24.7991 26.1643 24.8266 26.1569 24.8551C26.102 25.0419 26.046 25.2287 25.9954 25.4166C25.931 25.6552 25.8771 25.8969 25.7906 26.1302C25.7843 26.146 25.7811 26.164 25.7769 26.1809C25.7441 26.3012 25.7178 26.4226 25.6798 26.5397C25.6354 26.6812 25.5911 26.8205 25.5584 26.9651C25.5035 27.2069 25.4296 27.4433 25.3726 27.684C25.3705 27.6892 25.3673 27.6945 25.3641 27.6998C25.3578 27.7125 25.3462 27.7167 25.3356 27.7061C25.3188 27.6903 25.305 27.6713 25.2892 27.6534L25.2945 27.6544ZM30.2303 18.507C30.2197 18.5017 30.2091 18.4954 30.1996 18.488C30.1711 18.4552 30.1384 18.4542 30.1057 18.4753C30.0645 18.4996 30.0255 18.526 29.9885 18.5545C29.8914 18.6315 29.7985 18.7117 29.7078 18.7951C29.6064 18.887 29.5188 18.9894 29.4323 19.0917C29.4154 19.1086 29.4016 19.1276 29.3921 19.1498C29.3668 19.2184 29.3098 19.2638 29.2697 19.3219C29.2655 19.3292 29.2496 19.3282 29.2391 19.3324C29.237 19.3261 29.2359 19.3208 29.2359 19.3145C29.2486 19.2501 29.2676 19.1867 29.3109 19.1382C29.389 19.0495 29.447 18.945 29.5389 18.869C29.5473 18.8606 29.5526 18.85 29.5536 18.8384C29.5536 18.8268 29.5515 18.8173 29.5463 18.8078C29.5452 18.8057 29.5336 18.8057 29.5294 18.8078C29.4882 18.8226 29.4607 18.8542 29.4354 18.8859C29.4048 18.9218 29.3763 18.9587 29.3341 18.983C29.3246 18.9851 29.3151 18.9851 29.3056 18.982C29.3024 18.9767 29.3024 18.9714 29.3035 18.9651C29.352 18.8711 29.3974 18.7751 29.4523 18.6843C29.5019 18.6051 29.5579 18.5281 29.618 18.4563C29.7141 18.3391 29.8291 18.2547 29.9896 18.242C30.0899 18.2346 30.188 18.2167 30.2851 18.1914C30.4055 18.1586 30.5279 18.146 30.6493 18.1217C30.6841 18.1164 30.719 18.1143 30.7538 18.1154C30.7633 18.1154 30.7728 18.127 30.7812 18.1344C30.7834 18.1396 30.7834 18.1449 30.7812 18.1502C30.7327 18.2346 30.6704 18.3011 30.5733 18.3296C30.5459 18.3381 30.5205 18.355 30.4941 18.3687C30.4519 18.3898 30.4107 18.412 30.3685 18.432C30.321 18.4552 30.2799 18.4911 30.2303 18.507ZM25.0116 29.1259C25.0031 29.1142 25.0053 29.109 25.0158 29.1121C25.0179 29.1132 25.019 29.1195 25.0211 29.1237L25.0116 29.1259Z" fill="#D6A553"/>
</g>
<path d="M25.0556 23.8334C25.0439 23.846 25.0344 23.8598 25.0271 23.8756C24.9574 24.0371 24.8867 24.1997 24.8339 24.3685C24.8318 24.3738 24.8307 24.3791 24.8286 24.3854C24.8075 24.5132 24.7632 24.6356 24.7209 24.758C24.7157 24.7749 24.7114 24.7918 24.7083 24.8087C24.6376 25.1855 24.5711 25.5624 24.5236 25.9413C24.5204 25.9772 24.5183 26.012 24.5172 26.0469C24.5162 26.1239 24.5162 26.1999 24.5014 26.2759C24.4993 26.2992 24.4993 26.3224 24.5035 26.3456C24.5035 26.3657 24.5141 26.3794 24.5331 26.3847C24.5542 26.3878 24.5679 26.3794 24.5732 26.3593C24.5795 26.3435 24.5837 26.3266 24.5869 26.3087C24.5953 26.2506 24.6017 26.1915 24.6038 26.1334C24.6048 26.0448 24.6133 25.9572 24.6281 25.8695C24.6323 25.8527 24.6344 25.8347 24.6344 25.8168C24.6302 25.6985 24.6629 25.5845 24.6734 25.4674C24.6745 25.4558 24.6756 25.4442 24.6777 25.4325C24.6998 25.3228 24.7357 25.2162 24.7463 25.1043C24.7568 24.9924 24.7917 24.8858 24.8128 24.776C24.8233 24.7179 24.8455 24.662 24.8613 24.606C24.9141 24.4255 24.9606 24.2429 25.0228 24.0656C25.0482 23.9928 25.0724 23.921 25.0978 23.8482C25.0978 23.8429 25.0946 23.8376 25.0904 23.8355C25.0788 23.8334 25.0672 23.8334 25.0556 23.8334Z" fill="#D6A553"/>
<path d="M26.3857 19.457C26.3815 19.4602 26.3741 19.4623 26.372 19.4676C26.3646 19.4834 26.3583 19.4993 26.353 19.5161C26.3097 19.6502 26.2664 19.7853 26.2253 19.9204C26.2115 19.9658 26.1999 20.0112 26.1915 20.0576C26.1735 20.1442 26.1524 20.2297 26.1271 20.3141C26.0944 20.4271 26.0701 20.5421 26.0564 20.6593C26.0395 20.7934 26.0194 20.9274 26.0078 21.0625C26.0089 21.0794 26.012 21.0963 26.0184 21.1121C26.0194 21.1164 26.0268 21.1185 26.0321 21.1195C26.0374 21.1195 26.0426 21.1174 26.0469 21.1143C26.0521 21.1111 26.0564 21.1069 26.0585 21.1016C26.068 21.0794 26.0743 21.0573 26.0775 21.034C26.088 20.863 26.1355 20.6973 26.1588 20.5284C26.163 20.4989 26.1683 20.4704 26.1756 20.4419C26.2527 20.14 26.3076 19.8318 26.4153 19.5373C26.4226 19.5151 26.429 19.4908 26.4142 19.4697C26.4089 19.4623 26.3952 19.4613 26.3857 19.457Z" fill="#D6A553"/>
<path d="M25.9082 21.8817C25.9135 21.8849 25.9177 21.887 25.924 21.8881C25.9293 21.8881 25.9335 21.887 25.9377 21.8838C25.943 21.8796 25.9462 21.8754 25.9483 21.8701C25.9863 21.7593 26.0074 21.6442 26.0106 21.5271C26.0106 21.5176 25.999 21.507 25.9916 21.5007C25.98 21.4912 25.9536 21.5049 25.9504 21.5218C25.9335 21.6316 25.8945 21.7371 25.8966 21.849C25.8987 21.8606 25.9029 21.8712 25.9082 21.8817Z" fill="#D6A553"/>
<path d="M25.2883 27.655C25.2927 27.6442 25.3003 27.6333 25.2992 27.6235C25.2981 27.6148 25.2861 27.6094 25.2796 27.6018C25.2764 27.6051 25.2709 27.6072 25.2709 27.6105C25.2698 27.617 25.2709 27.6224 25.2731 27.6279C25.2796 27.6376 25.2861 27.6463 25.2937 27.6561L25.2883 27.655Z" fill="#D6A553"/>
<path d="M20.3974 24.8203C20.3763 24.7728 20.3562 24.7243 20.333 24.6768C20.3299 24.6694 20.314 24.6662 20.3035 24.6641C20.2897 24.663 20.2686 24.6894 20.2718 24.7C20.2739 24.7116 20.2771 24.7232 20.2813 24.7338C20.3615 24.8699 20.4249 25.0166 20.522 25.1423C20.5294 25.1518 20.5357 25.1613 20.5399 25.1729C20.5842 25.289 20.6571 25.3893 20.7225 25.4927C20.7384 25.518 20.7521 25.5434 20.7637 25.5708C20.7964 25.6468 20.846 25.7123 20.8946 25.7788C20.9041 25.7914 20.9167 25.7914 20.922 25.7819C20.9273 25.7714 20.9305 25.7608 20.9294 25.7492C20.9284 25.7376 20.9241 25.727 20.9178 25.7165C20.845 25.5898 20.7721 25.4631 20.6993 25.3365C20.6887 25.3217 20.6803 25.3059 20.674 25.289C20.6529 25.214 20.6043 25.1539 20.5621 25.0905C20.504 25.0029 20.4439 24.9164 20.3974 24.8203Z" fill="#D6A553"/>
<path d="M21.2336 26.2686C21.2177 26.2528 21.2061 26.2401 21.1935 26.2285C21.1882 26.2253 21.184 26.2232 21.1776 26.2253C21.165 26.2296 21.1576 26.2401 21.1629 26.2517C21.2283 26.3879 21.2948 26.523 21.3613 26.6592C21.3645 26.6655 21.3687 26.6697 21.374 26.6718C21.3845 26.6761 21.3951 26.6771 21.4067 26.675C21.4162 26.6697 21.4236 26.6613 21.4267 26.6507C21.431 26.6391 21.431 26.6275 21.4257 26.6169C21.3613 26.4987 21.2969 26.3816 21.2336 26.2686Z" fill="#D6A553"/>
<path d="M25.9119 26.6359C25.9636 26.5842 26.0006 26.5261 25.989 26.448L25.9953 26.4491C25.9584 26.4839 25.9383 26.5293 25.9183 26.5747C25.9088 26.5958 25.9088 26.6169 25.9183 26.638L25.9119 26.6359Z" fill="#D6A553"/>
<path d="M25.8271 26.8269C25.8694 26.7974 25.8926 26.7604 25.8715 26.7076L25.8778 26.7087C25.8419 26.7404 25.8219 26.7784 25.8335 26.828L25.8271 26.8269Z" fill="#D6A553"/>
<path d="M26.0327 26.3762C26.0549 26.3572 26.0675 26.334 26.0739 26.3066C26.0749 26.3013 26.077 26.2918 26.0739 26.2907C26.0612 26.2823 26.0517 26.2855 26.0464 26.3002C26.0338 26.3256 26.0243 26.3509 26.038 26.3784L26.0327 26.3762Z" fill="#D6A553"/>
<path d="M26.0394 26.3784C26.0127 26.3944 25.9945 26.4158 25.9967 26.45L25.9902 26.4479C26.0159 26.4318 26.0352 26.4104 26.033 26.3762L26.0394 26.3784Z" fill="#D6A553"/>
<path d="M25.9192 26.6381C25.8936 26.6552 25.87 26.6734 25.8775 26.7098L25.8711 26.7087C25.8989 26.6927 25.9192 26.6723 25.9128 26.636L25.9192 26.6381Z" fill="#D6A553"/>
<path d="M36.5673 43.3361C36.7609 43.3361 36.9091 43.3852 37.013 43.4834C37.1159 43.5816 37.1772 43.7128 37.198 43.8762H36.8468C36.8364 43.7855 36.8062 43.7166 36.7562 43.6685C36.708 43.6184 36.64 43.5929 36.5522 43.5929C36.4814 43.5929 36.4238 43.6109 36.3785 43.6458C36.3351 43.6788 36.3143 43.7289 36.3143 43.7969C36.3143 43.8677 36.3407 43.9243 36.3936 43.9668C36.4465 44.0074 36.5409 44.0442 36.6769 44.0763C36.8628 44.1197 36.9997 44.1849 37.0885 44.2727C37.1763 44.3586 37.2207 44.471 37.2207 44.6088C37.2207 44.7655 37.1584 44.8883 37.0356 44.9789C36.9148 45.0695 36.7656 45.1148 36.59 45.1148C36.3832 45.1148 36.2171 45.0695 36.0915 44.9789C35.9678 44.8864 35.8989 44.7514 35.8838 44.5748H36.2312C36.2482 44.6654 36.2888 44.7363 36.3521 44.7863C36.4172 44.8373 36.4956 44.8618 36.5862 44.8618C36.6636 44.8618 36.7297 44.842 36.7826 44.8014C36.8374 44.7617 36.8657 44.7098 36.8657 44.6466C36.8657 44.5739 36.8392 44.5144 36.7864 44.4691C36.7354 44.4237 36.6476 44.386 36.522 44.3558C36.3304 44.3105 36.1878 44.25 36.0953 44.1745C36.0018 44.0971 35.9555 43.9847 35.9555 43.8384C35.9555 43.6854 36.0141 43.5627 36.133 43.4721C36.2511 43.3814 36.3955 43.3361 36.5673 43.3361Z" fill="#D6A553"/>
</svg>
