<svg width="530" height="504" viewBox="0 0 530 504" fill="none" xmlns="http://www.w3.org/2000/svg">
<ellipse cx="267.35" cy="261.57" rx="233.2" ry="227.547" fill="black"/>
<mask id="mask0_213_1868" style="mask-type:luminance" maskUnits="userSpaceOnUse" x="0" y="0" width="530" height="504">
<path d="M0 0H530V503.147H0V0Z" fill="white"/>
</mask>
<g mask="url(#mask0_213_1868)">
<path fill-rule="evenodd" clip-rule="evenodd" d="M126.169 31.256C129.842 31.256 132.875 34.2667 132.875 37.9693C132.875 41.6793 129.842 44.69 126.169 44.69C122.445 44.69 119.412 41.6793 119.412 37.9693C119.412 34.2667 122.445 31.256 126.169 31.256ZM6.74992 283.956C10.4746 283.956 13.5001 286.966 13.5001 290.676C13.5001 294.386 10.4746 297.397 6.74992 297.397C3.03256 297.397 0.0439453 294.386 0.0439453 290.676C0.0439453 286.966 3.03256 283.956 6.74992 283.956ZM459.65 93.1629C463.374 93.1629 466.363 96.1736 466.363 99.8763C466.363 103.586 463.374 106.597 459.65 106.597C455.932 106.597 452.9 103.586 452.9 99.8763C452.9 96.1736 455.932 93.1629 459.65 93.1629ZM346.384 9.61432C350.109 9.61432 353.134 12.625 353.134 16.335C353.134 20.045 350.109 23.0557 346.384 23.0557C342.704 23.0557 339.678 20.045 339.678 16.335C339.678 12.625 342.704 9.61432 346.384 9.61432ZM525.355 272.921C527.733 272.921 529.683 274.762 529.683 277.021C529.683 279.289 527.733 281.129 525.355 281.129C522.977 281.129 521.071 279.289 521.071 277.021C521.071 274.762 522.977 272.921 525.355 272.921ZM473.415 112.802C475.8 112.802 477.699 114.635 477.699 116.903C477.699 119.17 475.8 121.01 473.415 121.01C471.037 121.01 469.087 119.17 469.087 116.903C469.087 114.635 471.037 112.802 473.415 112.802ZM145.639 26.5007C148.024 26.5007 149.968 28.341 149.968 30.6082C149.968 32.8754 148.024 34.7157 145.639 34.7157C143.262 34.7157 141.355 32.8754 141.355 30.6082C141.355 28.341 143.262 26.5007 145.639 26.5007ZM106.692 32.8386C109.069 32.8386 111.02 34.6789 111.02 36.9388C111.02 39.206 109.069 41.0536 106.692 41.0536C104.307 41.0536 102.408 39.206 102.408 36.9388C102.408 34.6789 104.307 32.8386 106.692 32.8386ZM13.5884 218.677C15.9734 218.677 17.9167 220.51 17.9167 222.777C17.9167 225.045 15.9734 226.885 13.5884 226.885C11.2108 226.885 9.30422 225.045 9.30422 222.777C9.30422 220.51 11.2108 218.677 13.5884 218.677ZM57.652 405.09C60.0296 405.09 61.9803 406.923 61.9803 409.19C61.9803 411.457 60.0296 413.298 57.652 413.298C55.267 413.298 53.3678 411.457 53.3678 409.19C53.3678 406.923 55.267 405.09 57.652 405.09ZM195.202 494.689C197.579 494.689 199.53 496.53 199.53 498.79C199.53 501.057 197.579 502.897 195.202 502.897C192.817 502.897 190.918 501.057 190.918 498.79C190.918 496.53 192.817 494.689 195.202 494.689ZM377.029 483.751C379.406 483.751 381.313 485.591 381.313 487.851C381.313 490.118 379.406 491.958 377.029 491.958C374.644 491.958 372.7 490.118 372.7 487.851C372.7 485.591 374.644 483.751 377.029 483.751ZM471.597 411.737C473.982 411.737 475.925 413.577 475.925 415.845C475.925 418.112 473.982 419.952 471.597 419.952C469.219 419.952 467.313 418.112 467.313 415.845C467.313 413.577 469.219 411.737 471.597 411.737ZM461.343 423.684C463.72 423.684 465.671 425.524 465.671 427.792C465.671 430.059 463.72 431.892 461.343 431.892C459.002 431.892 457.059 430.059 457.059 427.792C457.059 425.524 459.002 423.684 461.343 423.684ZM450.522 435.477C452.9 435.477 454.806 437.317 454.806 439.584C454.806 441.851 452.9 443.692 450.522 443.692C448.137 443.692 446.194 441.851 446.194 439.584C446.194 437.317 448.137 435.477 450.522 435.477ZM463.588 437.126C465.973 437.126 467.916 438.973 467.916 441.233C467.916 443.5 465.973 445.341 463.588 445.341C461.21 445.341 459.304 443.5 459.304 441.233C459.304 438.973 461.21 437.126 463.588 437.126ZM391.007 478.495C393.385 478.495 395.291 480.335 395.291 482.603C395.291 484.87 393.385 486.71 391.007 486.71C388.63 486.71 386.723 484.87 386.723 482.603C386.723 480.335 388.63 478.495 391.007 478.495ZM399.62 471.09C400.923 471.09 401.916 472.032 401.916 473.18C401.916 474.336 400.923 475.271 399.62 475.271C398.368 475.271 397.367 474.336 397.367 473.18C397.367 472.032 398.368 471.09 399.62 471.09ZM400.879 479.857C402.13 479.857 403.124 480.792 403.124 481.947C403.124 483.096 402.13 484.031 400.879 484.031C399.576 484.031 398.582 483.096 398.582 481.947C398.582 480.792 399.576 479.857 400.879 479.857ZM441.608 442.094C442.859 442.094 443.853 443.029 443.853 444.178C443.853 445.333 442.859 446.268 441.608 446.268C440.305 446.268 439.311 445.333 439.311 444.178C439.311 443.029 440.305 442.094 441.608 442.094ZM225.971 7.64154C227.23 7.64154 228.268 8.58376 228.268 9.73209C228.268 10.8804 227.23 11.8226 225.971 11.8226C224.72 11.8226 223.682 10.8804 223.682 9.73209C223.682 8.58376 224.72 7.64154 225.971 7.64154ZM47.6556 123.564C48.907 123.564 49.9008 124.499 49.9008 125.655C49.9008 126.803 48.907 127.745 47.6556 127.745C46.3527 127.745 45.3589 126.803 45.3589 125.655C45.3589 124.499 46.3527 123.564 47.6556 123.564ZM202.555 12.8753C203.814 12.8753 204.852 13.8102 204.852 14.9585C204.852 16.1142 203.814 17.049 202.555 17.049C201.26 17.049 200.266 16.1142 200.266 14.9585C200.266 13.8102 201.26 12.8753 202.555 12.8753ZM230.042 0.0669556C231.301 0.0669556 232.339 1.00182 232.339 2.15751C232.339 3.30584 231.301 4.24071 230.042 4.24071C228.79 4.24071 227.745 3.30584 227.745 2.15751C227.745 1.00182 228.79 0.0669556 230.042 0.0669556ZM8.22214 271.236C9.48089 271.236 10.5188 272.17 10.5188 273.326C10.5188 274.474 9.48089 275.409 8.22214 275.409C6.97075 275.409 5.92547 274.474 5.92547 273.326C5.92547 272.17 6.97075 271.236 8.22214 271.236ZM53.0219 393.54C54.2733 393.54 55.3112 394.475 55.3112 395.631C55.3112 396.787 54.2733 397.722 53.0219 397.722C51.7189 397.722 50.7252 396.787 50.7252 395.631C50.7252 394.475 51.7189 393.54 53.0219 393.54ZM65.5284 420.504C66.824 420.504 67.8251 421.439 67.8251 422.595C67.8251 423.743 66.824 424.678 65.5284 424.678C64.2696 424.678 63.2317 423.743 63.2317 422.595C63.2317 421.439 64.2696 420.504 65.5284 420.504ZM518.561 289.977C519.812 289.977 520.85 290.919 520.85 292.068C520.85 293.223 519.812 294.158 518.561 294.158C517.302 294.158 516.264 293.223 516.264 292.068C516.264 290.919 517.302 289.977 518.561 289.977ZM509.86 195.534C511.111 195.534 512.112 196.469 512.112 197.617C512.112 198.773 511.111 199.708 509.86 199.708C508.557 199.708 507.563 198.773 507.563 197.617C507.563 196.469 508.557 195.534 509.86 195.534ZM480.555 127.422C481.814 127.422 482.852 128.356 482.852 129.505C482.852 130.66 481.814 131.595 480.555 131.595C479.304 131.595 478.266 130.66 478.266 129.505C478.266 128.356 479.304 127.422 480.555 127.422ZM522.322 253.782C524.707 253.782 526.651 255.623 526.651 257.89C526.651 260.157 524.707 261.997 522.322 261.997C519.945 261.997 518.038 260.157 518.038 257.89C518.038 255.623 519.945 253.782 522.322 253.782ZM240.259 2.94515C242.593 2.94515 244.543 4.78543 244.543 7.05265C244.543 9.31987 242.593 11.1602 240.259 11.1602C237.874 11.1602 235.931 9.31987 235.931 7.05265C235.931 4.78543 237.874 2.94515 240.259 2.94515ZM20.1692 258.957C20.1692 257.544 20.1692 256.116 20.1692 254.695C20.1692 123.027 126.817 16.1215 258.22 16.1215C259.95 16.1215 261.724 16.1436 263.454 16.1878C264.926 16.1583 266.354 16.1436 267.826 16.1436C335.041 16.1436 395.549 46.545 437.36 94.8928C484.28 137.462 513.621 197.882 513.621 264.853C513.621 393.636 405.2 498.201 271.676 498.201C236.836 498.201 203.726 491.09 173.774 478.289C84.0121 445.215 20.1692 360.968 20.1692 262.38C20.1692 261.239 20.1692 260.098 20.1692 258.957ZM61.546 152.074C42.201 185.464 31.2035 223.926 31.2035 264.853C31.2035 264.979 31.2035 265.104 31.2035 265.229C32.5506 374.814 111.668 466.003 216.453 487.181C115.047 462.816 39.3449 367.916 39.3449 254.695C39.3449 217.963 47.3096 183.16 61.546 152.074ZM452.9 117.44C447.835 109.983 442.336 102.843 436.499 96.0485C435.586 95.2314 434.681 94.4217 433.768 93.6193C440.651 101.135 447.055 109.092 452.9 117.44ZM235.798 492.238C246.096 493.578 256.616 494.277 267.311 494.277C397.632 494.277 503.411 390.92 503.411 263.609C503.411 223.513 492.937 185.788 474.453 152.928C486.746 180.024 494.276 209.925 495.925 241.445C496.183 245.825 496.271 250.249 496.271 254.695C496.271 256.116 496.271 257.544 496.271 258.957C496.271 260.098 496.271 261.239 496.271 262.38C496.271 266.731 496.139 271.052 495.925 275.343C491.943 346.282 455.542 408.726 401.136 448.373C363.609 476.611 317.558 493.247 267.826 493.247C266.965 493.247 266.097 493.239 265.228 493.232C264.492 493.239 263.756 493.239 263.02 493.239C262.549 493.239 262.07 493.239 261.592 493.239C260.473 493.254 259.346 493.261 258.22 493.261C253.759 493.261 249.343 493.136 244.978 492.893C241.901 492.731 238.831 492.511 235.798 492.238ZM232.596 18.9703C125.168 30.5861 39.2124 114.378 24.0191 220.908C34.6706 163.947 66.9123 114.238 112.227 80.0528C144.911 48.3117 186.457 26.4345 232.596 18.9703ZM457.876 127.466C426.716 85.949 381.703 54.9735 329.549 41.061C412.303 65.4263 475.881 134.083 492.201 219.215C487.18 185.854 475.233 154.761 457.876 127.466ZM415.027 434.13C423.816 426.584 432.038 418.421 439.569 409.705C444.287 404.015 448.748 398.09 452.9 391.95C441.99 407.468 429.27 421.63 415.027 434.13ZM494.799 258.243C492.546 135.74 391.096 36.5339 265.103 33.0447C182.953 35.1795 111.02 77.1083 69.3341 139.553C51.1595 173.657 40.773 212.921 40.773 254.695C40.773 383.794 139.802 488.955 262.762 491.76C390.102 489.353 492.937 385.958 494.799 258.243ZM438.663 377.729C442.38 377.729 445.413 380.739 445.413 384.449C445.413 388.159 442.38 391.17 438.663 391.17C434.983 391.17 431.95 388.159 431.95 384.449C431.95 380.739 434.983 377.729 438.663 377.729ZM345.346 65.7502C346.598 65.7502 347.636 66.6777 347.636 67.8333C347.636 68.989 346.598 69.9239 345.346 69.9239C344.088 69.9239 343.05 68.989 343.05 67.8333C343.05 66.6777 344.088 65.7502 345.346 65.7502ZM431.56 396.904C432.818 396.904 433.856 397.839 433.856 398.995C433.856 400.143 432.818 401.086 431.56 401.086C430.308 401.086 429.27 400.143 429.27 398.995C429.27 397.839 430.308 396.904 431.56 396.904ZM109.371 116.726C110.63 116.726 111.668 117.668 111.668 118.816C111.668 119.972 110.63 120.907 109.371 120.907C108.12 120.907 107.082 119.972 107.082 118.816C107.082 117.668 108.12 116.726 109.371 116.726ZM60.5523 183.616C64.2696 183.616 67.3024 186.627 67.3024 190.344C67.3024 194.047 64.2696 197.058 60.5523 197.058C56.8717 197.058 53.839 194.047 53.839 190.344C53.839 186.627 56.8717 183.616 60.5523 183.616ZM477.655 201.489C480.04 201.489 481.983 203.322 481.983 205.589C481.983 207.856 480.04 209.697 477.655 209.697C475.277 209.697 473.371 207.856 473.371 205.589C473.371 203.322 475.277 201.489 477.655 201.489ZM472.245 186.502C474.585 186.502 476.529 188.349 476.529 190.609C476.529 192.877 474.585 194.717 472.245 194.717C469.867 194.717 467.916 192.877 467.916 190.609C467.916 188.349 469.867 186.502 472.245 186.502ZM95.5249 388.785C97.9026 388.785 99.8533 390.625 99.8533 392.893C99.8533 395.16 97.9026 397 95.5249 397C93.1399 397 91.2408 395.16 91.2408 392.893C91.2408 390.625 93.1399 388.785 95.5249 388.785ZM85.2635 376.08C87.6485 376.08 89.5477 377.92 89.5477 380.18C89.5477 382.447 87.6485 384.288 85.2635 384.288C82.8859 384.288 80.9794 382.447 80.9794 380.18C80.9794 377.92 82.8859 376.08 85.2635 376.08ZM50.1658 272.156C52.5434 272.156 54.4941 273.996 54.4941 276.256C54.4941 278.53 52.5434 280.371 50.1658 280.371C47.7808 280.371 45.8816 278.53 45.8816 276.256C45.8816 273.996 47.7808 272.156 50.1658 272.156ZM67.8692 202.777C69.1206 202.777 70.1585 203.712 70.1585 204.868C70.1585 206.016 69.1206 206.951 67.8692 206.951C66.6105 206.951 65.5726 206.016 65.5726 204.868C65.5726 203.712 66.6105 202.777 67.8692 202.777ZM341.106 54.1417C343.484 54.1417 345.391 55.982 345.391 58.2492C345.391 60.5164 343.484 62.3493 341.106 62.3493C338.721 62.3493 336.778 60.5164 336.778 58.2492C336.778 55.982 338.721 54.1417 341.106 54.1417ZM451.471 366.201C453.849 366.201 455.756 368.042 455.756 370.301C455.756 372.569 453.849 374.416 451.471 374.416C449.094 374.416 447.187 372.569 447.187 370.301C447.187 368.042 449.094 366.201 451.471 366.201ZM256.1 41.1788C257.352 41.1788 258.39 42.1136 258.39 43.262C258.39 44.4177 257.352 45.3525 256.1 45.3525C254.841 45.3525 253.804 44.4177 253.804 43.262C253.804 42.1136 254.841 41.1788 256.1 41.1788ZM198.448 458.686C202.165 458.686 205.198 461.697 205.198 465.407C205.198 469.11 202.165 472.12 198.448 472.12C194.723 472.12 191.735 469.11 191.735 465.407C191.735 461.697 194.723 458.686 198.448 458.686ZM99.5073 120.406C101.841 120.406 103.791 122.247 103.791 124.514C103.791 126.781 101.841 128.621 99.5073 128.621C97.1223 128.621 95.179 126.781 95.179 124.514C95.179 122.247 97.1223 120.406 99.5073 120.406ZM57.6078 205.435C59.9855 205.435 61.9362 207.275 61.9362 209.542C61.9362 211.809 59.9855 213.65 57.6078 213.65C55.2302 213.65 53.3237 211.809 53.3237 209.542C53.3237 207.275 55.2302 205.435 57.6078 205.435ZM485.362 259.414C486.613 259.414 487.651 260.348 487.651 261.504C487.651 262.66 486.613 263.587 485.362 263.587C484.103 263.587 483.065 262.66 483.065 261.504C483.065 260.348 484.103 259.414 485.362 259.414ZM102.665 108.467C105.043 108.467 106.994 110.307 106.994 112.574C106.994 114.834 105.043 116.682 102.665 116.682C100.28 116.682 98.381 114.834 98.381 112.574C98.381 110.307 100.28 108.467 102.665 108.467ZM214.849 469.816C217.234 469.816 219.133 471.657 219.133 473.924C219.133 476.191 217.234 478.024 214.849 478.024C212.471 478.024 210.52 476.191 210.52 473.924C210.52 471.657 212.471 469.816 214.849 469.816ZM351.706 59.4638C352.965 59.4638 354.003 60.3986 354.003 61.5543C354.003 62.71 352.965 63.6449 351.706 63.6449C350.455 63.6449 349.417 62.71 349.417 61.5543C349.417 60.3986 350.455 59.4638 351.706 59.4638ZM203.122 39.2133C169.835 46.9204 139.324 61.4439 113.14 81.179C104.307 89.7695 96.1285 99.0886 88.6865 109.033C118.676 75.695 158.234 50.9911 203.122 39.2133ZM423.381 84.97C397.846 64.9257 367.982 49.8281 335.35 41.1935C379.362 54.0533 418.059 79.059 447.32 112.213C440.003 102.526 432.038 93.4206 423.381 84.97ZM428.358 87.1121C395.593 52.8756 352.877 29.0403 305.177 20.7738C351.014 29.9751 392.134 52.3971 424.375 83.8953C425.722 84.9553 427.062 86.0227 428.358 87.1121ZM200.524 486.416C223.034 493.129 246.921 496.743 271.676 496.743C404.382 496.743 512.156 392.841 512.156 264.853C512.156 202.512 486.569 145.891 445.023 104.205C453.334 114.834 460.732 126.222 467.224 138.25C491.03 174.422 504.84 217.448 504.84 263.609C504.84 391.708 398.405 495.713 267.311 495.713C244.197 495.713 221.82 492.481 200.693 486.452C200.656 486.438 200.568 486.423 200.524 486.416ZM28.2664 316.558C39.816 362.786 65.8302 403.566 101.406 434.13C66.478 403.471 40.5963 362.771 28.2664 316.558ZM413.429 75.7833C372.914 40.4647 320.326 18.72 262.762 17.6306C209.048 18.8599 159.927 39.6035 121.62 73.3395C160.273 46.9867 207.406 31.5136 258.22 31.5136C259.17 31.5136 260.083 31.521 261.032 31.5283C261.68 31.521 262.328 31.521 263.02 31.521C263.542 31.521 264.102 31.521 264.669 31.5283C265.53 31.521 266.398 31.5136 267.311 31.5136C267.871 31.5136 268.43 31.5136 268.953 31.521C269.858 31.5063 270.771 31.5063 271.676 31.5063C324.61 31.5063 373.561 47.9289 413.429 75.7833ZM104.182 88.2678C54.6634 129.519 22.8928 190.3 21.6414 258.243C22.856 340.091 65.5284 411.958 129.541 453.644C69.0765 411.207 29.7313 342.418 29.7313 264.853C29.7313 264.11 29.7313 263.367 29.7313 262.623C29.7313 262.218 29.7313 261.806 29.7313 261.401C29.9963 208.651 48.1267 160.046 78.4692 121.253C86.088 109.468 94.7005 98.4261 104.182 88.2678Z" fill="#D6A553"/>
</g>
<path d="M296.202 247.101H298.587V249.073H255.539V247.101H258.101C261.399 247.101 264.262 245.952 266.699 243.656C269.128 241.344 270.475 238.473 270.732 235.058V183.736H194.354V235.264C194.354 253.674 189.878 266.041 180.927 272.364C176.841 275.264 171.578 277.436 165.145 278.871L164.144 277.104C170.069 273.939 174.449 269.073 177.276 262.5C180.102 255.919 181.516 246.85 181.516 235.264V125.112C181.516 121.697 180.257 118.804 177.747 116.426C175.251 114.056 172.3 112.863 168.884 112.863H166.529V110.891H209.547V112.863H206.985C203.57 112.863 200.64 114.056 198.211 116.426C195.774 118.804 194.486 121.697 194.354 125.112V177.818H270.732V128.675C270.865 111.818 274.626 100.099 282.01 93.5183C286.463 89.5728 292.507 86.7461 300.147 85.0383L301.149 86.805C295.215 89.9703 290.799 94.8433 287.899 101.439C285.013 108.02 283.57 117.096 283.57 128.675V234.675C283.57 238.091 284.785 241.02 287.221 243.449C289.65 245.886 292.646 247.101 296.202 247.101Z" fill="#D6A553"/>
<path d="M260.563 222.427C269.117 218.879 277.346 217.097 285.238 217.097C291.811 217.097 298.591 219.534 305.584 224.399C309.389 227.035 313.659 232.165 318.392 239.799C321.55 245.062 325.562 254.602 330.435 268.419L354.52 336.73C360.056 352.004 365.68 364.143 371.392 373.153C377.119 382.163 382.353 388.935 387.086 393.469C391.834 398.019 396.773 401.213 401.896 403.039C407.035 404.879 411.275 405.807 414.616 405.807C417.973 405.807 420.976 405.542 423.626 405.012L423.803 407.014C417.48 409.112 411.297 410.164 405.253 410.164C399.202 410.164 393.151 408.611 387.086 405.512C381.035 402.428 375.382 398.122 370.126 392.586C358.797 381.14 349.191 363.716 341.3 340.293L333.615 317.768H279.525L265.893 352.924C265.245 354.5 264.921 356.075 264.921 357.665C264.921 359.24 265.605 360.919 266.982 362.7C268.351 364.467 270.493 365.35 273.401 365.35H274.961V367.323H235.3V365.35H237.066C240.224 365.35 243.316 364.4 246.341 362.494C249.382 360.595 251.884 357.724 253.85 353.896L302.816 236.648C295.705 226.519 286.886 221.455 276.345 221.455C271.612 221.455 266.548 222.441 261.152 224.399L260.563 222.427ZM281.675 311.849H331.642L316.036 265.857C313.011 257.046 310.243 250.134 307.733 245.128L281.675 311.849Z" fill="#D6A553"/>
<mask id="mask1_213_1868" style="mask-type:luminance" maskUnits="userSpaceOnUse" x="286" y="180" width="98" height="143">
<path d="M286.908 180.193H383.015V322.939H286.908V180.193Z" fill="white"/>
</mask>
<g mask="url(#mask1_213_1868)">
<path d="M369.877 265.28C369.023 266.384 368.243 267.554 367.219 268.534C367.013 268.747 366.815 268.975 366.631 269.211C366.189 269.748 365.777 270.322 365.225 270.771C365.041 270.941 364.879 271.125 364.731 271.331C363.973 272.273 363.127 273.119 362.199 273.885C361.699 274.305 361.213 274.739 360.72 275.159C359.726 276.005 358.592 276.653 357.532 277.404C356.715 277.978 355.883 278.537 355.059 279.104C354.845 279.237 354.647 279.384 354.463 279.56C353.653 280.378 352.725 281.062 351.857 281.82C351.253 282.343 350.694 282.917 350.112 283.469C349.818 283.742 349.509 283.999 349.222 284.272C348.714 284.75 348.154 285.17 347.661 285.678C347.212 286.141 346.682 286.531 346.181 286.951C345.416 287.599 344.636 288.217 343.929 288.939C343.679 289.181 343.414 289.41 343.141 289.623C341.242 291.198 339.527 292.936 338.15 294.997C337.878 295.416 337.562 295.806 337.245 296.197C336.332 297.345 335.662 298.626 335.235 300.032C335.132 300.37 335.007 300.694 334.897 301.025C334.728 301.555 334.61 302.093 334.558 302.638C334.448 303.734 334.308 304.824 334.168 305.921C333.999 307.209 333.741 308.49 333.403 309.741C333.285 310.175 333.189 310.617 333.123 311.066C332.998 311.913 332.814 312.737 332.563 313.554C331.967 315.571 331.364 317.588 330.723 319.59C330.458 320.348 330.164 321.084 329.825 321.813C329.693 322.086 329.531 322.336 329.332 322.564C329.221 322.667 329.096 322.748 328.956 322.792C328.743 322.895 328.412 322.719 328.353 322.498C328.264 322.203 328.272 321.909 328.397 321.614C329.214 319.885 329.7 318.052 330.237 316.226C330.642 314.835 331.091 313.451 331.422 312.038C331.673 310.97 331.982 309.903 332.129 308.806C332.188 308.416 332.306 308.026 332.379 307.636C332.504 306.995 332.63 306.355 332.733 305.714C332.946 304.382 333.13 303.042 333.351 301.71C333.645 299.929 334.036 298.169 334.249 296.381C334.477 294.496 334.889 292.634 334.948 290.72C334.956 290.278 335.059 289.829 335.132 289.388C335.265 288.541 335.412 287.702 335.346 286.848C335.346 286.693 335.361 286.546 335.383 286.399C335.552 284.5 335.604 282.601 335.537 280.701C335.523 280.598 335.523 280.495 335.537 280.4C335.699 279.502 335.596 278.604 335.552 277.705C335.456 275.946 335.221 274.224 334.72 272.531C334.359 271.331 334.058 270.116 333.815 268.887C333.66 268.048 333.432 267.231 333.123 266.436C332.593 265.03 332.063 263.624 331.371 262.284C330.686 260.944 329.877 259.685 328.92 258.515C328.191 257.632 327.492 256.712 326.807 255.791C326.064 254.783 325.246 253.841 324.363 252.95C323.575 252.184 322.847 251.367 322.162 250.514C321.087 249.13 319.91 247.834 318.813 246.472C318.688 246.318 318.563 246.156 318.445 245.994C317.62 244.801 316.774 243.624 315.971 242.409C315.552 241.783 315.184 241.128 314.882 240.444C314.61 239.803 314.256 239.192 313.918 238.574C313.307 237.425 312.718 236.27 312.306 235.026C312.026 234.216 311.687 233.436 311.29 232.685C310.966 232.008 310.671 231.316 310.429 230.602C309.832 228.953 309.265 227.297 308.699 225.64C308.581 225.309 308.5 224.963 308.419 224.624C308.117 223.358 307.734 222.114 307.514 220.826C307.381 220.09 307.204 219.361 306.998 218.64C306.807 217.911 306.652 217.175 306.542 216.432C306.336 215.202 306.078 213.98 305.806 212.758C305.43 211.095 305.165 209.409 304.871 207.738C304.584 206.111 304.334 204.477 304.061 202.843C304.032 202.541 303.965 202.247 303.877 201.96C303.656 201.341 303.561 200.701 303.472 200.053C303.458 199.957 303.443 199.854 303.421 199.759C303.038 198.309 302.699 196.844 302.383 195.379C302.258 194.834 301.956 194.363 301.661 193.899C301.33 193.399 301.021 192.883 300.704 192.375C300.336 191.787 299.873 191.257 299.424 190.712C298.975 190.174 298.511 189.652 297.929 189.247C297.679 189.078 297.451 188.886 297.237 188.665C296.406 187.782 295.441 187.075 294.344 186.56C294.205 186.494 294.079 186.413 293.962 186.325C292.953 185.574 291.856 184.963 290.738 184.403C290.34 184.197 289.965 183.954 289.538 183.792C288.964 183.572 288.478 183.226 288.095 182.747C287.719 182.283 287.248 181.893 287.042 181.297C286.91 180.922 287.123 180.436 287.513 180.333C287.609 180.311 287.705 180.289 287.808 180.266C287.955 180.244 288.102 180.237 288.257 180.237C288.507 180.237 288.757 180.259 289 180.296C290.531 180.554 292.063 180.811 293.586 181.12C294.227 181.245 294.86 181.407 295.508 181.415C296.244 181.422 296.84 181.79 297.48 182.077C297.524 182.099 297.569 182.121 297.605 182.158C298.172 182.791 298.901 183.262 299.357 183.999C299.571 184.344 299.821 184.661 300.013 185.007C300.859 186.545 301.816 188.018 302.567 189.6C302.795 190.049 302.986 190.506 303.156 190.977C303.318 191.455 303.561 191.89 303.877 192.287C304.532 193.17 305.246 194.01 306.019 194.79C307.168 195.916 308.279 197.064 309.538 198.066C310.164 198.787 310.9 199.383 311.592 200.038C312.504 200.892 313.373 201.783 314.308 202.615C315.397 203.586 316.362 204.661 317.215 205.839C317.694 206.479 318.172 207.12 318.658 207.76C319.704 209.166 320.646 210.646 321.478 212.184C322.037 213.193 322.619 214.179 323.2 215.173C323.259 215.298 323.347 215.32 323.465 215.239C323.546 215.188 323.605 215.114 323.627 215.018C323.649 214.415 323.671 213.818 323.649 213.215C323.612 211.963 323.679 210.712 323.745 209.461C323.782 208.813 323.833 208.165 323.782 207.51C323.767 207.112 323.782 206.715 323.818 206.31C323.87 205.213 323.84 204.109 323.737 203.012C323.664 202.166 323.605 201.312 323.575 200.465C323.531 199.059 323.325 197.675 323.075 196.292C322.861 195.106 322.663 193.921 322.464 192.736C322.302 191.698 322.037 190.682 321.676 189.689C321.286 188.658 320.992 187.598 320.675 186.538C320.528 186.03 320.594 185.544 320.859 185.088C321.029 184.779 321.441 184.609 321.757 184.742C321.941 184.816 322.118 184.897 322.287 185C323.171 185.574 324.01 186.199 324.724 186.987C325.188 187.502 325.703 187.981 326.189 188.481C326.674 188.982 327.072 189.564 327.514 190.108C329.104 192.022 330.171 194.216 331.216 196.446C332.026 198.176 332.637 199.965 333.167 201.805C334.021 204.794 335.022 207.723 336.023 210.668C336.759 212.803 337.392 214.959 338.055 217.109C338.658 219.074 339.247 221.04 339.976 222.961C340.278 223.756 340.499 224.58 340.756 225.39C341.559 227.863 342.317 230.351 343.068 232.847C343.443 234.091 343.958 235.291 344.415 236.505C344.842 237.632 345.232 238.758 345.475 239.943C345.681 240.922 345.99 241.879 346.24 242.851C346.734 244.75 346.962 246.686 347.05 248.644C347.057 248.739 347.05 248.843 347.043 248.946C346.851 250.381 346.675 251.824 346.454 253.259C346.351 253.951 346.181 254.636 346.027 255.32C345.916 255.806 345.799 256.292 345.674 256.77C345.394 257.786 345.107 258.802 344.82 259.811C344.503 260.966 344.084 262.093 343.568 263.182C343.046 264.264 342.589 265.376 342.089 266.465C341.249 268.276 340.381 270.079 339.549 271.905C338.857 273.458 338.283 275.055 337.716 276.66C337.503 277.279 337.194 277.867 337.076 278.5C336.958 279.134 337.054 279.796 337.017 280.444C336.943 281.842 336.921 283.248 336.943 284.647C336.987 287.01 336.722 289.351 336.376 291.677C336.303 292.177 336.2 292.663 336.141 293.164C336.082 293.709 336.045 294.261 336.016 294.813C336.016 294.879 336.104 294.96 336.163 295.026C336.178 295.034 336.266 295.004 336.295 294.967C337.149 294.032 337.782 292.958 338.371 291.854C338.754 291.147 339.063 290.411 339.431 289.697C340.396 287.879 341.036 285.92 341.824 284.029C342.206 283.109 342.486 282.144 342.817 281.202C343.458 279.406 344.15 277.632 344.886 275.88C345.291 274.916 345.674 273.937 345.997 272.935C346.454 271.5 346.94 270.079 347.433 268.659C347.632 268.099 347.874 267.547 348.132 267.002C348.611 265.957 349.148 264.934 349.729 263.948C349.818 263.822 349.899 263.697 349.965 263.565C350.377 262.527 351.047 261.644 351.665 260.738C352.254 259.862 352.659 258.89 353.13 257.948C353.27 257.632 353.439 257.323 353.631 257.028C354.742 255.482 355.832 253.922 357.017 252.427C357.724 251.537 358.452 250.631 359.321 249.866C359.402 249.807 359.468 249.733 359.534 249.66C360.249 248.681 361.213 247.937 362 247.032C362.427 246.546 362.928 246.126 363.406 245.685C364.187 244.978 364.989 244.301 365.74 243.572C366.388 242.946 366.999 242.276 367.565 241.577C368.324 240.635 369.214 239.833 370.054 238.979C370.863 238.162 371.776 237.448 372.475 236.52C373.337 235.828 373.948 234.893 374.787 234.172C375.28 233.745 375.788 233.34 376.325 232.972C377.024 232.494 377.775 232.081 378.475 231.595C378.902 231.294 379.365 231.139 379.844 230.999C380.344 230.852 380.83 230.881 381.316 231.088C381.743 231.227 381.986 231.522 382.037 231.971C382.096 232.368 382.082 232.766 382.001 233.163C381.706 234.636 381.323 236.086 380.867 237.514C380.514 238.559 380.19 239.612 379.939 240.686C379.682 241.805 379.336 242.909 379.019 244.014C378.931 244.301 378.791 244.573 378.688 244.853C378.026 246.686 377.341 248.519 376.701 250.359C376.325 251.448 375.964 252.545 375.677 253.657C375.287 255.166 374.743 256.616 374.146 258.044C373.896 258.699 373.579 259.325 373.219 259.928C372.085 261.702 371.209 263.631 369.877 265.28ZM330.598 259.082C330.605 258.994 330.598 258.898 330.569 258.809C330.524 258.692 330.429 258.684 330.362 258.78C330.355 258.795 330.399 258.861 330.436 258.89C330.502 258.957 330.576 259.016 330.649 259.074C330.598 259.281 330.657 259.45 330.826 259.582C330.937 259.671 331.054 259.759 331.179 259.833C331.172 259.921 331.172 260.009 331.179 260.105C331.187 260.149 331.216 260.179 331.26 260.201C331.297 260.223 331.334 260.23 331.378 260.215C331.444 260.179 331.437 260.098 331.349 260.017C331.283 259.95 331.209 259.906 331.135 259.847C331.194 259.634 331.099 259.472 330.944 259.347C330.841 259.259 330.716 259.17 330.598 259.082ZM330.399 255.239C330.605 255.387 330.767 255.578 330.878 255.806C331.099 256.255 331.341 256.689 331.584 257.124C331.599 257.153 331.665 257.175 331.709 257.183C331.827 257.212 331.908 257.153 331.894 257.021C331.776 255.917 331.511 254.857 331.099 253.826C330.885 253.325 330.664 252.81 330.554 252.273C330.407 251.588 330.223 250.918 329.987 250.256C329.7 249.402 329.479 248.526 329.104 247.702C328.78 246.274 328.117 244.971 327.514 243.653C326.513 241.474 325.475 239.31 324.466 237.131C324.326 236.807 324.201 236.483 324.105 236.145C324.076 236.049 324.069 235.953 324.098 235.85C324.128 235.762 324.179 235.681 324.26 235.622C324.356 235.541 324.459 235.578 324.51 235.696C324.613 235.916 324.724 236.145 324.819 236.373C325.298 237.587 325.835 238.773 326.439 239.928C326.52 240.053 326.608 240.171 326.711 240.274C326.733 240.304 326.807 240.296 326.851 240.282C326.895 240.267 326.917 240.237 326.932 240.193C326.991 239.936 326.917 239.693 326.822 239.464C326.476 238.574 326.115 237.698 325.754 236.814C325.57 236.358 325.342 235.902 325.188 235.431C324.834 234.334 324.385 233.274 323.848 232.251C323.531 231.625 323.237 230.992 322.935 230.359C322.096 228.541 321.242 226.722 320.513 224.86C320.057 223.697 319.505 222.571 319.056 221.4C318.548 220.097 318.106 218.765 317.635 217.44C317.149 216.078 316.685 214.702 316.17 213.347C315.883 212.596 315.596 211.853 315.353 211.087C314.904 209.704 314.337 208.371 313.645 207.09C312.718 205.324 311.754 203.564 310.657 201.893C310.635 201.842 310.627 201.798 310.62 201.746C310.583 201.628 310.62 201.533 310.73 201.503C310.819 201.489 310.951 201.474 311.003 201.518C311.452 201.923 311.893 202.32 312.18 202.865C312.622 203.712 313.152 204.499 313.675 205.294C313.918 205.677 314.131 206.074 314.308 206.487C314.602 207.127 314.83 207.79 315.14 208.415C315.883 209.954 316.369 211.588 316.936 213.185C317.664 215.269 318.32 217.374 319.129 219.42C319.954 221.518 320.668 223.653 321.639 225.692C322.28 227.046 322.81 228.46 323.531 229.777C323.649 229.998 323.745 230.234 323.848 230.462C324.157 231.146 324.451 231.831 324.768 232.516C324.849 232.641 324.952 232.744 325.07 232.832C325.099 232.862 325.18 232.847 325.217 232.832C325.261 232.817 325.283 232.781 325.291 232.736C325.32 232.125 325.107 231.559 324.915 230.992C324.687 230.329 324.393 229.689 324.297 228.99C324.253 228.791 324.194 228.599 324.105 228.415C323.693 227.341 323.244 226.281 322.729 225.25C322.412 224.624 322.111 223.999 321.816 223.366C321.787 223.292 321.838 223.174 321.882 223.093C321.949 222.983 322.184 222.983 322.28 223.079C322.427 223.219 322.545 223.373 322.648 223.542C323.104 224.485 323.531 225.449 323.98 226.399C324.032 226.487 324.091 226.56 324.172 226.619C324.209 226.649 324.253 226.664 324.304 226.664C324.407 226.664 324.481 226.597 324.451 226.472C324.238 225.39 324.076 224.293 323.671 223.263C323.303 222.335 322.906 221.415 322.501 220.502C322.015 219.405 321.5 218.316 321.006 217.219C320.977 217.175 320.97 217.124 320.984 217.079C321.029 216.998 321.08 216.925 321.146 216.866C321.198 216.836 321.242 216.836 321.286 216.866C321.625 217.043 321.735 217.396 321.882 217.705C322.368 218.75 322.825 219.81 323.303 220.856C323.443 221.179 323.634 221.467 323.811 221.776C323.818 221.79 323.899 221.79 323.936 221.776C323.98 221.754 324.024 221.709 324.032 221.673C324.054 220.819 323.951 219.98 323.723 219.163C323.708 219.111 323.693 219.067 323.671 219.015C323.134 217.882 322.773 216.682 322.273 215.534C321.794 214.437 321.19 213.399 320.602 212.354C320.094 211.441 319.439 210.602 318.938 209.674C318.761 209.372 318.563 209.085 318.334 208.813C318.069 208.452 317.775 208.106 317.532 207.731C316.627 206.332 315.449 205.176 314.323 203.962C314.021 203.631 313.704 203.307 313.38 202.998C312.615 202.276 311.827 201.584 311.076 200.848C309.935 199.729 308.853 198.544 307.565 197.587C307.477 197.528 307.403 197.462 307.337 197.388C306.395 196.35 305.313 195.452 304.437 194.356C304.4 194.319 304.363 194.289 304.311 194.267C304.267 194.253 304.208 194.223 304.172 194.245C304.105 194.289 303.995 194.363 304.002 194.422C304.098 195.467 304.186 196.512 304.319 197.558C304.429 198.448 304.599 199.339 304.569 200.244C304.569 200.443 304.591 200.642 304.621 200.841C304.878 202.681 305.048 204.529 305.408 206.347C305.982 209.196 306.284 212.089 307.057 214.9C307.388 216.873 307.808 218.831 308.242 220.789C308.529 222.114 308.824 223.432 309.221 224.728C309.67 226.207 310.2 227.672 310.716 229.137C310.995 229.939 311.29 230.734 311.621 231.522C312.144 232.766 312.733 233.98 313.182 235.254C313.505 236.159 314.021 236.962 314.433 237.823C315.221 239.442 316.045 241.047 317.083 242.527C318.033 243.881 318.872 245.302 319.969 246.553C321.213 247.989 322.434 249.446 323.627 250.926C323.826 251.154 324.032 251.367 324.253 251.566C325.32 252.619 326.314 253.745 327.219 254.945C327.933 255.909 328.684 256.851 329.428 257.794C329.553 257.97 329.722 258.059 329.943 258.066C330.009 257.853 329.891 257.676 329.796 257.521C329.361 256.793 328.956 256.034 328.441 255.357C327.69 254.356 327.006 253.311 326.27 252.295C325.305 250.948 324.54 249.49 323.693 248.077C323.517 247.768 323.362 247.459 323.229 247.127C323.178 246.988 323.141 246.848 323.126 246.7C323.126 246.649 323.141 246.605 323.171 246.561C323.259 246.568 323.391 246.568 323.428 246.627C323.701 247.098 323.958 247.584 324.223 248.07C324.577 248.725 324.93 249.387 325.386 249.991C326.321 251.228 327.256 252.464 328.169 253.716C328.758 254.525 329.383 255.313 329.84 256.211C330.068 256.66 330.318 257.094 330.598 257.514C330.701 257.669 330.892 257.764 331.054 257.882C331.099 257.904 331.15 257.904 331.194 257.882C331.231 257.845 331.246 257.801 331.238 257.749C331.135 257.094 330.797 256.535 330.524 255.946C330.421 255.718 330.333 255.482 330.443 255.225L330.399 255.239ZM344.245 280.333C344.142 280.495 344.032 280.65 343.936 280.812C343.907 280.849 343.922 280.908 343.914 280.952C343.995 280.922 344.091 280.908 344.142 280.849C344.275 280.701 344.334 280.525 344.201 280.341C344.415 280.002 344.694 279.7 344.842 279.325C345.092 278.714 345.467 278.191 345.799 277.632C346.152 277.021 346.446 276.388 346.829 275.799C347.536 274.702 348.279 273.635 349.023 272.567C349.177 272.369 349.339 272.185 349.516 272.015C349.545 271.986 349.612 271.993 349.663 271.979C349.671 272.03 349.707 272.089 349.693 272.126C349.361 272.796 349.001 273.451 348.596 274.076C347.764 275.379 346.829 276.623 346.167 278.037C345.342 279.251 344.842 280.613 344.334 281.975C344.172 282.402 344.069 282.836 343.87 283.241C343.274 284.463 342.876 285.751 342.427 287.025C342.376 287.157 342.427 287.216 342.589 287.187C343.274 286.406 344.076 285.655 344.739 284.772C345.276 284.051 345.821 283.329 346.365 282.615C346.608 282.291 346.829 281.945 347.116 281.673C347.713 281.128 348.162 280.466 348.655 279.833C349.111 279.237 349.531 278.596 350.061 278.074C350.672 277.477 351.194 276.815 351.746 276.16C351.967 275.895 352.225 275.652 352.46 275.394C352.674 275.181 352.873 274.96 353.064 274.724C353.896 273.598 354.787 272.516 355.744 271.485C356.597 270.573 357.245 269.49 358.143 268.607C360.094 266.001 362.037 263.388 363.855 260.687C363.981 260.532 364.091 260.363 364.172 260.179C364.422 259.509 364.857 258.957 365.239 258.375C365.777 257.58 366.329 256.815 366.697 255.924C366.719 255.88 366.748 255.843 366.793 255.821C366.888 255.747 366.991 255.74 367.058 255.828C367.175 255.99 367.161 255.74 367.139 255.939C367.072 256.498 366.829 256.984 366.542 257.462C366.314 257.845 366.027 258.206 365.858 258.618C365.629 259.119 365.35 259.597 365.026 260.039C364.231 261.202 363.429 262.35 362.641 263.513C362.391 263.881 362.199 264.301 361.934 264.662C361.677 265.022 361.353 265.339 361.066 265.685C360.963 265.795 360.889 265.928 360.801 266.045C359.785 267.415 358.769 268.784 357.753 270.146C357.481 270.506 357.223 270.889 356.899 271.198C356.318 271.75 355.847 272.405 355.331 273.009C355.066 273.311 354.838 273.649 354.551 273.922C354.161 274.312 353.808 274.732 353.484 275.181C353.086 275.696 352.696 276.226 352.225 276.675C351.754 277.124 351.327 277.61 350.937 278.132C350.731 278.419 350.51 278.692 350.274 278.949C349.332 279.862 348.603 280.944 347.808 281.968C347.381 282.527 346.999 283.116 346.608 283.697C346.572 283.764 346.601 283.867 346.601 283.955C346.653 283.94 346.719 283.948 346.748 283.918C346.888 283.778 347.013 283.624 347.153 283.477C347.624 282.961 348.147 282.505 348.728 282.107C348.883 282.019 349.015 282.049 349.126 282.196C349.17 282.269 349.222 282.409 349.192 282.461C349.082 282.689 348.934 282.888 348.765 283.064C348.463 283.329 348.11 283.528 347.816 283.793C347.109 284.426 346.343 285 345.843 285.839C345.821 285.876 345.828 285.935 345.813 285.979C345.791 286.068 345.821 286.082 345.902 286.031C346.299 285.817 346.66 285.567 346.991 285.265C347.58 284.721 348.184 284.198 348.78 283.661C350.274 282.328 351.769 281.003 353.263 279.671C353.859 279.141 354.455 278.604 355.096 278.125C355.891 277.514 356.723 276.955 357.576 276.439C358.747 275.755 359.844 274.974 360.859 274.084C361.875 273.2 362.972 272.391 363.782 271.294C363.885 271.184 363.995 271.08 364.113 270.985C364.768 270.3 365.445 269.63 366.071 268.916C366.535 268.394 366.925 267.805 367.374 267.267C367.853 266.693 368.383 266.163 368.854 265.582C369.524 264.765 370.12 263.903 370.65 262.991C371.261 261.901 371.857 260.797 372.461 259.708C373.248 258.302 373.889 256.837 374.374 255.306C374.617 254.54 374.816 253.76 375.111 253.016C375.331 252.457 375.493 251.883 375.655 251.309C375.92 250.396 376.193 249.498 376.546 248.6C377.164 247.024 377.812 245.442 378.21 243.785C378.269 243.543 378.379 243.314 378.453 243.079C378.6 242.652 378.784 242.232 378.865 241.791C379.218 239.921 379.844 238.117 380.433 236.314C380.757 235.261 380.992 234.187 381.139 233.09C381.161 232.847 381.154 232.597 381.125 232.346C381.103 232.096 380.867 231.905 380.617 231.868C380.05 231.765 379.52 231.883 379.041 232.199C378.453 232.582 377.886 232.987 377.297 233.369C375.729 234.385 374.397 235.674 373.16 237.05C372.453 237.83 371.71 238.581 370.952 239.288C369.744 240.436 368.611 241.636 367.499 242.851C366.277 244.183 365.019 245.449 363.671 246.656C362.744 247.488 361.868 248.386 360.977 249.255C360.44 250.057 359.719 250.69 359.056 251.36C358.246 252.177 357.51 253.06 356.855 254.01C356.649 254.297 356.428 254.569 356.222 254.849C355.582 255.747 354.941 256.638 354.301 257.536C354.073 257.867 353.881 258.221 353.719 258.581C353.336 259.457 352.902 260.304 352.424 261.121C351.739 262.232 351.01 263.314 350.37 264.448C349.575 265.847 348.861 267.267 348.309 268.776C347.852 270.043 347.433 271.331 346.976 272.604C346.454 274.062 345.968 275.541 345.342 276.962C344.908 277.97 344.584 279.023 344.194 280.046C344.164 280.12 344.223 280.23 344.245 280.326V280.333ZM334.97 262.247C335.147 262.38 335.213 262.564 335.169 262.777C334.993 263.933 335.096 265.074 335.302 266.215C335.486 267.201 335.64 268.188 335.824 269.174C335.839 269.248 335.927 269.306 335.986 269.373C336.053 269.306 336.17 269.24 336.17 269.174C336.266 267.923 336.362 266.679 336.413 265.427C336.45 264.478 336.435 263.521 336.421 262.571C336.406 261.018 336.413 259.465 336.2 257.926C336.119 257.33 336.06 256.734 336.001 256.137C335.869 254.886 335.795 253.642 335.788 252.383C335.773 252.089 335.736 251.787 335.684 251.493C335.486 249.903 335.191 248.327 335.11 246.723C335.088 246.215 335 245.729 334.845 245.243C334.521 244.286 334.382 243.292 334.227 242.306C333.874 240.031 333.52 237.757 332.968 235.519C332.88 235.173 332.821 234.827 332.755 234.488C332.203 231.478 331.658 228.474 331.084 225.471C330.495 222.424 330.075 219.347 329.81 216.255C329.81 216.1 329.84 215.96 329.899 215.828C329.935 215.754 330.061 215.718 330.149 215.688C330.171 215.681 330.237 215.74 330.252 215.776C330.473 216.395 330.532 217.043 330.613 217.683C330.811 219.17 330.959 220.664 331.268 222.136C331.518 223.314 331.695 224.507 331.901 225.684C332.195 227.37 332.475 229.049 332.777 230.719C332.909 231.514 333.064 232.302 333.226 233.082C333.285 233.377 333.403 233.657 333.454 233.951C333.888 236.417 334.308 238.883 334.735 241.356C334.875 242.144 334.948 242.954 335.184 243.712C335.64 245.162 335.795 246.656 335.949 248.151C336.038 248.997 336.111 249.844 336.244 250.683C336.354 251.375 336.391 252.074 336.435 252.773C336.531 254.319 336.59 255.872 336.84 257.404C336.98 258.243 337.054 259.089 337.054 259.943C337.032 261.143 337.039 262.343 337.105 263.543C337.186 265.147 337.061 266.745 336.921 268.342C336.818 269.594 336.84 270.845 336.855 272.096C336.862 272.14 336.884 272.185 336.929 272.214C337.009 272.185 337.127 272.163 337.164 272.104C337.289 271.883 337.392 271.662 337.473 271.426C337.738 270.668 337.981 269.903 338.239 269.144C338.474 268.438 338.747 267.739 338.96 267.01C339.247 266.053 339.505 265.089 339.748 264.109C340.153 262.461 340.639 260.826 340.697 259.111C340.697 259.008 340.734 258.913 340.742 258.809C340.874 257.271 341.183 255.74 341.08 254.172C341.08 254.128 341.095 254.076 341.11 254.032C341.124 253.885 341.198 253.841 341.33 253.9C341.382 253.914 341.419 253.944 341.448 253.988C341.662 254.459 341.669 254.96 341.632 255.46C341.559 256.653 341.47 257.853 341.345 259.052C341.11 261.091 340.742 263.108 340.219 265.096C339.91 266.31 339.615 267.532 339.159 268.703C338.651 270.006 338.276 271.36 337.878 272.7C337.797 272.98 337.731 273.252 337.804 273.546C337.849 273.524 337.915 273.51 337.93 273.473C338.423 272.435 338.909 271.39 339.387 270.352C339.976 269.078 340.558 267.812 341.139 266.539C341.787 265.125 342.435 263.719 343.068 262.306C343.311 261.754 343.524 261.194 343.708 260.62C344.054 259.524 344.356 258.412 344.694 257.315C345.018 256.307 345.269 255.291 345.453 254.253C345.541 253.708 345.629 253.164 345.74 252.626C345.983 251.493 346.064 250.344 346.167 249.203C346.226 248.497 346.196 247.797 346.078 247.105C346.005 246.612 345.931 246.112 345.894 245.611C345.828 244.706 345.681 243.822 345.438 242.954C345.077 241.651 344.746 240.333 344.393 239.03C344.164 238.213 343.892 237.411 343.583 236.616C343.325 235.968 343.09 235.305 342.869 234.636C342.516 233.546 342.155 232.449 341.831 231.345C341.294 229.52 340.675 227.724 340.094 225.913C339.924 225.39 339.77 224.853 339.586 224.337C338.894 222.409 338.276 220.451 337.679 218.485C337.532 218.007 337.348 217.543 337.23 217.057C336.862 215.6 336.457 214.157 335.891 212.766C335.736 212.398 335.618 212.008 335.5 211.632C335.287 210.962 335.096 210.285 334.867 209.623C334.551 208.673 334.19 207.738 333.881 206.789C333.373 205.213 332.931 203.623 332.438 202.048C331.894 200.333 331.452 198.581 330.576 196.991C330.532 196.903 330.502 196.799 330.465 196.711C329.589 194.738 328.471 192.891 327.256 191.117C327.087 190.866 326.895 190.631 326.697 190.41C325.754 189.365 324.819 188.327 323.863 187.304C323.281 186.663 322.604 186.17 321.816 185.817C321.654 185.75 321.374 185.949 321.397 186.126C321.411 186.376 321.448 186.626 321.5 186.869C321.639 187.348 321.824 187.819 321.978 188.29C322.324 189.335 322.67 190.388 323.001 191.433C323.104 191.72 323.163 192.007 323.185 192.309C323.185 192.817 323.31 193.296 323.399 193.789C323.59 194.878 323.759 195.96 324.01 197.035C324.061 197.329 324.098 197.631 324.105 197.933C324.216 199.229 324.282 200.524 324.429 201.82C324.54 202.968 324.591 204.116 324.577 205.265C324.591 208.673 324.385 212.074 324.451 215.482C324.481 216.778 324.518 218.08 324.635 219.376C324.775 220.775 324.908 222.166 325.136 223.55C325.445 225.427 325.725 227.311 326.005 229.196C326.115 229.932 326.218 230.675 326.314 231.426C326.387 231.971 326.387 232.523 326.49 233.068C326.785 234.643 327.116 236.211 327.44 237.779C327.492 238.022 327.595 238.25 327.661 238.493C328.117 240.083 328.596 241.665 329.023 243.255C329.575 245.287 330.031 247.341 330.767 249.314C330.819 249.454 330.848 249.601 330.885 249.748C331.157 250.764 331.386 251.794 331.702 252.795C332.085 253.988 332.46 255.173 332.733 256.402C333.204 258.449 333.822 260.458 334.315 262.505C334.33 262.549 334.352 262.593 334.382 262.637C334.433 262.74 334.536 262.777 334.624 262.689C334.772 262.549 334.889 262.387 335.015 262.24L334.97 262.247ZM293.093 184.624C293.189 184.58 293.27 184.529 293.351 184.462C293.586 184.19 293.873 184.183 294.153 184.359C294.492 184.565 294.823 184.794 295.147 185.036C295.964 185.684 296.759 186.361 297.532 187.068C298.386 187.856 299.129 188.717 299.865 189.593C300.013 189.733 300.123 189.895 300.204 190.079C300.417 190.668 300.903 191.05 301.242 191.536C301.279 191.603 301.411 191.603 301.499 191.632C301.514 191.58 301.529 191.529 301.529 191.477C301.419 190.933 301.264 190.395 300.896 189.983C300.233 189.232 299.74 188.342 298.96 187.694C298.886 187.628 298.849 187.539 298.835 187.436C298.835 187.348 298.857 187.259 298.901 187.179C298.908 187.156 298.997 187.164 299.041 187.179C299.387 187.304 299.622 187.569 299.836 187.841C300.094 188.15 300.336 188.467 300.69 188.665C300.778 188.688 300.859 188.688 300.94 188.658C300.962 188.614 300.969 188.57 300.955 188.518C300.543 187.723 300.16 186.899 299.696 186.133C299.269 185.456 298.798 184.808 298.29 184.197C297.473 183.204 296.494 182.489 295.139 182.379C294.286 182.313 293.454 182.166 292.629 181.945C291.606 181.665 290.568 181.562 289.538 181.363C289.243 181.312 288.949 181.297 288.647 181.304C288.573 181.304 288.485 181.4 288.419 181.466C288.397 181.51 288.397 181.555 288.419 181.599C288.824 182.313 289.354 182.88 290.178 183.123C290.414 183.189 290.627 183.336 290.855 183.454C291.209 183.638 291.562 183.822 291.923 183.999C292.328 184.19 292.666 184.499 293.093 184.624ZM337.378 274.739C337.444 274.643 337.429 274.592 337.341 274.621C337.319 274.629 337.311 274.687 337.297 274.717L337.378 274.739Z" fill="#D6A553"/>
</g>
<path d="M337.001 229.821C337.097 229.932 337.178 230.049 337.244 230.182C337.826 231.558 338.429 232.928 338.878 234.363C338.893 234.407 338.908 234.459 338.923 234.503C339.099 235.6 339.475 236.63 339.835 237.668C339.88 237.808 339.916 237.955 339.946 238.102C340.549 241.297 341.109 244.492 341.514 247.716C341.543 248.01 341.558 248.312 341.565 248.614C341.58 249.262 341.58 249.91 341.698 250.55C341.72 250.749 341.72 250.948 341.69 251.146C341.683 251.316 341.595 251.426 341.433 251.47C341.256 251.507 341.138 251.433 341.087 251.257C341.043 251.117 341.006 250.977 340.976 250.83C340.903 250.337 340.851 249.836 340.829 249.335C340.822 248.585 340.755 247.841 340.63 247.105C340.594 246.958 340.571 246.811 340.571 246.656C340.608 245.648 340.329 244.683 340.24 243.69C340.233 243.586 340.225 243.491 340.203 243.388C340.012 242.46 339.718 241.555 339.629 240.605C339.534 239.656 339.239 238.75 339.062 237.823C338.974 237.33 338.783 236.858 338.643 236.38C338.201 234.849 337.804 233.303 337.274 231.794C337.06 231.176 336.854 230.565 336.641 229.954C336.641 229.902 336.663 229.865 336.707 229.836C336.803 229.829 336.906 229.821 337.001 229.821Z" fill="#D6A553"/>
<path d="M325.71 192.684C325.755 192.714 325.813 192.736 325.828 192.773C325.894 192.905 325.946 193.045 325.99 193.185C326.358 194.333 326.726 195.474 327.08 196.615C327.197 196.998 327.286 197.388 327.367 197.786C327.514 198.522 327.691 199.243 327.904 199.964C328.191 200.921 328.39 201.893 328.508 202.887C328.655 204.028 328.817 205.161 328.912 206.31C328.912 206.457 328.883 206.597 328.831 206.737C328.824 206.766 328.758 206.788 328.714 206.796C328.67 206.796 328.625 206.781 328.589 206.751C328.544 206.722 328.515 206.685 328.493 206.641C328.412 206.457 328.36 206.266 328.324 206.067C328.235 204.617 327.838 203.211 327.639 201.783C327.602 201.532 327.558 201.289 327.492 201.046C326.837 198.485 326.373 195.864 325.467 193.369C325.401 193.177 325.35 192.971 325.475 192.795C325.519 192.736 325.629 192.721 325.71 192.684Z" fill="#D6A553"/>
<path d="M329.766 213.259C329.729 213.288 329.685 213.31 329.64 213.318C329.596 213.318 329.552 213.303 329.523 213.281C329.478 213.251 329.449 213.215 329.427 213.163C329.103 212.221 328.926 211.249 328.904 210.248C328.904 210.174 329 210.086 329.066 210.027C329.162 209.954 329.383 210.064 329.412 210.211C329.559 211.139 329.891 212.037 329.869 212.986C329.854 213.082 329.817 213.178 329.766 213.259Z" fill="#D6A553"/>
<path d="M335.012 262.239C334.982 262.151 334.916 262.063 334.923 261.982C334.938 261.901 335.034 261.864 335.092 261.805C335.114 261.827 335.158 261.849 335.158 261.872C335.166 261.923 335.166 261.967 335.144 262.011C335.085 262.092 335.034 262.173 334.967 262.246L335.012 262.239Z" fill="#D6A553"/>
<path d="M376.521 238.198C376.705 237.793 376.874 237.381 377.065 236.983C377.102 236.917 377.235 236.888 377.323 236.873C377.441 236.866 377.617 237.087 377.588 237.182C377.573 237.278 377.551 237.374 377.507 237.462C376.83 238.618 376.292 239.862 375.468 240.936C375.402 241.01 375.35 241.098 375.313 241.187C374.938 242.18 374.32 243.027 373.768 243.91C373.628 244.116 373.517 244.337 373.414 244.565C373.142 245.213 372.722 245.773 372.303 246.332C372.229 246.435 372.119 246.435 372.074 246.354C372.023 246.273 372.001 246.177 372.008 246.082C372.016 245.986 372.052 245.89 372.104 245.809C372.722 244.727 373.348 243.653 373.966 242.578C374.055 242.453 374.121 242.32 374.172 242.18C374.364 241.54 374.769 241.032 375.122 240.495C375.615 239.751 376.13 239.015 376.521 238.198Z" fill="#D6A553"/>
<path d="M369.425 250.484C369.565 250.351 369.668 250.241 369.778 250.145C369.815 250.116 369.852 250.108 369.903 250.116C370.014 250.16 370.073 250.248 370.029 250.344C369.469 251.5 368.91 252.648 368.343 253.804C368.321 253.855 368.284 253.892 368.232 253.907C368.144 253.944 368.056 253.951 367.96 253.936C367.879 253.892 367.82 253.826 367.791 253.73C367.754 253.634 367.761 253.539 367.798 253.443C368.343 252.435 368.895 251.448 369.425 250.484Z" fill="#D6A553"/>
<path d="M329.722 253.612C329.288 253.163 328.979 252.67 329.075 252.008L329.016 252.022C329.332 252.317 329.501 252.7 329.671 253.09C329.759 253.266 329.759 253.443 329.671 253.62L329.722 253.612Z" fill="#D6A553"/>
<path d="M330.448 255.224C330.094 254.974 329.896 254.658 330.072 254.209L330.021 254.223C330.323 254.496 330.499 254.812 330.396 255.239L330.448 255.224Z" fill="#D6A553"/>
<path d="M328.713 251.404C328.529 251.242 328.411 251.051 328.359 250.815C328.352 250.764 328.337 250.69 328.359 250.675C328.47 250.602 328.551 250.631 328.595 250.756C328.698 250.97 328.786 251.183 328.668 251.419L328.713 251.404Z" fill="#D6A553"/>
<path d="M328.656 251.419C328.877 251.559 329.032 251.735 329.01 252.022L329.068 252.008C328.855 251.86 328.686 251.684 328.708 251.404L328.656 251.419Z" fill="#D6A553"/>
<path d="M329.676 253.62C329.889 253.767 330.081 253.921 330.022 254.223L330.073 254.208C329.838 254.076 329.668 253.907 329.72 253.612L329.676 253.62Z" fill="#D6A553"/>
<path d="M68.2194 310.386H64.4324L63.2863 313.774H60.8945L64.9556 302.488H67.7959L71.7822 313.774H69.3156L68.2194 310.386ZM66.3259 304.431L64.9805 308.592H67.6464L66.3259 304.431Z" fill="#D6A553"/>
<path d="M92.2662 311.981V313.774H84.1191V302.488H92.1167V304.257H86.3864V307.247H91.6932V309.016H86.3864V311.981H92.2662Z" fill="#D6A553"/>
<path d="M108.932 302.264C110.209 302.264 111.187 302.588 111.872 303.235C112.551 303.883 112.956 304.749 113.093 305.827H110.776C110.708 305.229 110.508 304.774 110.178 304.456C109.86 304.126 109.412 303.958 108.833 303.958C108.366 303.958 107.986 304.076 107.687 304.307C107.4 304.525 107.263 304.855 107.263 305.303C107.263 305.771 107.438 306.144 107.786 306.425C108.135 306.692 108.758 306.935 109.655 307.147C110.882 307.434 111.785 307.863 112.371 308.443C112.95 309.009 113.243 309.751 113.243 310.66C113.243 311.694 112.832 312.504 112.022 313.102C111.225 313.7 110.24 313.999 109.082 313.999C107.718 313.999 106.622 313.7 105.793 313.102C104.977 312.491 104.523 311.601 104.423 310.436H106.715C106.827 311.034 107.095 311.501 107.512 311.831C107.942 312.167 108.459 312.329 109.057 312.329C109.568 312.329 110.004 312.198 110.353 311.931C110.714 311.669 110.901 311.326 110.901 310.909C110.901 310.43 110.726 310.037 110.377 309.738C110.041 309.439 109.462 309.19 108.633 308.991C107.369 308.692 106.428 308.293 105.818 307.795C105.201 307.284 104.896 306.543 104.896 305.577C104.896 304.568 105.282 303.759 106.067 303.161C106.846 302.563 107.799 302.264 108.932 302.264Z" fill="#D6A553"/>
<path d="M134.932 304.257H131.095V313.774H128.852V304.257H125.016V302.488H134.932V304.257Z" fill="#D6A553"/>
<path d="M157.041 302.488V313.774H154.799V309.14H149.517V313.774H147.25V302.488H149.517V307.346H154.799V302.488H157.041Z" fill="#D6A553"/>
<path d="M178.671 311.98V313.774H170.524V302.488H178.522V304.257H172.792V307.247H178.098V309.016H172.792V311.98H178.671Z" fill="#D6A553"/>
<path d="M200.415 304.257H196.578V313.774H194.336V304.257H190.499V302.488H200.415V304.257Z" fill="#D6A553"/>
<path d="M215.005 313.774H212.737V302.488H215.005V313.774Z" fill="#D6A553"/>
<path d="M233.346 302.264C234.804 302.264 235.95 302.625 236.785 303.335C237.613 304.051 238.086 304.992 238.205 306.15L238.23 306.325H235.962L235.938 306.15C235.639 304.693 234.754 303.958 233.297 303.958C232.381 303.958 231.64 304.325 231.079 305.054C230.531 305.789 230.257 306.792 230.257 308.069C230.257 309.433 230.531 310.486 231.079 311.233C231.64 311.968 232.375 312.329 233.272 312.329C233.982 312.329 234.555 312.13 234.991 311.731C235.439 311.32 235.738 310.753 235.888 310.037L235.913 309.863H238.155L238.13 310.037C238.012 311.252 237.513 312.217 236.635 312.927C235.751 313.644 234.598 313.999 233.172 313.999C231.577 313.999 230.288 313.475 229.31 312.429C228.345 311.383 227.865 309.975 227.865 308.193C227.865 306.387 228.376 304.948 229.41 303.883C230.438 302.806 231.752 302.264 233.346 302.264Z" fill="#D6A553"/>
<path d="M313.099 153.374V166.712H310.066V161.353H304.236V166.712H301.203V153.374H304.236V158.968H310.066V153.374H313.099Z" fill="#D6A553"/>
<path d="M335.25 161.56V166.712H332.217V161.619L327.506 153.374H330.921L333.836 158.939L336.604 153.374H339.931L335.25 161.56Z" fill="#D6A553"/>
<path d="M360.768 153.433C361.784 153.551 362.719 153.86 363.565 154.346C364.404 154.839 365.074 155.538 365.567 156.436C366.075 157.342 366.333 158.483 366.333 159.852C366.333 161.228 366.075 162.406 365.567 163.385C365.074 164.349 364.397 165.108 363.536 165.652C362.689 166.182 361.754 166.506 360.739 166.624C360.4 166.668 360.128 166.698 359.914 166.712C359.693 166.712 359.399 166.712 359.031 166.712H354.261V153.374H359.06C359.414 153.374 359.693 153.374 359.914 153.374C360.15 153.374 360.429 153.396 360.768 153.433ZM360.002 164.298C360.945 164.202 361.695 163.768 362.27 163.002C362.836 162.222 363.124 161.191 363.124 159.911C363.124 158.637 362.836 157.658 362.27 156.966C361.718 156.282 360.974 155.891 360.032 155.788C359.796 155.752 359.575 155.729 359.384 155.729C359.185 155.729 358.95 155.729 358.677 155.729H357.294V164.327H358.648C358.92 164.327 359.156 164.327 359.355 164.327C359.568 164.327 359.782 164.32 360.002 164.298Z" fill="#D6A553"/>
<path d="M391.528 163.415C391.601 164.202 391.712 164.85 391.852 165.358C392.006 165.873 392.22 166.322 392.499 166.712H389.202C389.025 166.241 388.885 165.792 388.789 165.358C388.686 164.931 388.613 164.431 388.554 163.856C388.451 163.15 388.259 162.59 387.965 162.178C387.685 161.766 387.302 161.545 386.817 161.501C386.64 161.486 386.463 161.471 386.287 161.471C386.11 161.471 385.933 161.471 385.757 161.471H384.549V166.712H381.517V153.374H386.581C386.971 153.374 387.317 153.389 387.612 153.404C387.921 153.404 388.245 153.426 388.583 153.462C389.231 153.543 389.82 153.713 390.35 153.963C390.895 154.221 391.329 154.596 391.645 155.082C391.977 155.575 392.146 156.216 392.146 156.996C392.146 157.864 391.91 158.571 391.439 159.116C390.968 159.646 390.32 160.043 389.496 160.294C390.159 160.529 390.644 160.912 390.939 161.442C391.248 161.972 391.447 162.634 391.528 163.415ZM384.549 159.234H386.11C386.323 159.234 386.507 159.234 386.669 159.234C386.846 159.234 387.001 159.234 387.14 159.234C387.626 159.175 388.053 159.02 388.407 158.762C388.775 158.512 388.966 158.085 388.966 157.496C388.966 156.893 388.797 156.466 388.465 156.23C388.149 155.98 387.744 155.818 387.258 155.759C387.118 155.744 386.964 155.73 386.787 155.73C386.625 155.73 386.441 155.73 386.228 155.73H384.549V159.234Z" fill="#D6A553"/>
<path d="M414.723 162.944H410.365L409.128 166.712H405.919L410.718 153.374H414.487L419.228 166.712H415.96L414.723 162.944ZM412.573 155.995L411.131 160.559H413.987L412.573 155.995Z" fill="#D6A553"/>
<mask id="mask2_213_1868" style="mask-type:luminance" maskUnits="userSpaceOnUse" x="137" y="125" width="79" height="118">
<path d="M137.258 125.418H215.897V242.725H137.258V125.418Z" fill="white"/>
</mask>
<g mask="url(#mask2_213_1868)">
<path d="M147.712 195.342C148.412 196.247 149.059 197.219 149.899 198.014C150.068 198.19 150.23 198.382 150.384 198.573C150.753 199.015 151.084 199.486 151.54 199.854C151.695 199.994 151.827 200.148 151.945 200.318C152.571 201.091 153.263 201.79 154.028 202.416C154.433 202.762 154.838 203.115 155.243 203.461C156.06 204.16 156.987 204.69 157.856 205.309C158.533 205.78 159.218 206.236 159.895 206.707C160.064 206.81 160.234 206.935 160.381 207.075C161.051 207.752 161.816 208.319 162.523 208.938C163.024 209.365 163.48 209.843 163.958 210.292C164.201 210.513 164.452 210.726 164.694 210.947C165.107 211.345 165.57 211.691 165.975 212.11C166.343 212.486 166.778 212.81 167.19 213.156C167.816 213.686 168.463 214.193 169.038 214.782C169.244 214.981 169.464 215.172 169.693 215.349C171.246 216.645 172.659 218.073 173.785 219.766C174.014 220.112 174.271 220.436 174.529 220.752C175.28 221.702 175.832 222.747 176.185 223.903C176.274 224.182 176.369 224.447 176.458 224.72C176.605 225.154 176.7 225.596 176.745 226.045C176.833 226.95 176.951 227.848 177.061 228.739C177.201 229.806 177.407 230.852 177.694 231.882C177.79 232.243 177.864 232.604 177.922 232.972C178.025 233.664 178.173 234.348 178.379 235.018C178.872 236.674 179.365 238.331 179.895 239.972C180.109 240.598 180.352 241.209 180.631 241.805C180.742 242.026 180.874 242.232 181.036 242.423C181.124 242.504 181.228 242.571 181.345 242.615C181.522 242.696 181.787 242.548 181.839 242.372C181.919 242.121 181.905 241.879 181.809 241.643C181.132 240.222 180.734 238.713 180.293 237.212C179.961 236.071 179.593 234.93 179.321 233.767C179.108 232.891 178.857 232.015 178.739 231.117C178.695 230.793 178.592 230.476 178.533 230.152C178.43 229.622 178.327 229.1 178.246 228.57C178.07 227.473 177.915 226.376 177.731 225.287C177.488 223.822 177.172 222.372 176.995 220.907C176.804 219.354 176.465 217.822 176.421 216.255C176.413 215.886 176.325 215.518 176.274 215.15C176.163 214.458 176.045 213.774 176.097 213.067C176.097 212.942 176.082 212.817 176.06 212.699C175.928 211.139 175.883 209.578 175.935 208.017C175.95 207.937 175.95 207.848 175.935 207.767C175.802 207.031 175.891 206.295 175.928 205.559C176.001 204.116 176.2 202.695 176.605 201.304C176.907 200.318 177.157 199.324 177.356 198.308C177.481 197.624 177.672 196.946 177.915 196.291C178.357 195.143 178.791 193.98 179.365 192.883C179.925 191.779 180.594 190.748 181.375 189.784C181.978 189.055 182.553 188.304 183.112 187.546C183.723 186.714 184.393 185.942 185.122 185.213C185.769 184.58 186.366 183.91 186.932 183.211C187.816 182.07 188.78 181.01 189.685 179.883C189.789 179.758 189.892 179.626 189.98 179.493C190.664 178.514 191.356 177.542 192.012 176.549C192.365 176.033 192.659 175.496 192.91 174.929C193.138 174.407 193.425 173.899 193.705 173.391C194.205 172.449 194.691 171.499 195.03 170.476C195.258 169.821 195.538 169.173 195.861 168.555C196.134 168.002 196.369 167.428 196.575 166.847C197.061 165.492 197.525 164.123 197.996 162.769C198.092 162.496 198.158 162.209 198.224 161.93C198.467 160.892 198.784 159.868 198.968 158.816C199.078 158.205 199.218 157.609 199.395 157.012C199.549 156.416 199.674 155.812 199.763 155.202C199.932 154.186 200.146 153.185 200.374 152.176C200.676 150.814 200.896 149.43 201.139 148.054C201.375 146.714 201.581 145.374 201.802 144.035C201.831 143.784 201.883 143.542 201.956 143.306C202.14 142.798 202.214 142.275 202.288 141.738C202.302 141.657 202.31 141.576 202.332 141.495C202.641 140.303 202.928 139.103 203.186 137.903C203.289 137.447 203.532 137.064 203.782 136.681C204.047 136.269 204.305 135.849 204.562 135.43C204.864 134.944 205.247 134.509 205.615 134.068C205.983 133.626 206.366 133.192 206.844 132.861C207.05 132.721 207.242 132.559 207.411 132.382C208.096 131.653 208.883 131.072 209.789 130.645C209.899 130.593 210.009 130.527 210.105 130.453C210.93 129.842 211.835 129.342 212.755 128.878C213.086 128.709 213.388 128.503 213.742 128.378C214.213 128.194 214.61 127.907 214.927 127.516C215.236 127.134 215.626 126.81 215.795 126.324C215.898 126.015 215.722 125.617 215.405 125.536C215.324 125.514 215.243 125.492 215.162 125.477C215.044 125.463 214.919 125.455 214.794 125.455C214.588 125.455 214.382 125.47 214.183 125.499C212.924 125.713 211.666 125.926 210.414 126.177C209.892 126.287 209.369 126.412 208.839 126.42C208.228 126.427 207.735 126.729 207.212 126.964C207.175 126.986 207.139 127.008 207.109 127.038C206.645 127.553 206.042 127.943 205.666 128.547C205.49 128.827 205.291 129.084 205.129 129.371C204.437 130.637 203.649 131.852 203.031 133.148C202.847 133.516 202.685 133.891 202.545 134.281C202.413 134.671 202.214 135.032 201.956 135.356C201.419 136.085 200.83 136.769 200.197 137.41C199.255 138.337 198.342 139.279 197.304 140.111C196.789 140.7 196.185 141.193 195.611 141.723C194.868 142.43 194.154 143.159 193.381 143.843C192.49 144.646 191.695 145.529 190.988 146.493C190.598 147.023 190.208 147.546 189.811 148.076C188.949 149.232 188.176 150.446 187.492 151.712C187.028 152.537 186.55 153.347 186.079 154.164C186.027 154.267 185.953 154.289 185.858 154.215C185.791 154.178 185.747 154.112 185.725 154.038C185.71 153.545 185.688 153.052 185.703 152.559C185.733 151.528 185.681 150.498 185.629 149.475C185.593 148.937 185.556 148.407 185.6 147.87C185.607 147.539 185.6 147.215 185.571 146.883C185.526 145.978 185.549 145.073 185.637 144.175C185.696 143.475 185.74 142.776 185.762 142.077C185.806 140.921 185.975 139.78 186.174 138.646C186.351 137.675 186.52 136.703 186.682 135.724C186.815 134.87 187.028 134.038 187.33 133.221C187.646 132.375 187.897 131.506 188.154 130.637C188.272 130.218 188.221 129.82 188 129.438C187.86 129.187 187.521 129.047 187.264 129.158C187.109 129.217 186.962 129.283 186.822 129.371C186.101 129.842 185.409 130.35 184.827 130.998C184.444 131.425 184.017 131.823 183.62 132.227C183.222 132.64 182.899 133.118 182.53 133.567C181.228 135.135 180.352 136.946 179.49 138.772C178.828 140.192 178.32 141.672 177.886 143.173C177.179 145.632 176.362 148.047 175.537 150.461C174.934 152.213 174.411 153.987 173.866 155.761C173.373 157.366 172.887 158.985 172.291 160.56C172.041 161.216 171.864 161.893 171.643 162.563C170.988 164.594 170.363 166.641 169.752 168.687C169.442 169.71 169.015 170.697 168.64 171.698C168.287 172.618 167.97 173.553 167.764 174.524C167.602 175.327 167.352 176.114 167.138 176.909C166.734 178.47 166.549 180.06 166.476 181.672C166.469 181.753 166.476 181.834 166.483 181.915C166.638 183.1 166.785 184.285 166.962 185.463C167.05 186.03 167.19 186.597 167.315 187.156C167.403 187.561 167.499 187.958 167.609 188.349C167.838 189.188 168.073 190.02 168.309 190.844C168.566 191.801 168.912 192.728 169.332 193.619C169.766 194.51 170.142 195.423 170.554 196.313C171.246 197.808 171.96 199.287 172.637 200.789C173.211 202.062 173.682 203.38 174.146 204.698C174.323 205.206 174.573 205.691 174.669 206.207C174.764 206.729 174.691 207.274 174.72 207.804C174.779 208.96 174.801 210.108 174.779 211.264C174.742 213.2 174.963 215.121 175.25 217.042C175.309 217.447 175.39 217.852 175.442 218.257C175.493 218.706 175.515 219.162 175.545 219.611C175.545 219.67 175.471 219.736 175.42 219.788C175.412 219.795 175.339 219.773 175.309 219.744C174.617 218.978 174.095 218.087 173.601 217.182C173.292 216.608 173.042 215.997 172.733 215.415C171.945 213.914 171.415 212.309 170.767 210.756C170.458 209.998 170.23 209.203 169.95 208.43C169.428 206.957 168.861 205.5 168.257 204.057C167.919 203.262 167.609 202.46 167.344 201.635C166.969 200.458 166.564 199.287 166.159 198.124C165.997 197.66 165.799 197.204 165.585 196.762C165.188 195.901 164.753 195.062 164.268 194.245C164.201 194.149 164.135 194.039 164.076 193.936C163.738 193.082 163.185 192.36 162.685 191.61C162.199 190.888 161.868 190.093 161.478 189.32C161.36 189.055 161.227 188.805 161.065 188.562C160.153 187.296 159.262 186.008 158.29 184.786C157.701 184.05 157.105 183.306 156.391 182.681C156.325 182.629 156.266 182.57 156.214 182.504C155.626 181.702 154.838 181.091 154.19 180.347C153.837 179.95 153.425 179.604 153.034 179.243C152.394 178.661 151.732 178.102 151.113 177.506C150.583 176.99 150.083 176.438 149.612 175.864C148.993 175.091 148.264 174.429 147.573 173.729C146.91 173.052 146.152 172.471 145.585 171.712C144.871 171.138 144.37 170.373 143.679 169.777C143.274 169.423 142.854 169.099 142.42 168.79C141.838 168.4 141.22 168.061 140.653 167.664C140.3 167.414 139.917 167.288 139.527 167.171C139.115 167.053 138.71 167.075 138.32 167.244C137.966 167.362 137.768 167.598 137.723 167.966C137.672 168.297 137.687 168.621 137.753 168.952C137.996 170.159 138.305 171.352 138.688 172.53C138.975 173.383 139.24 174.245 139.446 175.135C139.659 176.056 139.939 176.961 140.204 177.866C140.27 178.102 140.388 178.323 140.476 178.558C141.021 180.06 141.581 181.569 142.103 183.078C142.42 183.976 142.714 184.874 142.95 185.794C143.266 187.031 143.715 188.223 144.201 189.401C144.415 189.939 144.672 190.454 144.974 190.947C145.902 192.405 146.623 193.995 147.712 195.342ZM179.991 190.255C179.991 190.174 179.998 190.101 180.02 190.027C180.057 189.931 180.138 189.924 180.19 189.997C180.197 190.012 180.16 190.071 180.131 190.093C180.072 190.145 180.013 190.196 179.954 190.24C179.998 190.417 179.947 190.557 179.807 190.66C179.719 190.734 179.623 190.807 179.52 190.866C179.527 190.94 179.527 191.013 179.52 191.087C179.512 191.124 179.483 191.153 179.454 191.175C179.424 191.19 179.387 191.197 179.358 191.183C179.299 191.153 179.306 191.087 179.38 191.021C179.431 190.969 179.498 190.932 179.557 190.881C179.505 190.704 179.586 190.572 179.711 190.469C179.799 190.395 179.895 190.321 179.991 190.255ZM180.16 187.09C179.991 187.215 179.858 187.37 179.77 187.561C179.586 187.922 179.387 188.282 179.189 188.643C179.174 188.665 179.122 188.68 179.085 188.687C178.982 188.717 178.916 188.665 178.931 188.555C179.027 187.649 179.247 186.781 179.586 185.934C179.763 185.515 179.939 185.095 180.028 184.653C180.153 184.094 180.307 183.542 180.499 182.997C180.734 182.298 180.918 181.576 181.228 180.899C181.493 179.721 182.03 178.654 182.53 177.572C183.355 175.783 184.209 174.002 185.041 172.213C185.151 171.948 185.254 171.676 185.335 171.403C185.357 171.322 185.357 171.241 185.342 171.16C185.313 171.079 185.269 171.021 185.203 170.969C185.129 170.91 185.041 170.932 184.996 171.028C184.908 171.212 184.827 171.403 184.746 171.587C184.349 172.588 183.907 173.56 183.414 174.51C183.348 174.613 183.274 174.708 183.186 174.797C183.171 174.819 183.112 174.812 183.075 174.804C183.038 174.789 183.016 174.76 183.009 174.731C182.965 174.517 183.024 174.318 183.097 174.127C183.384 173.398 183.679 172.677 183.973 171.955C184.128 171.573 184.319 171.205 184.444 170.814C184.731 169.909 185.099 169.04 185.541 168.201C185.806 167.686 186.049 167.163 186.292 166.641C186.984 165.154 187.683 163.659 188.287 162.128C188.662 161.171 189.111 160.244 189.487 159.287C189.899 158.212 190.26 157.115 190.65 156.033C191.047 154.907 191.43 153.781 191.857 152.662C192.085 152.051 192.328 151.44 192.519 150.807C192.895 149.673 193.359 148.577 193.925 147.524C194.691 146.066 195.486 144.631 196.384 143.247C196.399 143.21 196.414 143.173 196.421 143.129C196.45 143.034 196.421 142.953 196.325 142.931C196.252 142.916 196.141 142.908 196.097 142.945C195.729 143.277 195.368 143.6 195.133 144.049C194.772 144.741 194.338 145.397 193.903 146.052C193.705 146.361 193.528 146.685 193.381 147.023C193.145 147.553 192.954 148.098 192.704 148.613C192.085 149.872 191.688 151.219 191.224 152.537C190.628 154.245 190.083 155.974 189.42 157.653C188.743 159.375 188.154 161.135 187.359 162.813C186.837 163.924 186.395 165.08 185.806 166.17C185.71 166.346 185.629 166.538 185.541 166.729C185.291 167.288 185.048 167.855 184.79 168.415C184.724 168.518 184.636 168.606 184.54 168.68C184.518 168.702 184.452 168.694 184.422 168.68C184.385 168.665 184.363 168.636 184.356 168.599C184.334 168.098 184.511 167.634 184.673 167.171C184.857 166.626 185.099 166.096 185.173 165.522C185.21 165.36 185.261 165.198 185.328 165.051C185.674 164.167 186.042 163.291 186.461 162.452C186.726 161.937 186.977 161.414 187.212 160.892C187.242 160.84 187.197 160.737 187.161 160.671C187.109 160.582 186.91 160.582 186.829 160.663C186.712 160.774 186.609 160.899 186.528 161.039C186.159 161.819 185.799 162.607 185.438 163.387C185.394 163.461 185.342 163.52 185.276 163.571C185.247 163.601 185.21 163.608 185.173 163.608C185.085 163.608 185.026 163.549 185.048 163.446C185.217 162.563 185.357 161.665 185.688 160.818C185.99 160.052 186.314 159.294 186.653 158.543C187.05 157.638 187.47 156.747 187.882 155.849C187.904 155.812 187.904 155.768 187.897 155.732C187.86 155.665 187.816 155.606 187.764 155.555C187.727 155.533 187.683 155.533 187.646 155.555C187.374 155.702 187.278 155.989 187.161 156.247C186.756 157.108 186.388 157.977 185.99 158.838C185.872 159.103 185.718 159.338 185.578 159.589C185.563 159.603 185.497 159.603 185.468 159.589C185.438 159.574 185.394 159.537 185.394 159.508C185.372 158.808 185.453 158.117 185.644 157.439C185.659 157.402 185.674 157.366 185.688 157.329C186.13 156.394 186.424 155.4 186.837 154.465C187.227 153.56 187.727 152.706 188.213 151.845C188.633 151.094 189.17 150.409 189.575 149.644C189.722 149.401 189.892 149.165 190.076 148.937C190.289 148.643 190.539 148.356 190.738 148.047C191.482 146.898 192.446 145.949 193.366 144.947C193.616 144.675 193.881 144.417 194.146 144.16C194.772 143.571 195.42 142.997 196.038 142.393C196.973 141.473 197.864 140.501 198.924 139.714C198.997 139.662 199.056 139.611 199.115 139.552C199.888 138.698 200.779 137.954 201.5 137.056C201.522 137.027 201.559 137.005 201.596 136.983C201.633 136.968 201.684 136.946 201.714 136.961C201.765 137.005 201.861 137.064 201.853 137.115C201.78 137.969 201.699 138.83 201.596 139.684C201.507 140.42 201.368 141.149 201.382 141.9C201.382 142.062 201.375 142.224 201.345 142.386C201.139 143.895 200.992 145.419 200.698 146.913C200.227 149.254 199.976 151.631 199.343 153.935C199.071 155.562 198.725 157.174 198.372 158.779C198.129 159.868 197.893 160.951 197.569 162.018C197.194 163.232 196.759 164.432 196.34 165.64C196.104 166.302 195.869 166.957 195.596 167.598C195.162 168.621 194.676 169.622 194.308 170.667C194.043 171.411 193.624 172.073 193.278 172.78C192.637 174.112 191.96 175.43 191.106 176.644C190.326 177.756 189.634 178.926 188.736 179.957C187.705 181.135 186.704 182.327 185.725 183.549C185.563 183.733 185.394 183.91 185.21 184.072C184.334 184.94 183.517 185.868 182.773 186.854C182.192 187.642 181.574 188.415 180.955 189.188C180.859 189.335 180.712 189.416 180.536 189.416C180.477 189.239 180.58 189.099 180.653 188.967C181.014 188.363 181.345 187.745 181.765 187.186C182.383 186.368 182.95 185.507 183.554 184.675C184.349 183.564 184.974 182.371 185.674 181.208C185.814 180.951 185.939 180.693 186.049 180.428C186.093 180.31 186.123 180.192 186.137 180.075C186.137 180.031 186.123 179.994 186.101 179.957C186.027 179.972 185.917 179.964 185.887 180.016C185.666 180.399 185.453 180.803 185.232 181.201C184.945 181.738 184.65 182.283 184.282 182.776C183.517 183.799 182.744 184.815 181.993 185.838C181.507 186.508 180.999 187.156 180.617 187.892C180.433 188.26 180.226 188.614 179.998 188.96C179.91 189.085 179.755 189.166 179.623 189.261C179.586 189.283 179.542 189.283 179.505 189.261C179.476 189.232 179.461 189.195 179.468 189.158C179.557 188.621 179.836 188.157 180.057 187.671C180.145 187.487 180.212 187.289 180.123 187.082L180.16 187.09ZM168.78 207.716C168.868 207.848 168.957 207.973 169.038 208.106C169.052 208.135 169.045 208.187 169.052 208.224C168.986 208.201 168.905 208.187 168.868 208.143C168.758 208.017 168.706 207.87 168.817 207.716C168.64 207.443 168.412 207.193 168.294 206.891C168.088 206.391 167.779 205.956 167.499 205.493C167.212 204.992 166.969 204.469 166.66 203.991C166.078 203.093 165.46 202.21 164.856 201.334C164.731 201.172 164.591 201.017 164.444 200.877C164.422 200.855 164.371 200.862 164.326 200.848C164.319 200.892 164.29 200.936 164.304 200.973C164.577 201.525 164.871 202.055 165.202 202.578C165.887 203.645 166.66 204.668 167.197 205.831C167.882 206.825 168.287 207.944 168.706 209.063C168.839 209.416 168.927 209.777 169.089 210.108C169.575 211.109 169.906 212.169 170.274 213.214C170.318 213.325 170.274 213.376 170.142 213.347C169.582 212.707 168.92 212.088 168.375 211.359C167.933 210.771 167.484 210.182 167.035 209.585C166.837 209.328 166.66 209.041 166.424 208.82C165.931 208.371 165.563 207.819 165.158 207.303C164.783 206.818 164.437 206.288 164.003 205.861C163.495 205.367 163.068 204.823 162.619 204.285C162.435 204.065 162.221 203.866 162.03 203.66C161.853 203.483 161.691 203.299 161.537 203.108C160.852 202.18 160.116 201.289 159.336 200.443C158.629 199.692 158.092 198.809 157.355 198.08C155.758 195.938 154.161 193.788 152.666 191.565C152.563 191.44 152.475 191.3 152.401 191.153C152.203 190.601 151.842 190.145 151.525 189.666C151.084 189.018 150.627 188.385 150.333 187.657C150.311 187.62 150.289 187.59 150.252 187.568C150.171 187.509 150.083 187.509 150.031 187.576C149.935 187.708 149.943 187.502 149.965 187.664C150.024 188.128 150.223 188.525 150.458 188.915C150.642 189.232 150.878 189.534 151.025 189.872C151.209 190.285 151.437 190.675 151.702 191.043C152.357 191.992 153.012 192.935 153.66 193.892C153.866 194.201 154.021 194.539 154.242 194.834C154.455 195.136 154.72 195.393 154.956 195.673C155.037 195.769 155.103 195.879 155.177 195.975C156.008 197.101 156.848 198.22 157.679 199.346C157.9 199.641 158.114 199.95 158.386 200.207C158.864 200.664 159.247 201.201 159.674 201.694C159.888 201.945 160.072 202.224 160.315 202.445C160.631 202.769 160.926 203.115 161.191 203.476C161.514 203.903 161.838 204.337 162.221 204.705C162.611 205.08 162.965 205.478 163.281 205.905C163.45 206.14 163.627 206.369 163.826 206.575C164.599 207.326 165.195 208.216 165.85 209.063C166.204 209.519 166.513 210.005 166.837 210.483C166.866 210.535 166.844 210.623 166.844 210.69C166.8 210.682 166.748 210.682 166.726 210.66C166.608 210.542 166.505 210.417 166.388 210.299C166.005 209.872 165.57 209.497 165.099 209.173C164.967 209.1 164.856 209.122 164.768 209.247C164.731 209.306 164.687 209.423 164.717 209.468C164.805 209.652 164.923 209.814 165.07 209.961C165.313 210.182 165.607 210.344 165.85 210.557C166.424 211.08 167.057 211.551 167.47 212.235C167.484 212.272 167.477 212.316 167.492 212.361C167.506 212.427 167.484 212.442 167.418 212.397C167.094 212.228 166.792 212.015 166.52 211.764C166.042 211.323 165.548 210.888 165.055 210.454C163.826 209.357 162.597 208.26 161.367 207.171C160.874 206.737 160.388 206.295 159.866 205.897C159.21 205.397 158.526 204.933 157.819 204.514C156.862 203.954 155.964 203.314 155.125 202.585C154.293 201.856 153.395 201.186 152.725 200.288C152.637 200.193 152.549 200.112 152.453 200.031C151.916 199.471 151.356 198.919 150.841 198.338C150.458 197.903 150.142 197.417 149.774 196.976C149.376 196.505 148.942 196.07 148.559 195.592C148.007 194.922 147.514 194.215 147.087 193.457C146.579 192.567 146.086 191.661 145.592 190.763C144.945 189.607 144.415 188.407 144.017 187.149C143.826 186.516 143.656 185.875 143.414 185.264C143.229 184.808 143.104 184.337 142.964 183.866C142.751 183.115 142.53 182.371 142.236 181.635C141.728 180.34 141.19 179.044 140.867 177.675C140.822 177.476 140.734 177.292 140.668 177.093C140.55 176.747 140.395 176.402 140.329 176.041C140.042 174.502 139.527 173.023 139.041 171.543C138.776 170.675 138.577 169.791 138.459 168.893C138.437 168.687 138.445 168.481 138.474 168.275C138.489 168.076 138.68 167.914 138.886 167.885C139.358 167.804 139.792 167.892 140.182 168.157C140.668 168.474 141.139 168.805 141.617 169.121C142.913 169.953 144.002 171.013 145.018 172.139C145.6 172.787 146.211 173.398 146.836 173.987C147.823 174.929 148.758 175.916 149.67 176.909C150.672 178.006 151.709 179.052 152.814 180.038C153.579 180.722 154.293 181.466 155.029 182.18C155.471 182.835 156.06 183.35 156.612 183.902C157.274 184.58 157.878 185.301 158.423 186.081C158.585 186.317 158.769 186.538 158.938 186.773C159.468 187.509 159.991 188.246 160.521 188.982C160.705 189.254 160.859 189.541 160.992 189.843C161.308 190.557 161.669 191.249 162.059 191.926C162.619 192.839 163.215 193.73 163.745 194.657C164.4 195.805 164.989 196.976 165.438 198.22C165.821 199.258 166.159 200.318 166.535 201.363C166.969 202.563 167.367 203.777 167.874 204.941C168.235 205.772 168.5 206.634 168.824 207.48C168.846 207.539 168.795 207.635 168.78 207.708V207.716ZM176.399 192.854C176.251 192.964 176.2 193.111 176.237 193.288C176.384 194.237 176.303 195.18 176.126 196.115C175.979 196.924 175.847 197.734 175.699 198.544C175.692 198.603 175.611 198.654 175.567 198.706C175.515 198.654 175.42 198.603 175.412 198.544C175.339 197.521 175.258 196.49 175.221 195.467C175.191 194.687 175.199 193.899 175.206 193.119C175.221 191.845 175.214 190.564 175.39 189.298C175.464 188.812 175.508 188.319 175.559 187.826C175.67 186.803 175.729 185.78 175.729 184.749C175.744 184.499 175.773 184.256 175.81 184.013C175.979 182.71 176.222 181.407 176.288 180.089C176.303 179.677 176.377 179.272 176.509 178.882C176.767 178.087 176.884 177.277 177.01 176.468C177.304 174.591 177.591 172.721 178.048 170.881C178.121 170.601 178.165 170.321 178.224 170.034C178.681 167.568 179.122 165.095 179.593 162.629C180.079 160.126 180.425 157.594 180.639 155.054C180.646 154.929 180.624 154.811 180.565 154.701C180.543 154.642 180.44 154.613 180.366 154.591C180.344 154.583 180.293 154.627 180.278 154.664C180.094 155.165 180.05 155.702 179.984 156.232C179.822 157.454 179.704 158.676 179.446 159.891C179.24 160.855 179.093 161.834 178.924 162.806C178.681 164.189 178.452 165.566 178.209 166.942C178.092 167.59 177.967 168.238 177.841 168.886C177.79 169.129 177.687 169.357 177.65 169.6C177.289 171.624 176.943 173.656 176.597 175.68C176.48 176.328 176.421 176.998 176.229 177.623C175.854 178.809 175.729 180.038 175.596 181.267C175.523 181.959 175.464 182.658 175.353 183.35C175.265 183.917 175.236 184.491 175.199 185.066C175.118 186.339 175.066 187.612 174.868 188.871C174.75 189.563 174.691 190.255 174.691 190.962C174.713 191.948 174.698 192.927 174.647 193.914C174.58 195.231 174.684 196.549 174.801 197.859C174.89 198.89 174.868 199.913 174.853 200.943C174.845 200.98 174.831 201.017 174.794 201.047C174.728 201.024 174.632 201.002 174.603 200.951C174.499 200.774 174.411 200.59 174.345 200.399C174.131 199.773 173.925 199.147 173.719 198.522C173.52 197.94 173.3 197.359 173.123 196.77C172.887 195.975 172.674 195.187 172.483 194.385C172.144 193.03 171.746 191.683 171.695 190.27C171.695 190.189 171.665 190.108 171.658 190.027C171.548 188.761 171.297 187.502 171.386 186.214C171.378 186.177 171.371 186.14 171.356 186.103C171.349 185.978 171.29 185.942 171.172 185.993C171.135 186 171.099 186.03 171.077 186.067C170.907 186.449 170.9 186.862 170.929 187.274C170.988 188.26 171.062 189.239 171.165 190.226C171.356 191.904 171.665 193.56 172.092 195.194C172.343 196.196 172.586 197.197 172.961 198.154C173.373 199.228 173.682 200.34 174.014 201.444C174.08 201.672 174.131 201.9 174.073 202.136C174.036 202.121 173.984 202.106 173.969 202.077C173.565 201.223 173.167 200.369 172.77 199.508C172.291 198.47 171.805 197.425 171.327 196.38C170.804 195.216 170.267 194.061 169.752 192.898C169.553 192.449 169.376 191.985 169.222 191.514C168.942 190.616 168.692 189.703 168.412 188.798C168.147 187.973 167.941 187.134 167.786 186.28C167.713 185.838 167.646 185.389 167.551 184.94C167.352 184.013 167.286 183.071 167.197 182.128C167.153 181.554 167.183 180.98 167.278 180.406C167.337 180.001 167.396 179.589 167.425 179.177C167.477 178.441 167.602 177.712 167.801 176.99C168.095 175.923 168.368 174.841 168.662 173.774C168.846 173.096 169.067 172.441 169.325 171.786C169.538 171.256 169.729 170.711 169.906 170.159C170.201 169.261 170.502 168.363 170.767 167.458C171.202 165.956 171.717 164.477 172.195 162.99C172.335 162.563 172.46 162.121 172.608 161.701C173.182 160.111 173.682 158.507 174.176 156.887C174.293 156.497 174.448 156.114 174.551 155.717C174.845 154.517 175.177 153.332 175.648 152.183C175.773 151.882 175.869 151.565 175.972 151.256C176.148 150.704 176.303 150.152 176.487 149.607C176.752 148.827 177.046 148.054 177.297 147.274C177.716 145.978 178.077 144.675 178.489 143.38C178.931 141.966 179.299 140.531 180.013 139.221C180.05 139.147 180.072 139.066 180.109 138.992C180.83 137.366 181.743 135.857 182.744 134.392C182.884 134.193 183.038 133.994 183.2 133.81C183.973 132.956 184.739 132.102 185.534 131.263C186.005 130.741 186.572 130.328 187.212 130.041C187.345 129.982 187.573 130.144 187.558 130.299C187.551 130.498 187.521 130.704 187.47 130.902C187.359 131.3 187.212 131.683 187.08 132.073C186.8 132.934 186.513 133.795 186.24 134.657C186.152 134.892 186.101 135.128 186.086 135.378C186.086 135.79 185.983 136.188 185.909 136.593C185.755 137.483 185.615 138.374 185.416 139.257C185.364 139.5 185.342 139.751 185.328 139.993C185.239 141.061 185.188 142.128 185.063 143.188C184.974 144.13 184.93 145.08 184.945 146.022C184.93 148.819 185.107 151.617 185.048 154.414C185.026 155.489 184.996 156.556 184.893 157.616C184.783 158.764 184.673 159.913 184.481 161.054C184.231 162.592 184.003 164.138 183.767 165.684C183.679 166.295 183.598 166.906 183.517 167.524C183.458 167.966 183.458 168.429 183.37 168.871C183.127 170.167 182.854 171.455 182.589 172.743C182.553 172.942 182.464 173.133 182.413 173.332C182.03 174.635 181.64 175.938 181.286 177.248C180.837 178.912 180.462 180.597 179.858 182.224C179.814 182.335 179.792 182.46 179.763 182.577C179.534 183.417 179.35 184.263 179.085 185.08C178.776 186.067 178.467 187.038 178.239 188.047C177.856 189.732 177.341 191.381 176.943 193.06C176.929 193.097 176.907 193.133 176.884 193.17C176.84 193.258 176.759 193.288 176.686 193.214C176.568 193.104 176.472 192.971 176.362 192.846L176.399 192.854ZM210.819 129.062C210.746 129.025 210.672 128.981 210.606 128.93C210.407 128.702 210.179 128.694 209.951 128.841C209.664 129.011 209.391 129.195 209.133 129.393C208.456 129.931 207.809 130.49 207.175 131.072C206.469 131.712 205.858 132.426 205.254 133.14C205.136 133.258 205.041 133.391 204.974 133.545C204.798 134.024 204.4 134.34 204.121 134.745C204.091 134.797 203.981 134.789 203.907 134.819C203.892 134.774 203.885 134.738 203.885 134.693C203.973 134.244 204.106 133.803 204.408 133.464C204.952 132.846 205.357 132.117 205.998 131.587C206.057 131.528 206.093 131.455 206.101 131.374C206.101 131.293 206.086 131.226 206.049 131.16C206.042 131.145 205.961 131.145 205.931 131.16C205.644 131.263 205.453 131.484 205.276 131.705C205.063 131.955 204.864 132.213 204.57 132.382C204.503 132.397 204.437 132.397 204.371 132.375C204.349 132.338 204.349 132.301 204.356 132.257C204.695 131.602 205.011 130.932 205.394 130.299C205.74 129.747 206.13 129.209 206.55 128.709C207.22 127.892 208.022 127.303 209.141 127.215C209.84 127.163 210.525 127.038 211.202 126.861C212.041 126.633 212.895 126.545 213.742 126.375C213.984 126.339 214.227 126.324 214.47 126.331C214.537 126.331 214.603 126.412 214.662 126.464C214.676 126.501 214.676 126.537 214.662 126.574C214.323 127.163 213.889 127.627 213.212 127.826C213.02 127.884 212.844 128.002 212.659 128.098C212.365 128.245 212.078 128.4 211.784 128.54C211.452 128.702 211.165 128.952 210.819 129.062ZM174.426 203.115C174.367 203.034 174.382 202.997 174.455 203.019C174.47 203.027 174.477 203.071 174.492 203.1L174.426 203.115Z" fill="#D6A553"/>
</g>
<path d="M174.731 166.207C174.65 166.295 174.583 166.391 174.532 166.501C174.046 167.627 173.553 168.761 173.185 169.939C173.17 169.975 173.163 170.012 173.148 170.056C173.001 170.947 172.692 171.801 172.397 172.655C172.36 172.773 172.331 172.89 172.309 173.008C171.816 175.636 171.352 178.264 171.021 180.907C170.999 181.157 170.984 181.4 170.977 181.643C170.969 182.18 170.969 182.71 170.866 183.24C170.851 183.402 170.851 183.564 170.881 183.726C170.881 183.866 170.954 183.962 171.087 183.998C171.234 184.02 171.33 183.962 171.367 183.822C171.411 183.711 171.44 183.594 171.462 183.468C171.521 183.064 171.565 182.651 171.58 182.246C171.588 181.628 171.646 181.017 171.749 180.406C171.779 180.288 171.794 180.163 171.794 180.038C171.764 179.214 171.992 178.419 172.066 177.602C172.073 177.521 172.081 177.44 172.095 177.359C172.25 176.593 172.5 175.85 172.574 175.069C172.648 174.289 172.89 173.546 173.038 172.78C173.111 172.375 173.266 171.985 173.376 171.595C173.744 170.336 174.068 169.063 174.503 167.826C174.679 167.318 174.848 166.818 175.025 166.31C175.025 166.273 175.003 166.236 174.974 166.221C174.893 166.207 174.812 166.207 174.731 166.207Z" fill="#D6A553"/>
<path d="M184.008 135.687C183.979 135.709 183.927 135.724 183.913 135.761C183.861 135.871 183.817 135.982 183.78 136.1C183.478 137.034 183.177 137.977 182.889 138.919C182.794 139.235 182.713 139.552 182.654 139.876C182.529 140.479 182.382 141.076 182.205 141.665C181.977 142.452 181.807 143.255 181.712 144.072C181.594 145.006 181.454 145.941 181.373 146.884C181.38 147.001 181.402 147.119 181.447 147.23C181.454 147.259 181.506 147.274 181.542 147.281C181.579 147.281 181.616 147.266 181.645 147.244C181.682 147.222 181.712 147.193 181.726 147.156C181.793 147.001 181.837 146.847 181.859 146.685C181.932 145.492 182.264 144.337 182.426 143.159C182.455 142.953 182.492 142.754 182.543 142.555C183.081 140.45 183.464 138.301 184.214 136.247C184.266 136.092 184.31 135.923 184.207 135.776C184.17 135.724 184.075 135.717 184.008 135.687Z" fill="#D6A553"/>
<path d="M180.671 152.596C180.708 152.618 180.738 152.633 180.782 152.64C180.819 152.64 180.848 152.633 180.878 152.611C180.914 152.581 180.936 152.552 180.951 152.515C181.216 151.742 181.363 150.94 181.385 150.123C181.385 150.056 181.304 149.983 181.253 149.939C181.172 149.872 180.988 149.968 180.966 150.086C180.848 150.851 180.576 151.587 180.59 152.368C180.605 152.449 180.635 152.522 180.671 152.596Z" fill="#D6A553"/>
<path d="M176.355 192.846C176.384 192.772 176.436 192.699 176.428 192.633C176.421 192.574 176.34 192.537 176.296 192.486C176.274 192.508 176.237 192.522 176.237 192.544C176.23 192.589 176.237 192.625 176.252 192.662C176.296 192.728 176.34 192.787 176.392 192.853L176.355 192.846Z" fill="#D6A553"/>
<path d="M142.243 173.089C142.096 172.758 141.956 172.419 141.794 172.088C141.772 172.036 141.662 172.014 141.588 172C141.493 171.992 141.345 172.176 141.367 172.25C141.382 172.331 141.404 172.412 141.434 172.485C141.993 173.435 142.435 174.458 143.112 175.334C143.164 175.401 143.208 175.467 143.237 175.548C143.546 176.357 144.054 177.057 144.511 177.778C144.621 177.955 144.717 178.131 144.798 178.323C145.026 178.853 145.372 179.309 145.711 179.773C145.777 179.861 145.865 179.861 145.902 179.795C145.939 179.721 145.961 179.648 145.953 179.567C145.946 179.486 145.917 179.412 145.872 179.339C145.365 178.455 144.857 177.572 144.349 176.689C144.275 176.586 144.216 176.475 144.172 176.357C144.025 175.835 143.686 175.415 143.392 174.974C142.987 174.363 142.567 173.759 142.243 173.089Z" fill="#D6A553"/>
<path d="M148.076 183.189C147.965 183.078 147.884 182.99 147.796 182.909C147.759 182.887 147.73 182.872 147.685 182.887C147.597 182.916 147.546 182.99 147.582 183.071C148.039 184.02 148.502 184.963 148.966 185.912C148.988 185.956 149.018 185.986 149.055 186.001C149.128 186.03 149.202 186.037 149.283 186.023C149.349 185.986 149.401 185.927 149.423 185.853C149.452 185.772 149.452 185.691 149.415 185.618C148.966 184.793 148.517 183.976 148.076 183.189Z" fill="#D6A553"/>
<path d="M180.708 185.75C181.068 185.39 181.326 184.985 181.245 184.44L181.289 184.447C181.032 184.69 180.892 185.007 180.752 185.323C180.686 185.47 180.686 185.618 180.752 185.765L180.708 185.75Z" fill="#D6A553"/>
<path d="M180.112 187.082C180.407 186.876 180.569 186.619 180.421 186.251L180.466 186.258C180.215 186.479 180.075 186.744 180.156 187.09L180.112 187.082Z" fill="#D6A553"/>
<path d="M181.542 183.939C181.697 183.807 181.785 183.645 181.829 183.454C181.837 183.417 181.852 183.351 181.829 183.343C181.741 183.284 181.675 183.306 181.638 183.409C181.55 183.586 181.483 183.763 181.579 183.954L181.542 183.939Z" fill="#D6A553"/>
<path d="M181.585 183.954C181.401 184.065 181.276 184.212 181.29 184.447L181.246 184.433C181.423 184.322 181.555 184.175 181.541 183.939L181.585 183.954Z" fill="#D6A553"/>
<path d="M180.751 185.765C180.575 185.883 180.413 186.008 180.464 186.258L180.42 186.251C180.611 186.14 180.751 186.001 180.707 185.75L180.751 185.765Z" fill="#D6A553"/>
<path d="M255.007 302.213C256.357 302.213 257.39 302.555 258.115 303.24C258.832 303.925 259.26 304.84 259.405 305.979H256.956C256.883 305.347 256.673 304.866 256.324 304.53C255.988 304.181 255.514 304.004 254.902 304.004C254.408 304.004 254.006 304.129 253.69 304.372C253.387 304.603 253.243 304.952 253.243 305.426C253.243 305.92 253.427 306.315 253.796 306.611C254.164 306.894 254.823 307.151 255.771 307.375C257.068 307.677 258.023 308.132 258.641 308.744C259.254 309.343 259.563 310.127 259.563 311.088C259.563 312.181 259.129 313.037 258.273 313.669C257.43 314.301 256.39 314.617 255.165 314.617C253.723 314.617 252.564 314.301 251.689 313.669C250.826 313.024 250.346 312.082 250.24 310.851H252.663C252.782 311.483 253.065 311.977 253.506 312.326C253.96 312.681 254.507 312.852 255.139 312.852C255.679 312.852 256.139 312.714 256.508 312.431C256.89 312.155 257.088 311.792 257.088 311.351C257.088 310.844 256.903 310.43 256.535 310.114C256.179 309.798 255.567 309.534 254.691 309.323C253.354 309.007 252.36 308.586 251.715 308.059C251.063 307.519 250.741 306.736 250.741 305.715C250.741 304.649 251.149 303.793 251.978 303.161C252.801 302.529 253.809 302.213 255.007 302.213Z" fill="#D6A553"/>
</svg>
